STARTFONT 2.1
FONT -Baekmuk-Gulim-Medium-R-Normal--20-200-75-75-M-200-ksx1001.1997-0
SIZE 20 75 75
FONTBOUNDINGBOX 20 20 0 -4
STARTPROPERTIES 18
FOUNDRY "Baekmuk"
FAMILY_NAME "Gulim"
WEIGHT_NAME "Medium"
SLANT "R"
SETWIDTH_NAME "Normal"
ADD_STYLE_NAME ""
PIXEL_SIZE 20
POINT_SIZE 200
RESOLUTION_X 75
RESOLUTION_Y 75
SPACING "M"
AVERAGE_WIDTH 200
CHARSET_REGISTRY "ksx1001.1997"
CHARSET_ENCODING "0"
DEFAULT_CHAR 8481
FONT_ASCENT 16
FONT_DESCENT 4
COPYRIGHT "(c)Hwan Design Inc. and Mizi Research Inc."
ENDPROPERTIES
CHARS 8224
STARTCHAR 3000
ENCODING 8481
SWIDTH 2000 0
DWIDTH 20 0
BBX 0 0 0 0
BITMAP
ENDCHAR
STARTCHAR 3001
ENCODING 8482
SWIDTH 2000 0
DWIDTH 20 0
BBX 3 4 13 11
BITMAP
80
60
20
20
ENDCHAR
STARTCHAR 3002
ENCODING 8483
SWIDTH 2000 0
DWIDTH 20 0
BBX 4 5 13 11
BITMAP
60
90
10
B0
40
ENDCHAR
STARTCHAR 00B7
ENCODING 8484
SWIDTH 2000 0
DWIDTH 20 0
BBX 3 2 8 5
BITMAP
E0
60
ENDCHAR
STARTCHAR 2025
ENCODING 8485
SWIDTH 2000 0
DWIDTH 20 0
BBX 10 2 5 5
BITMAP
C0C0
C0C0
ENDCHAR
STARTCHAR 2026
ENCODING 8486
SWIDTH 2000 0
DWIDTH 20 0
BBX 12 2 3 5
BITMAP
8110
8110
ENDCHAR
STARTCHAR 00A8
ENCODING 8487
SWIDTH 2000 0
DWIDTH 20 0
BBX 6 1 6 11
BITMAP
84
ENDCHAR
STARTCHAR 3003
ENCODING 8488
SWIDTH 2000 0
DWIDTH 20 0
BBX 6 8 7 2
BITMAP
6C
6C
68
48
48
50
90
80
ENDCHAR
STARTCHAR 00AD
ENCODING 8489
SWIDTH 2000 0
DWIDTH 20 0
BBX 9 2 5 5
BITMAP
FF80
7F80
ENDCHAR
STARTCHAR 2015
ENCODING 8490
SWIDTH 2000 0
DWIDTH 20 0
BBX 16 2 2 5
BITMAP
FFFF
FFFF
ENDCHAR
STARTCHAR 2225
ENCODING 8491
SWIDTH 2000 0
DWIDTH 20 0
BBX 4 14 8 0
BITMAP
90
90
90
90
90
90
90
90
90
90
90
90
90
90
ENDCHAR
STARTCHAR FF3C
ENCODING 8492
SWIDTH 2000 0
DWIDTH 20 0
BBX 15 16 2 -2
BITMAP
8000
4000
2000
1000
0800
0400
0200
0100
0180
00C0
0060
0020
0010
0008
0004
0002
ENDCHAR
STARTCHAR 223C
ENCODING 8493
SWIDTH 2000 0
DWIDTH 20 0
BBX 11 4 4 4
BITMAP
3800
4C20
8740
0380
ENDCHAR
STARTCHAR 2018
ENCODING 8494
SWIDTH 2000 0
DWIDTH 20 0
BBX 2 5 13 10
BITMAP
40
80
80
C0
C0
ENDCHAR
STARTCHAR 2019
ENCODING 8495
SWIDTH 2000 0
DWIDTH 20 0
BBX 2 4 5 12
BITMAP
80
C0
80
80
ENDCHAR
STARTCHAR 201C
ENCODING 8496
SWIDTH 2000 0
DWIDTH 20 0
BBX 6 5 11 11
BITMAP
44
88
88
CC
CC
ENDCHAR
STARTCHAR 201D
ENCODING 8497
SWIDTH 2000 0
DWIDTH 20 0
BBX 6 4 3 12
BITMAP
DC
48
48
90
ENDCHAR
STARTCHAR 3014
ENCODING 8498
SWIDTH 2000 0
DWIDTH 20 0
BBX 4 20 14 -4
BITMAP
10
60
80
80
80
80
80
80
80
80
80
80
80
80
80
80
80
80
70
10
ENDCHAR
STARTCHAR 3015
ENCODING 8499
SWIDTH 2000 0
DWIDTH 20 0
BBX 4 20 2 -4
BITMAP
80
60
10
10
10
10
10
10
10
10
10
10
10
10
10
10
10
10
70
80
ENDCHAR
STARTCHAR 3008
ENCODING 8500
SWIDTH 2000 0
DWIDTH 20 0
BBX 6 16 11 -2
BITMAP
04
08
08
10
20
20
40
80
80
40
20
20
10
08
08
04
ENDCHAR
STARTCHAR 3009
ENCODING 8501
SWIDTH 2000 0
DWIDTH 20 0
BBX 6 17 2 -3
BITMAP
80
40
20
20
10
08
04
04
04
04
08
10
20
20
40
80
80
ENDCHAR
STARTCHAR 300A
ENCODING 8502
SWIDTH 2000 0
DWIDTH 20 0
BBX 8 18 10 -3
BITMAP
01
0A
1A
14
24
28
48
50
90
90
50
48
28
24
14
12
0A
09
ENDCHAR
STARTCHAR 300B
ENCODING 8503
SWIDTH 2000 0
DWIDTH 20 0
BBX 7 18 2 -3
BITMAP
A0
B0
50
58
28
24
14
12
0A
0A
12
14
2C
28
50
50
A0
A0
ENDCHAR
STARTCHAR 300C
ENCODING 8504
SWIDTH 2000 0
DWIDTH 20 0
BBX 7 10 12 6
BITMAP
FE
80
80
80
80
80
80
80
80
80
ENDCHAR
STARTCHAR 300D
ENCODING 8505
SWIDTH 2000 0
DWIDTH 20 0
BBX 7 10 0 -4
BITMAP
02
02
02
02
02
02
02
02
02
FE
ENDCHAR
STARTCHAR 300E
ENCODING 8506
SWIDTH 2000 0
DWIDTH 20 0
BBX 7 10 12 6
BITMAP
FE
82
BE
A0
A0
A0
A0
A0
A0
40
ENDCHAR
STARTCHAR 300F
ENCODING 8507
SWIDTH 2000 0
DWIDTH 20 0
BBX 6 9 1 -4
BITMAP
1C
14
14
14
14
14
F4
84
FC
ENDCHAR
STARTCHAR 3010
ENCODING 8508
SWIDTH 2000 0
DWIDTH 20 0
BBX 3 17 14 -2
BITMAP
E0
C0
C0
C0
80
80
80
80
80
80
80
80
80
C0
C0
E0
E0
ENDCHAR
STARTCHAR 3011
ENCODING 8509
SWIDTH 2000 0
DWIDTH 20 0
BBX 3 17 4 -2
BITMAP
E0
60
60
60
20
20
20
20
20
20
20
20
60
60
60
E0
E0
ENDCHAR
STARTCHAR 00B1
ENCODING 8510
SWIDTH 2000 0
DWIDTH 20 0
BBX 12 13 4 0
BITMAP
0400
0400
0400
0400
0400
FFE0
0400
0400
0400
0400
0400
0000
FFF0
ENDCHAR
STARTCHAR 00D7
ENCODING 8511
SWIDTH 2000 0
DWIDTH 20 0
BBX 11 12 4 0
BITMAP
8020
4060
20C0
1180
0900
0E00
0600
0B00
1180
2080
4040
C020
ENDCHAR
STARTCHAR 00F7
ENCODING 8512
SWIDTH 2000 0
DWIDTH 20 0
BBX 13 12 3 0
BITMAP
0100
0100
0100
0000
0000
0000
FFF8
0000
0000
0100
0100
0100
ENDCHAR
STARTCHAR 2260
ENCODING 8513
SWIDTH 2000 0
DWIDTH 20 0
BBX 13 12 3 0
BITMAP
0400
0400
0400
0200
FFF8
0200
0300
FFF8
0100
0100
0080
0080
ENDCHAR
STARTCHAR 2264
ENCODING 8514
SWIDTH 2000 0
DWIDTH 20 0
BBX 12 12 4 0
BITMAP
0030
00E0
0380
0C00
7000
C000
3800
0E00
01C0
0070
0000
FFF0
ENDCHAR
STARTCHAR 2265
ENCODING 8515
SWIDTH 2000 0
DWIDTH 20 0
BBX 12 12 4 0
BITMAP
8000
7000
1C00
0700
01C0
0060
0380
0E00
3000
C000
0000
FFF0
ENDCHAR
STARTCHAR 221E
ENCODING 8516
SWIDTH 2000 0
DWIDTH 20 0
BBX 14 8 3 2
BITMAP
3870
4488
8304
8304
8304
8304
4488
3870
ENDCHAR
STARTCHAR 2234
ENCODING 8517
SWIDTH 2000 0
DWIDTH 20 0
BBX 7 9 6 2
BITMAP
08
08
00
00
00
00
00
82
82
ENDCHAR
STARTCHAR 00B0
ENCODING 8518
SWIDTH 2000 0
DWIDTH 20 0
BBX 4 5 2 11
BITMAP
60
90
90
90
60
ENDCHAR
STARTCHAR 2032
ENCODING 8519
SWIDTH 2000 0
DWIDTH 20 0
BBX 3 6 2 10
BITMAP
20
20
60
40
80
80
ENDCHAR
STARTCHAR 2033
ENCODING 8520
SWIDTH 2000 0
DWIDTH 20 0
BBX 7 6 2 10
BITMAP
36
26
6C
48
90
80
ENDCHAR
STARTCHAR 2103
ENCODING 8521
SWIDTH 2000 0
DWIDTH 20 0
BBX 13 14 3 0
BITMAP
E1C0
A770
AC18
4808
1808
1008
1000
1000
1000
1010
1810
0810
0630
03E0
ENDCHAR
STARTCHAR 212B
ENCODING 8522
SWIDTH 2000 0
DWIDTH 20 0
BBX 10 15 5 0
BITMAP
1C00
1400
1400
0800
0C00
1C00
1600
1200
2200
2100
7F00
7F00
C080
8080
80C0
ENDCHAR
STARTCHAR FFE0
ENCODING 8523
SWIDTH 2000 0
DWIDTH 20 0
BBX 16 17 2 -2
BITMAP
0001
07E2
0C34
1018
1018
2028
2040
20C0
2180
2300
260C
1408
1818
1C30
27E0
4000
8000
ENDCHAR
STARTCHAR FFE1
ENCODING 8524
SWIDTH 2000 0
DWIDTH 20 0
BBX 12 14 4 0
BITMAP
0380
0440
0820
0820
0820
0800
3FC0
3FC0
0400
0400
3410
5C10
9E20
71C0
ENDCHAR
STARTCHAR FFE5
ENCODING 8525
SWIDTH 2000 0
DWIDTH 20 0
BBX 13 15 3 0
BITMAP
2020
3060
1040
18C0
7FF8
0880
0500
0500
FFF8
0200
0200
0200
0200
0200
0200
ENDCHAR
STARTCHAR 2642
ENCODING 8526
SWIDTH 2000 0
DWIDTH 20 0
BBX 9 17 5 -2
BITMAP
0800
1800
1C00
2E00
6A00
4900
8980
0880
0800
0800
1800
3600
2100
2100
2100
3300
1E00
ENDCHAR
STARTCHAR 2640
ENCODING 8527
SWIDTH 2000 0
DWIDTH 20 0
BBX 11 17 4 -3
BITMAP
0F00
1980
1080
1080
1080
1900
0600
0400
0400
FFE0
0400
0400
0400
0400
0400
0400
0400
ENDCHAR
STARTCHAR 2220
ENCODING 8528
SWIDTH 2000 0
DWIDTH 20 0
BBX 11 12 4 0
BITMAP
0040
00C0
0180
0300
0200
0400
0800
1000
2000
6000
C000
FFE0
ENDCHAR
STARTCHAR 22A5
ENCODING 8529
SWIDTH 2000 0
DWIDTH 20 0
BBX 12 12 4 0
BITMAP
0400
0600
0600
0600
0600
0600
0600
0600
0600
0600
0600
FFF0
ENDCHAR
STARTCHAR 2312
ENCODING 8530
SWIDTH 2000 0
DWIDTH 20 0
BBX 11 3 4 11
BITMAP
1F80
6060
C020
ENDCHAR
STARTCHAR 2202
ENCODING 8531
SWIDTH 2000 0
DWIDTH 20 0
BBX 7 14 6 0
BITMAP
3C
66
42
02
02
02
3E
46
86
86
84
84
88
70
ENDCHAR
STARTCHAR 2207
ENCODING 8532
SWIDTH 2000 0
DWIDTH 20 0
BBX 13 11 3 1
BITMAP
FFF8
4018
6010
2030
1020
1040
0840
0C80
0580
0700
0300
ENDCHAR
STARTCHAR 2261
ENCODING 8533
SWIDTH 2000 0
DWIDTH 20 0
BBX 13 8 3 2
BITMAP
FFF8
0000
0000
0000
FFF8
0000
0000
FFF8
ENDCHAR
STARTCHAR 2252
ENCODING 8534
SWIDTH 2000 0
DWIDTH 20 0
BBX 13 12 3 0
BITMAP
2000
2000
2000
0000
FFF8
0000
0000
FFF8
0000
0000
0040
0040
ENDCHAR
STARTCHAR 00A7
ENCODING 8535
SWIDTH 2000 0
DWIDTH 20 0
BBX 6 16 7 -2
BITMAP
70
88
88
80
60
70
98
84
84
44
78
18
8C
84
CC
78
ENDCHAR
STARTCHAR 203B
ENCODING 8536
SWIDTH 2000 0
DWIDTH 20 0
BBX 11 13 4 0
BITMAP
8000
4220
2240
3280
1900
2A20
2420
2A20
1900
1280
2240
4220
8000
ENDCHAR
STARTCHAR 2606
ENCODING 8537
SWIDTH 2000 0
DWIDTH 20 0
BBX 15 16 2 -3
BITMAP
0100
0100
0180
0280
0280
FC7E
6004
3018
1830
0820
0810
1390
16D0
1C30
3018
2008
ENDCHAR
STARTCHAR 2605
ENCODING 8538
SWIDTH 2000 0
DWIDTH 20 0
BBX 13 15 3 -2
BITMAP
0200
0300
0700
0700
0780
FFF8
7FF0
3FE0
1FC0
1FC0
1FC0
1DC0
38E0
3060
0020
ENDCHAR
STARTCHAR 25CB
ENCODING 8539
SWIDTH 2000 0
DWIDTH 20 0
BBX 13 16 3 -2
BITMAP
0F80
1040
2020
4010
4010
8008
8008
8008
8008
8008
8008
4010
4010
2020
1040
0F80
ENDCHAR
STARTCHAR 25CF
ENCODING 8540
SWIDTH 2000 0
DWIDTH 20 0
BBX 13 16 3 -2
BITMAP
0F80
3FE0
7FF0
7FF0
FFF8
FFF8
FFF8
FFF8
FFF8
FFF8
FFF8
FFF8
7FF0
7FF0
3FE0
0F80
ENDCHAR
STARTCHAR 25CE
ENCODING 8541
SWIDTH 2000 0
DWIDTH 20 0
BBX 13 16 3 -2
BITMAP
0F80
1040
2020
4F90
58D0
9048
A028
A028
A028
A028
9048
58D0
4F90
2020
1040
0F80
ENDCHAR
STARTCHAR 25C7
ENCODING 8542
SWIDTH 2000 0
DWIDTH 20 0
BBX 15 17 2 -2
BITMAP
0100
0380
06C0
0460
0830
1018
200C
6006
C002
4002
4004
2008
1010
0820
0440
0280
0100
ENDCHAR
STARTCHAR 25C6
ENCODING 8543
SWIDTH 2000 0
DWIDTH 20 0
BBX 15 17 2 -3
BITMAP
0100
0380
07C0
07E0
0FF0
1FF8
3FFC
7FFE
FFFE
7FFE
3FFC
1FF8
0FF0
0FE0
07C0
0380
0100
ENDCHAR
STARTCHAR 25A1
ENCODING 8544
SWIDTH 2000 0
DWIDTH 20 0
BBX 13 14 3 -1
BITMAP
FFF8
8008
8008
8008
8008
8008
8008
8008
8008
8008
8008
8008
8008
FFF8
ENDCHAR
STARTCHAR 25A0
ENCODING 8545
SWIDTH 2000 0
DWIDTH 20 0
BBX 14 14 3 -1
BITMAP
FFFC
FFFC
FFFC
FFFC
FFFC
FFFC
FFFC
FFFC
FFFC
FFFC
FFFC
FFFC
FFFC
FFFC
ENDCHAR
STARTCHAR 25B3
ENCODING 8546
SWIDTH 2000 0
DWIDTH 20 0
BBX 14 12 3 0
BITMAP
0200
0300
0580
0880
0840
1040
1020
2020
2010
4008
8008
FFFC
ENDCHAR
STARTCHAR 25B2
ENCODING 8547
SWIDTH 2000 0
DWIDTH 20 0
BBX 14 12 3 0
BITMAP
0200
0300
0780
0F80
0FC0
1FC0
1FE0
3FE0
7FF0
7FF8
FFF8
FFFC
ENDCHAR
STARTCHAR 25BD
ENCODING 8548
SWIDTH 2000 0
DWIDTH 20 0
BBX 14 12 3 0
BITMAP
FFFC
C008
4018
2010
2020
1020
1040
0840
0480
0500
0300
0200
ENDCHAR
STARTCHAR 25BC
ENCODING 8549
SWIDTH 2000 0
DWIDTH 20 0
BBX 14 12 3 1
BITMAP
FFFC
FFF8
7FF8
7FF0
3FE0
1FE0
1FC0
0FC0
0F80
0780
0300
0200
ENDCHAR
STARTCHAR 2192
ENCODING 8550
SWIDTH 2000 0
DWIDTH 20 0
BBX 15 6 2 3
BITMAP
0010
0008
FFFE
FFFE
0008
0010
ENDCHAR
STARTCHAR 2190
ENCODING 8551
SWIDTH 2000 0
DWIDTH 20 0
BBX 15 6 3 3
BITMAP
1000
2000
FFFE
E000
2000
1000
ENDCHAR
STARTCHAR 2191
ENCODING 8552
SWIDTH 2000 0
DWIDTH 20 0
BBX 7 16 7 -3
BITMAP
10
38
38
54
92
10
10
10
10
10
10
10
10
10
10
10
ENDCHAR
STARTCHAR 2193
ENCODING 8553
SWIDTH 2000 0
DWIDTH 20 0
BBX 7 16 7 -3
BITMAP
10
10
10
10
10
10
10
10
10
10
10
92
54
38
38
10
ENDCHAR
STARTCHAR 2194
ENCODING 8554
SWIDTH 2000 0
DWIDTH 20 0
BBX 13 6 3 3
BITMAP
2000
4010
C018
FFF8
4010
2000
ENDCHAR
STARTCHAR 3013
ENCODING 8555
SWIDTH 2000 0
DWIDTH 20 0
BBX 13 4 3 4
BITMAP
FFF8
0000
0000
FFF8
ENDCHAR
STARTCHAR 226A
ENCODING 8556
SWIDTH 2000 0
DWIDTH 20 0
BBX 13 14 4 -1
BITMAP
0088
0330
0660
0880
3300
6600
8800
8800
6600
3300
0880
0660
0330
0088
ENDCHAR
STARTCHAR 226B
ENCODING 8557
SWIDTH 2000 0
DWIDTH 20 0
BBX 13 14 3 -1
BITMAP
0800
CC00
6200
1980
0CC0
0620
0198
0198
0330
0440
1980
3300
4400
8800
ENDCHAR
STARTCHAR 221A
ENCODING 8558
SWIDTH 2000 0
DWIDTH 20 0
BBX 16 16 2 -1
BITMAP
007F
0080
0080
0100
0100
0100
0200
0200
0200
0400
0400
6400
A800
3800
1800
1000
ENDCHAR
STARTCHAR 223D
ENCODING 8559
SWIDTH 2000 0
DWIDTH 20 0
BBX 14 8 3 2
BITMAP
3870
40C8
8184
8104
8204
8604
448C
7878
ENDCHAR
STARTCHAR 221D
ENCODING 8560
SWIDTH 2000 0
DWIDTH 20 0
BBX 13 8 4 2
BITMAP
3870
4488
8300
8300
8300
8700
4C88
3870
ENDCHAR
STARTCHAR 2235
ENCODING 8561
SWIDTH 2000 0
DWIDTH 20 0
BBX 10 10 5 0
BITMAP
8040
8040
0000
0000
0000
0000
0000
0400
0400
0400
ENDCHAR
STARTCHAR 222B
ENCODING 8562
SWIDTH 2000 0
DWIDTH 20 0
BBX 7 15 6 0
BITMAP
0E
0A
12
10
10
10
10
10
10
10
10
20
A0
E0
40
ENDCHAR
STARTCHAR 222C
ENCODING 8563
SWIDTH 2000 0
DWIDTH 20 0
BBX 13 15 3 -1
BITMAP
0630
0948
0948
0840
0840
18C0
1880
1080
1080
1080
1080
1080
9480
E700
4000
ENDCHAR
STARTCHAR 2208
ENCODING 8564
SWIDTH 2000 0
DWIDTH 20 0
BBX 13 11 4 0
BITMAP
1FF8
6000
4000
8000
FFF8
8000
8000
C000
4000
6000
1FF8
ENDCHAR
STARTCHAR 220B
ENCODING 8565
SWIDTH 2000 0
DWIDTH 20 0
BBX 13 11 3 0
BITMAP
FFC0
0030
0010
0008
FFF8
0008
0008
0018
0010
0030
FFC0
ENDCHAR
STARTCHAR 2286
ENCODING 8566
SWIDTH 2000 0
DWIDTH 20 0
BBX 12 12 4 0
BITMAP
1FE0
6000
8000
8000
8000
8000
8000
6000
3FE0
0000
0000
FFF0
ENDCHAR
STARTCHAR 2287
ENCODING 8567
SWIDTH 2000 0
DWIDTH 20 0
BBX 13 12 3 0
BITMAP
FF80
0060
0030
0010
0010
0010
0010
0060
FFC0
0000
0000
7FF8
ENDCHAR
STARTCHAR 2282
ENCODING 8568
SWIDTH 2000 0
DWIDTH 20 0
BBX 13 11 4 0
BITMAP
1FF8
6000
4000
8000
8000
8000
8000
8000
4000
6000
1FF8
ENDCHAR
STARTCHAR 2283
ENCODING 8569
SWIDTH 2000 0
DWIDTH 20 0
BBX 13 11 3 0
BITMAP
FFC0
0030
0010
0008
0008
0008
0008
0008
0010
0030
FFC0
ENDCHAR
STARTCHAR 222A
ENCODING 8570
SWIDTH 2000 0
DWIDTH 20 0
BBX 10 14 5 0
BITMAP
8040
8040
8040
8040
8040
8040
8040
8040
8040
8040
C040
40C0
6180
1F00
ENDCHAR
STARTCHAR 2229
ENCODING 8571
SWIDTH 2000 0
DWIDTH 20 0
BBX 10 14 5 0
BITMAP
3F00
6180
4080
8040
8040
8040
8040
8040
8040
8040
8040
8040
8040
8040
ENDCHAR
STARTCHAR 2227
ENCODING 8572
SWIDTH 2000 0
DWIDTH 20 0
BBX 12 11 4 0
BITMAP
0600
0600
0900
0900
1080
1080
2040
2040
4020
4020
8030
ENDCHAR
STARTCHAR 2228
ENCODING 8573
SWIDTH 2000 0
DWIDTH 20 0
BBX 12 11 4 1
BITMAP
8010
4020
4020
2040
2040
1080
1080
0900
0900
0600
0600
ENDCHAR
STARTCHAR FFE2
ENCODING 8574
SWIDTH 2000 0
DWIDTH 20 0
BBX 11 7 4 3
BITMAP
FFE0
0020
0020
0020
0020
0020
0020
ENDCHAR
STARTCHAR 21D2
ENCODING 8737
SWIDTH 2000 0
DWIDTH 20 0
BBX 16 10 1 1
BITMAP
0010
0008
0004
7FFE
0001
0001
FFFE
0004
0008
0010
ENDCHAR
STARTCHAR 21D4
ENCODING 8738
SWIDTH 2000 0
DWIDTH 20 0
BBX 14 10 3 1
BITMAP
0840
1020
2010
5FE8
8004
8004
4008
3FF0
1020
0840
ENDCHAR
STARTCHAR 2200
ENCODING 8739
SWIDTH 2000 0
DWIDTH 20 0
BBX 12 14 4 0
BITMAP
8010
8010
4030
4020
2020
3FC0
2040
1080
1080
0880
0900
0500
0600
0600
ENDCHAR
STARTCHAR 2203
ENCODING 8740
SWIDTH 2000 0
DWIDTH 20 0
BBX 9 13 5 0
BITMAP
FF80
0080
0080
0080
0080
0080
7F80
0080
0080
0080
0080
0080
7F80
ENDCHAR
STARTCHAR 00B4
ENCODING 8741
SWIDTH 2000 0
DWIDTH 20 0
BBX 2 3 8 12
BITMAP
40
80
80
ENDCHAR
STARTCHAR FF5E
ENCODING 8742
SWIDTH 2000 0
DWIDTH 20 0
BBX 10 3 5 12
BITMAP
7040
DCC0
8780
ENDCHAR
STARTCHAR 02C7
ENCODING 8743
SWIDTH 2000 0
DWIDTH 20 0
BBX 6 3 7 12
BITMAP
84
D8
70
ENDCHAR
STARTCHAR 02D8
ENCODING 8744
SWIDTH 2000 0
DWIDTH 20 0
BBX 7 4 6 12
BITMAP
80
42
42
3C
ENDCHAR
STARTCHAR 02DD
ENCODING 8745
SWIDTH 2000 0
DWIDTH 20 0
BBX 5 3 7 13
BITMAP
28
58
80
ENDCHAR
STARTCHAR 02DA
ENCODING 8746
SWIDTH 2000 0
DWIDTH 20 0
BBX 4 3 8 12
BITMAP
F0
90
F0
ENDCHAR
STARTCHAR 02D9
ENCODING 8747
SWIDTH 2000 0
DWIDTH 20 0
BBX 1 2 10 13
BITMAP
80
80
ENDCHAR
STARTCHAR 00B8
ENCODING 8748
SWIDTH 2000 0
DWIDTH 20 0
BBX 2 4 9 -3
BITMAP
C0
40
40
80
ENDCHAR
STARTCHAR 02DB
ENCODING 8749
SWIDTH 2000 0
DWIDTH 20 0
BBX 4 4 8 -3
BITMAP
40
40
90
60
ENDCHAR
STARTCHAR 00A1
ENCODING 8750
SWIDTH 2000 0
DWIDTH 20 0
BBX 2 13 9 0
BITMAP
40
40
00
80
80
80
80
80
80
80
80
80
80
ENDCHAR
STARTCHAR 00BF
ENCODING 8751
SWIDTH 2000 0
DWIDTH 20 0
BBX 8 14 6 0
BITMAP
04
04
00
00
08
08
08
38
40
82
83
83
C6
7C
ENDCHAR
STARTCHAR 02D0
ENCODING 8752
SWIDTH 2000 0
DWIDTH 20 0
BBX 2 9 9 2
BITMAP
C0
C0
00
00
00
00
00
C0
C0
ENDCHAR
STARTCHAR 222E
ENCODING 8753
SWIDTH 2000 0
DWIDTH 20 0
BBX 8 15 6 0
BITMAP
06
0B
08
08
18
18
3C
34
34
18
10
10
10
E0
E0
ENDCHAR
STARTCHAR 2211
ENCODING 8754
SWIDTH 2000 0
DWIDTH 20 0
BBX 13 14 3 0
BITMAP
FFF8
C008
6008
3008
1808
0C08
0600
0600
0C00
1808
1008
2008
4008
FFF8
ENDCHAR
STARTCHAR 220F
ENCODING 8755
SWIDTH 2000 0
DWIDTH 20 0
BBX 14 14 3 0
BITMAP
FFFC
2020
2020
2020
2020
2020
2020
2020
2020
2020
2020
2020
2020
2020
ENDCHAR
STARTCHAR 00A4
ENCODING 8756
SWIDTH 2000 0
DWIDTH 20 0
BBX 13 14 3 -1
BITMAP
8008
4F90
3060
2020
4010
4010
4010
4010
4010
2030
3060
4FA0
8010
0008
ENDCHAR
STARTCHAR 2109
ENCODING 8757
SWIDTH 2000 0
DWIDTH 20 0
BBX 15 15 2 0
BITMAP
01FE
F100
9100
9100
6100
0100
01F8
0100
0100
0100
0100
0100
0100
0100
0100
ENDCHAR
STARTCHAR 2030
ENCODING 8758
SWIDTH 2000 0
DWIDTH 20 0
BBX 15 18 2 -2
BITMAP
7810
4820
8420
8440
8480
8480
8500
4A00
7A00
058C
0A52
0A52
1252
2252
2252
4252
818C
8000
ENDCHAR
STARTCHAR 25C1
ENCODING 8759
SWIDTH 2000 0
DWIDTH 20 0
BBX 10 15 5 -1
BITMAP
0040
00C0
0140
0640
0840
3040
4040
8040
6040
3040
0C40
0640
0340
00C0
0040
ENDCHAR
STARTCHAR 25C0
ENCODING 8760
SWIDTH 2000 0
DWIDTH 20 0
BBX 11 15 4 -1
BITMAP
0020
0060
01E0
03E0
07E0
1FE0
3FE0
FFE0
3FE0
1FE0
0FE0
03E0
01E0
0060
0020
ENDCHAR
STARTCHAR 25B7
ENCODING 8761
SWIDTH 2000 0
DWIDTH 20 0
BBX 11 15 5 -1
BITMAP
8000
C000
B000
9800
8400
8300
8080
8060
8180
8300
8400
9800
B000
C000
8000
ENDCHAR
STARTCHAR 25B6
ENCODING 8762
SWIDTH 2000 0
DWIDTH 20 0
BBX 10 13 5 0
BITMAP
C000
E000
F000
FC00
FE00
FF80
FFC0
FF80
FF00
FC00
F800
E000
C000
ENDCHAR
STARTCHAR 2664
ENCODING 8763
SWIDTH 2000 0
DWIDTH 20 0
BBX 12 16 4 -2
BITMAP
0600
0D00
0900
1080
3040
2040
4020
C030
8010
8010
8010
8D10
76E0
0A00
0900
0F00
ENDCHAR
STARTCHAR 2660
ENCODING 8764
SWIDTH 2000 0
DWIDTH 20 0
BBX 12 17 4 -2
BITMAP
0400
0600
0F00
1F00
3F80
3FC0
7FC0
7FE0
FFE0
FFF0
FFF0
FFF0
FFF0
77E0
0600
0E00
0F00
ENDCHAR
STARTCHAR 2661
ENCODING 8765
SWIDTH 2000 0
DWIDTH 20 0
BBX 12 15 4 -1
BITMAP
31C0
4920
8610
8610
8010
8010
8010
4020
4020
2040
2040
1080
0900
0600
0200
ENDCHAR
STARTCHAR 2665
ENCODING 8766
SWIDTH 2000 0
DWIDTH 20 0
BBX 13 17 3 -2
BITMAP
38F0
7DF8
FFF8
FFF8
FFF8
FFF8
FFF8
7FF8
7FF0
3FF0
3FE0
1FE0
1FC0
0F80
0780
0700
0200
ENDCHAR
STARTCHAR 2667
ENCODING 8767
SWIDTH 2000 0
DWIDTH 20 0
BBX 15 17 2 -2
BITMAP
0380
0440
0820
0820
0820
0460
04C0
7AFC
4402
8002
8002
8282
C6C4
7ABC
0280
0280
0780
ENDCHAR
STARTCHAR 2663
ENCODING 8768
SWIDTH 2000 0
DWIDTH 20 0
BBX 15 17 2 -2
BITMAP
0380
07C0
07E0
0FE0
0FE0
07E0
3FD8
7FFC
7FFE
FFFE
FFFE
7FFE
7D7C
39B8
0180
0380
03C0
ENDCHAR
STARTCHAR 2299
ENCODING 8769
SWIDTH 2000 0
DWIDTH 20 0
BBX 14 15 3 -1
BITMAP
0FC0
1030
2710
5FC8
DFE4
BFE4
BFE4
BFE4
BFE4
BFE4
DFEC
5FC8
2310
3030
0FC0
ENDCHAR
STARTCHAR 25C8
ENCODING 8770
SWIDTH 2000 0
DWIDTH 20 0
BBX 16 17 2 -2
BITMAP
0100
0280
0440
09A0
1390
17C8
2FE4
5FF2
BFFB
5FF6
2FE4
17C8
0B90
0920
0440
0280
0100
ENDCHAR
STARTCHAR 25A3
ENCODING 8771
SWIDTH 2000 0
DWIDTH 20 0
BBX 13 15 3 -1
BITMAP
FFF8
8008
8008
8008
9FC8
9FC8
9FC8
9FC8
9FC8
9FC8
9FC8
8008
8008
8008
FFF8
ENDCHAR
STARTCHAR 25D0
ENCODING 8772
SWIDTH 2000 0
DWIDTH 20 0
BBX 14 15 3 -1
BITMAP
0FC0
3E60
7E10
7E08
FE0C
FE04
FE04
FE04
FE04
FE04
FE0C
7E08
7E10
3E60
0FC0
ENDCHAR
STARTCHAR 25D1
ENCODING 8773
SWIDTH 2000 0
DWIDTH 20 0
BBX 14 15 3 -1
BITMAP
0FC0
19F0
21F8
41F8
81FC
81FC
81FC
81FC
81FC
81FC
81FC
41F8
61F8
31F0
0FC0
ENDCHAR
STARTCHAR 2592
ENCODING 8774
SWIDTH 2000 0
DWIDTH 20 0
BBX 13 15 3 -1
BITMAP
FFF8
A948
90A8
8008
A948
90A8
A948
8008
90A8
A948
90A8
8008
A948
8008
FFF8
ENDCHAR
STARTCHAR 25A4
ENCODING 8775
SWIDTH 2000 0
DWIDTH 20 0
BBX 14 15 3 -1
BITMAP
FFFC
8004
8004
FFFC
8004
8004
8004
FFFC
8004
8004
FFFC
8004
8004
8004
FFFC
ENDCHAR
STARTCHAR 25A5
ENCODING 8776
SWIDTH 2000 0
DWIDTH 20 0
BBX 13 15 3 -1
BITMAP
FFF8
9248
9248
9248
9248
9248
9248
9248
9248
9248
9248
9248
9248
9248
FFF8
ENDCHAR
STARTCHAR 25A8
ENCODING 8777
SWIDTH 2000 0
DWIDTH 20 0
BBX 14 15 3 -1
BITMAP
FFFC
820C
8414
8824
9044
A084
C104
820C
8414
8814
8824
9044
A084
C104
FFFC
ENDCHAR
STARTCHAR 25A7
ENCODING 8778
SWIDTH 2000 0
DWIDTH 20 0
BBX 13 15 3 -1
BITMAP
FFF8
8208
C108
A088
9048
8828
8418
C208
A108
A088
9088
8848
8428
8218
FFF8
ENDCHAR
STARTCHAR 25A6
ENCODING 8779
SWIDTH 2000 0
DWIDTH 20 0
BBX 14 15 3 -1
BITMAP
FFFC
9244
9244
FFFC
9244
9244
9244
FFFC
9244
9244
FFFC
9244
9244
9244
FFFC
ENDCHAR
STARTCHAR 25A9
ENCODING 8780
SWIDTH 2000 0
DWIDTH 20 0
BBX 14 15 3 -1
BITMAP
FFFC
C50C
C914
B0A4
9864
A8B4
C51C
820C
C50C
A894
9064
A864
C494
C30C
FFFC
ENDCHAR
STARTCHAR 2668
ENCODING 8781
SWIDTH 2000 0
DWIDTH 20 0
BBX 14 17 3 -2
BITMAP
0100
0100
0940
0A40
0A40
0A40
0A60
0920
0520
0520
2530
4A48
8A44
8A44
C00C
6038
1FE0
ENDCHAR
STARTCHAR 260F
ENCODING 8782
SWIDTH 2000 0
DWIDTH 20 0
BBX 16 12 2 0
BITMAP
1FF8
6BE4
BC72
ABF1
AFEF
5830
3838
2828
4824
4824
47C4
7FFC
ENDCHAR
STARTCHAR 260E
ENCODING 8783
SWIDTH 2000 0
DWIDTH 20 0
BBX 16 12 2 0
BITMAP
1FF8
3FFE
742F
F7EF
F427
0810
1818
1818
381C
381C
3C3C
3FFC
ENDCHAR
STARTCHAR 261C
ENCODING 8784
SWIDTH 2000 0
DWIDTH 20 0
BBX 16 8 2 3
BITMAP
01F0
FE5B
8187
7EC3
0F63
08D3
07CF
0170
ENDCHAR
STARTCHAR 261E
ENCODING 8785
SWIDTH 2000 0
DWIDTH 20 0
BBX 16 8 2 3
BITMAP
0780
DA7F
E181
C37E
C7F0
CB90
E2E0
1F80
ENDCHAR
STARTCHAR 00B6
ENCODING 8786
SWIDTH 2000 0
DWIDTH 20 0
BBX 10 17 4 -2
BITMAP
3C40
4440
8440
8440
8440
8440
4440
3C40
0440
0440
0440
0440
0440
0440
0440
0440
0440
ENDCHAR
STARTCHAR 2020
ENCODING 8787
SWIDTH 2000 0
DWIDTH 20 0
BBX 9 18 5 -2
BITMAP
0800
0800
0800
0800
0800
FF80
0800
0800
0800
0800
0800
0800
0800
0800
0800
0800
0800
0800
ENDCHAR
STARTCHAR 2021
ENCODING 8788
SWIDTH 2000 0
DWIDTH 20 0
BBX 9 18 5 -2
BITMAP
0800
0800
0800
FF80
0800
0800
FF80
FF00
0800
0800
0800
0800
0800
0800
0800
0800
0800
0800
ENDCHAR
STARTCHAR 2195
ENCODING 8789
SWIDTH 2000 0
DWIDTH 20 0
BBX 5 15 7 -1
BITMAP
30
78
20
20
20
20
20
20
20
20
20
A0
68
30
20
ENDCHAR
STARTCHAR 2197
ENCODING 8790
SWIDTH 2000 0
DWIDTH 20 0
BBX 10 12 4 0
BITMAP
01C0
00C0
01C0
0340
0200
0400
0800
1000
2000
6000
C000
8000
ENDCHAR
STARTCHAR 2199
ENCODING 8791
SWIDTH 2000 0
DWIDTH 20 0
BBX 11 12 5 1
BITMAP
0060
00C0
0080
0100
0200
0400
0800
1800
B000
E000
C000
F000
ENDCHAR
STARTCHAR 2196
ENCODING 8792
SWIDTH 2000 0
DWIDTH 20 0
BBX 11 12 5 0
BITMAP
F000
C000
A000
9000
8800
0C00
0600
0300
0180
00C0
0040
0020
ENDCHAR
STARTCHAR 2198
ENCODING 8793
SWIDTH 2000 0
DWIDTH 20 0
BBX 10 12 5 0
BITMAP
8000
C000
6000
3000
1800
0C00
0400
0240
0140
00C0
01C0
0200
ENDCHAR
STARTCHAR 266D
ENCODING 8794
SWIDTH 2000 0
DWIDTH 20 0
BBX 6 13 7 0
BITMAP
80
80
80
80
B8
C4
84
84
84
8C
98
B0
C0
ENDCHAR
STARTCHAR 2669
ENCODING 8795
SWIDTH 2000 0
DWIDTH 20 0
BBX 4 16 7 -1
BITMAP
10
10
10
10
10
10
10
10
10
10
10
10
10
70
E0
C0
ENDCHAR
STARTCHAR 266A
ENCODING 8796
SWIDTH 2000 0
DWIDTH 20 0
BBX 8 15 5 -1
BITMAP
10
18
1C
16
13
11
11
11
12
10
10
10
70
E0
C0
ENDCHAR
STARTCHAR 266C
ENCODING 8797
SWIDTH 2000 0
DWIDTH 20 0
BBX 12 14 4 -1
BITMAP
1FF0
1010
1010
1FF0
1010
1010
1010
1010
1010
1010
1010
7070
E0E0
C0C0
ENDCHAR
STARTCHAR 327F
ENCODING 8798
SWIDTH 2000 0
DWIDTH 20 0
BBX 14 15 3 -1
BITMAP
0FC0
3060
6010
4888
C988
8908
8A00
ED3C
0904
4884
4884
4848
2018
1830
07C0
ENDCHAR
STARTCHAR 321C
ENCODING 8799
SWIDTH 2000 0
DWIDTH 20 0
BBX 16 16 2 -1
BITMAP
1008
3004
3FF4
4182
43C2
8661
9839
8001
8001
BFF9
8101
8101
4102
4102
2104
1108
ENDCHAR
STARTCHAR 2116
ENCODING 8800
SWIDTH 2000 0
DWIDTH 20 0
BBX 16 14 2 0
BITMAP
8400
C400
C400
C400
A438
A46C
A4C6
9482
9482
9482
8C82
8CC6
8465
8439
ENDCHAR
STARTCHAR 33C7
ENCODING 8801
SWIDTH 2000 0
DWIDTH 20 0
BBX 18 14 1 0
BITMAP
3C0000
620000
410000
810000
801C00
802200
806300
804100
804100
814100
814100
416300
622200
3C1CC0
ENDCHAR
STARTCHAR 2122
ENCODING 8802
SWIDTH 2000 0
DWIDTH 20 0
BBX 15 14 2 0
BITMAP
FE82
10C6
10C6
10C6
10C6
10C6
10CA
10AA
10AA
10AA
10AA
10AA
1092
1092
ENDCHAR
STARTCHAR 33C2
ENCODING 8803
SWIDTH 2000 0
DWIDTH 20 0
BBX 17 10 2 0
BITMAP
308000
58FE00
889200
889200
789200
C89200
889200
889200
989200
6E9380
ENDCHAR
STARTCHAR 33D8
ENCODING 8804
SWIDTH 2000 0
DWIDTH 20 0
BBX 16 13 2 -3
BITMAP
B888
C8FC
8494
8494
8494
8494
8494
8494
C894
B295
8000
8000
8000
ENDCHAR
STARTCHAR 2121
ENCODING 8805
SWIDTH 2000 0
DWIDTH 20 0
BBX 14 14 2 0
BITMAP
FE04
1004
1004
1004
11C4
1364
1214
1414
17F4
1404
1614
1214
1334
11E4
ENDCHAR
STARTCHAR FF01
ENCODING 8993
SWIDTH 2000 0
DWIDTH 20 0
BBX 2 16 9 -1
BITMAP
40
40
40
40
40
40
40
40
40
40
40
40
40
00
80
80
ENDCHAR
STARTCHAR FF02
ENCODING 8994
SWIDTH 2000 0
DWIDTH 20 0
BBX 8 6 6 9
BITMAP
13
36
24
48
90
90
ENDCHAR
STARTCHAR FF03
ENCODING 8995
SWIDTH 2000 0
DWIDTH 20 0
BBX 13 15 3 -1
BITMAP
0420
0420
0420
0C20
7FF8
0840
0840
0840
0840
1040
FFF0
1080
1080
1080
3080
ENDCHAR
STARTCHAR FF04
ENCODING 8996
SWIDTH 2000 0
DWIDTH 20 0
BBX 12 16 4 -1
BITMAP
0900
1F80
7960
8930
8910
8900
6900
1F00
09E0
0930
0910
8910
C910
6960
1F80
0900
ENDCHAR
STARTCHAR FF05
ENCODING 8997
SWIDTH 2000 0
DWIDTH 20 0
BBX 16 15 2 -1
BITMAP
7E02
C304
8108
8110
8120
4240
3C80
013C
0242
0481
0881
1081
2081
4066
0018
ENDCHAR
STARTCHAR FF06
ENCODING 8998
SWIDTH 2000 0
DWIDTH 20 0
BBX 10 14 5 0
BITMAP
1E00
1300
2100
2100
1300
1600
1800
6400
C640
8240
81C0
8180
43C0
3C40
ENDCHAR
STARTCHAR FF07
ENCODING 8999
SWIDTH 2000 0
DWIDTH 20 0
BBX 2 5 9 11
BITMAP
C0
C0
40
40
80
ENDCHAR
STARTCHAR FF08
ENCODING 9000
SWIDTH 2000 0
DWIDTH 20 0
BBX 5 17 7 -2
BITMAP
18
30
20
40
40
80
80
80
80
80
80
80
40
40
20
30
18
ENDCHAR
STARTCHAR FF09
ENCODING 9001
SWIDTH 2000 0
DWIDTH 20 0
BBX 5 17 7 -2
BITMAP
C0
60
20
10
10
08
08
08
08
08
08
08
10
10
20
60
C0
ENDCHAR
STARTCHAR FF0A
ENCODING 9002
SWIDTH 2000 0
DWIDTH 20 0
BBX 11 10 4 2
BITMAP
1100
3980
1900
0F00
4620
FFE0
4620
0900
1980
1980
ENDCHAR
STARTCHAR FF0B
ENCODING 9003
SWIDTH 2000 0
DWIDTH 20 0
BBX 15 15 2 -1
BITMAP
0100
0100
0100
0100
0100
0100
0100
FFFE
0100
0100
0100
0100
0100
0100
0100
ENDCHAR
STARTCHAR FF0C
ENCODING 9004
SWIDTH 2000 0
DWIDTH 20 0
BBX 3 6 8 -3
BITMAP
60
E0
60
20
40
80
ENDCHAR
STARTCHAR FF0D
ENCODING 9005
SWIDTH 2000 0
DWIDTH 20 0
BBX 14 1 4 6
BITMAP
FFFC
ENDCHAR
STARTCHAR FF0E
ENCODING 9006
SWIDTH 2000 0
DWIDTH 20 0
BBX 3 2 9 -1
BITMAP
E0
E0
ENDCHAR
STARTCHAR FF0F
ENCODING 9007
SWIDTH 2000 0
DWIDTH 20 0
BBX 8 17 6 -2
BITMAP
01
03
02
02
04
04
0C
08
08
10
10
20
20
20
40
40
80
ENDCHAR
STARTCHAR FF10
ENCODING 9008
SWIDTH 2000 0
DWIDTH 20 0
BBX 10 14 5 0
BITMAP
1E00
2100
4080
C0C0
8040
8040
8040
8040
8040
8040
C080
4080
2100
1E00
ENDCHAR
STARTCHAR FF11
ENCODING 9009
SWIDTH 2000 0
DWIDTH 20 0
BBX 5 14 6 0
BITMAP
18
18
28
48
88
08
08
08
08
08
08
08
08
08
ENDCHAR
STARTCHAR FF12
ENCODING 9010
SWIDTH 2000 0
DWIDTH 20 0
BBX 9 14 5 0
BITMAP
3E00
4180
8080
8080
0080
0180
0300
0C00
1800
7000
4000
8000
8000
FF80
ENDCHAR
STARTCHAR FF13
ENCODING 9011
SWIDTH 2000 0
DWIDTH 20 0
BBX 10 14 5 0
BITMAP
3E00
4180
C080
0080
0080
0100
1E00
0180
0080
00C0
80C0
8080
6180
3E00
ENDCHAR
STARTCHAR FF14
ENCODING 9012
SWIDTH 2000 0
DWIDTH 20 0
BBX 11 14 4 0
BITMAP
0180
0380
0280
0480
0880
1880
3080
2080
4080
C080
FFE0
0080
0080
0080
ENDCHAR
STARTCHAR FF15
ENCODING 9013
SWIDTH 2000 0
DWIDTH 20 0
BBX 9 14 6 0
BITMAP
FF80
8000
8000
8000
8000
BE00
C100
0080
0080
0080
8080
8180
4300
3E00
ENDCHAR
STARTCHAR FF16
ENCODING 9014
SWIDTH 2000 0
DWIDTH 20 0
BBX 10 14 5 0
BITMAP
1F00
3180
40C0
4000
8000
9F00
E180
C0C0
8040
8040
8040
40C0
6180
1F00
ENDCHAR
STARTCHAR FF17
ENCODING 9015
SWIDTH 2000 0
DWIDTH 20 0
BBX 9 14 6 0
BITMAP
FF80
0080
0100
0300
0200
0600
0400
0800
0800
1000
3000
2000
6000
4000
ENDCHAR
STARTCHAR FF18
ENCODING 9016
SWIDTH 2000 0
DWIDTH 20 0
BBX 10 14 5 0
BITMAP
1F00
6180
4080
40C0
4080
6180
3F00
6180
C0C0
8040
8040
C0C0
6180
3E00
ENDCHAR
STARTCHAR FF19
ENCODING 9017
SWIDTH 2000 0
DWIDTH 20 0
BBX 10 14 5 0
BITMAP
3E00
6180
C080
8080
80C0
80C0
80C0
4340
3EC0
00C0
8080
C080
6100
3E00
ENDCHAR
STARTCHAR FF1A
ENCODING 9018
SWIDTH 2000 0
DWIDTH 20 0
BBX 1 11 9 1
BITMAP
80
80
00
00
00
00
00
00
00
80
80
ENDCHAR
STARTCHAR FF1B
ENCODING 9019
SWIDTH 2000 0
DWIDTH 20 0
BBX 3 14 9 -2
BITMAP
80
80
00
00
00
00
00
00
00
C0
E0
40
40
80
ENDCHAR
STARTCHAR FF1C
ENCODING 9020
SWIDTH 2000 0
DWIDTH 20 0
BBX 14 15 3 -1
BITMAP
0018
0070
00C0
0300
0C00
3000
C000
8000
E000
3800
0C00
0300
00C0
0030
000C
ENDCHAR
STARTCHAR FF1D
ENCODING 9021
SWIDTH 2000 0
DWIDTH 20 0
BBX 14 5 3 4
BITMAP
FFFC
0000
0000
0000
FFFC
ENDCHAR
STARTCHAR FF1E
ENCODING 9022
SWIDTH 2000 0
DWIDTH 20 0
BBX 14 16 3 -1
BITMAP
8000
6000
1800
0600
0180
00E0
0038
000C
000C
0038
0060
0180
0600
1800
6000
8000
ENDCHAR
STARTCHAR FF1F
ENCODING 9023
SWIDTH 2000 0
DWIDTH 20 0
BBX 12 17 4 -2
BITMAP
1FC0
3060
4010
C010
C010
4030
3060
11C0
0600
0400
0400
0400
0400
0000
0000
0000
0200
ENDCHAR
STARTCHAR FF20
ENCODING 9024
SWIDTH 2000 0
DWIDTH 20 0
BBX 16 15 2 -1
BITMAP
0FF0
3008
6004
4002
C7E2
8C22
8821
8821
8823
8822
C472
479C
2000
1800
0FF0
ENDCHAR
STARTCHAR FF21
ENCODING 9025
SWIDTH 2000 0
DWIDTH 20 0
BBX 12 15 4 0
BITMAP
0600
0600
0F00
0900
0900
1980
1080
3080
2040
2040
6060
7FE0
4020
8010
8010
ENDCHAR
STARTCHAR FF22
ENCODING 9026
SWIDTH 2000 0
DWIDTH 20 0
BBX 12 15 5 0
BITMAP
FF80
8040
8020
8020
8020
8020
8040
FFC0
8060
8030
8030
8030
8020
8060
FFC0
ENDCHAR
STARTCHAR FF23
ENCODING 9027
SWIDTH 2000 0
DWIDTH 20 0
BBX 12 15 4 0
BITMAP
0F80
30C0
6020
4030
C010
8000
8000
8000
8000
8000
8010
4030
6020
3040
0F80
ENDCHAR
STARTCHAR FF24
ENCODING 9028
SWIDTH 2000 0
DWIDTH 20 0
BBX 12 15 5 0
BITMAP
FF00
80C0
8020
8020
8010
8010
8010
8010
8010
8010
8010
8020
8020
80C0
FF00
ENDCHAR
STARTCHAR FF25
ENCODING 9029
SWIDTH 2000 0
DWIDTH 20 0
BBX 10 14 5 0
BITMAP
FFC0
8000
8000
8000
8000
8000
FFC0
8000
8000
8000
8000
8000
8000
FFC0
ENDCHAR
STARTCHAR FF26
ENCODING 9030
SWIDTH 2000 0
DWIDTH 20 0
BBX 10 14 6 0
BITMAP
FFC0
8000
8000
8000
8000
8000
FFC0
8000
8000
8000
8000
8000
8000
8000
ENDCHAR
STARTCHAR FF27
ENCODING 9031
SWIDTH 2000 0
DWIDTH 20 0
BBX 12 16 4 -1
BITMAP
1F80
30C0
6020
4020
C010
8000
8000
83F0
8010
8010
8010
C010
4020
2060
30C0
0F00
ENDCHAR
STARTCHAR FF28
ENCODING 9032
SWIDTH 2000 0
DWIDTH 20 0
BBX 10 15 5 0
BITMAP
8040
8040
8040
8040
8040
8040
8040
FFC0
8040
8040
8040
8040
8040
8040
8040
ENDCHAR
STARTCHAR FF29
ENCODING 9033
SWIDTH 2000 0
DWIDTH 20 0
BBX 1 15 10 0
BITMAP
80
80
80
80
80
80
80
80
80
80
80
80
80
80
80
ENDCHAR
STARTCHAR FF2A
ENCODING 9034
SWIDTH 2000 0
DWIDTH 20 0
BBX 10 15 4 0
BITMAP
0040
0040
0040
0040
0040
0040
0040
0040
0040
8040
8040
8040
4080
6180
1E00
ENDCHAR
STARTCHAR FF2B
ENCODING 9035
SWIDTH 2000 0
DWIDTH 20 0
BBX 10 15 6 0
BITMAP
8040
8080
8300
8600
8C00
9800
A000
E000
B000
9800
8C00
8600
8300
8180
8040
ENDCHAR
STARTCHAR FF2C
ENCODING 9036
SWIDTH 2000 0
DWIDTH 20 0
BBX 11 15 6 0
BITMAP
8000
8000
8000
8000
8000
8000
8000
8000
8000
8000
8000
8000
8000
8000
FFE0
ENDCHAR
STARTCHAR FF2D
ENCODING 9037
SWIDTH 2000 0
DWIDTH 20 0
BBX 14 15 3 0
BITMAP
800C
C00C
C01C
E014
A014
B024
9024
9064
8844
88C4
8484
8484
8704
8304
8204
ENDCHAR
STARTCHAR FF2E
ENCODING 9038
SWIDTH 2000 0
DWIDTH 20 0
BBX 10 15 5 0
BITMAP
C040
C040
A040
A040
9040
9840
8840
8C40
8440
8640
8240
8140
8140
80C0
80C0
ENDCHAR
STARTCHAR FF2F
ENCODING 9039
SWIDTH 2000 0
DWIDTH 20 0
BBX 12 16 4 -1
BITMAP
0F00
30C0
6060
4020
8030
8010
8010
8010
8010
8010
8010
C020
4020
6060
30C0
0F00
ENDCHAR
STARTCHAR FF30
ENCODING 9040
SWIDTH 2000 0
DWIDTH 20 0
BBX 12 15 5 0
BITMAP
FFC0
8020
8010
8010
8010
8010
8030
8020
FFC0
8000
8000
8000
8000
8000
8000
ENDCHAR
STARTCHAR FF31
ENCODING 9041
SWIDTH 2000 0
DWIDTH 20 0
BBX 13 18 3 -3
BITMAP
0F80
3060
4030
4010
8008
8008
8008
8008
8008
8008
8008
4010
6030
3060
1F80
3180
4060
0038
ENDCHAR
STARTCHAR FF32
ENCODING 9042
SWIDTH 2000 0
DWIDTH 20 0
BBX 12 14 4 0
BITMAP
FFC0
8020
8010
8010
8010
8020
FFC0
8040
8060
8020
8020
8020
8030
8010
ENDCHAR
STARTCHAR FF33
ENCODING 9043
SWIDTH 2000 0
DWIDTH 20 0
BBX 11 16 4 -1
BITMAP
1F80
20C0
4060
4020
4000
6000
3000
0F00
01C0
0060
0020
8020
8020
4020
70C0
1F80
ENDCHAR
STARTCHAR FF34
ENCODING 9044
SWIDTH 2000 0
DWIDTH 20 0
BBX 11 15 5 0
BITMAP
FFE0
0400
0400
0400
0400
0400
0400
0400
0400
0400
0400
0400
0400
0400
0400
ENDCHAR
STARTCHAR FF35
ENCODING 9045
SWIDTH 2000 0
DWIDTH 20 0
BBX 10 15 5 0
BITMAP
8040
8040
8040
8040
8040
8040
8040
8040
8040
8040
8040
8040
4080
6180
1E00
ENDCHAR
STARTCHAR FF36
ENCODING 9046
SWIDTH 2000 0
DWIDTH 20 0
BBX 12 15 4 0
BITMAP
8030
4020
4020
4060
2040
2040
20C0
1080
1080
1080
0900
0900
0900
0600
0600
ENDCHAR
STARTCHAR FF37
ENCODING 9047
SWIDTH 2000 0
DWIDTH 20 0
BBX 16 15 2 -1
BITMAP
8181
8181
8181
4182
4342
4242
4242
2246
2224
2424
2424
1424
1418
1818
1818
ENDCHAR
STARTCHAR FF38
ENCODING 9048
SWIDTH 2000 0
DWIDTH 20 0
BBX 12 15 4 0
BITMAP
4020
6060
2040
1080
0980
0F00
0600
0600
0F00
0980
1080
3040
2060
4020
8010
ENDCHAR
STARTCHAR FF39
ENCODING 9049
SWIDTH 2000 0
DWIDTH 20 0
BBX 11 15 4 0
BITMAP
8020
C060
4040
2080
3180
1100
0A00
0E00
0400
0400
0400
0400
0400
0400
0400
ENDCHAR
STARTCHAR FF3A
ENCODING 9050
SWIDTH 2000 0
DWIDTH 20 0
BBX 11 14 4 0
BITMAP
7FE0
0060
00C0
0080
0100
0300
0600
0C00
0800
1000
2000
6000
C000
FFE0
ENDCHAR
STARTCHAR FF3B
ENCODING 9051
SWIDTH 2000 0
DWIDTH 20 0
BBX 6 18 7 -3
BITMAP
FC
80
80
80
80
80
80
80
80
80
80
80
80
80
80
80
FC
60
ENDCHAR
STARTCHAR FFE6
ENCODING 9052
SWIDTH 2000 0
DWIDTH 20 0
BBX 17 15 1 -1
BITMAP
20C100
20C100
20C100
21A100
212100
FFFF80
112200
112200
113200
7FFF80
121200
0A1400
0A1400
0E1C00
040800
ENDCHAR
STARTCHAR FF3D
ENCODING 9053
SWIDTH 2000 0
DWIDTH 20 0
BBX 6 17 6 -2
BITMAP
FC
04
04
04
04
04
04
04
04
04
04
04
04
04
04
04
FC
ENDCHAR
STARTCHAR FF3E
ENCODING 9054
SWIDTH 2000 0
DWIDTH 20 0
BBX 6 3 7 12
BITMAP
78
CC
84
ENDCHAR
STARTCHAR FF3F
ENCODING 9055
SWIDTH 2000 0
DWIDTH 20 0
BBX 17 1 2 -3
BITMAP
FFFF80
ENDCHAR
STARTCHAR FF40
ENCODING 9056
SWIDTH 2000 0
DWIDTH 20 0
BBX 2 4 9 12
BITMAP
80
80
C0
40
ENDCHAR
STARTCHAR FF41
ENCODING 9057
SWIDTH 2000 0
DWIDTH 20 0
BBX 8 10 6 0
BITMAP
7E
C3
81
03
7D
81
81
81
87
7D
ENDCHAR
STARTCHAR FF42
ENCODING 9058
SWIDTH 2000 0
DWIDTH 20 0
BBX 9 13 6 0
BITMAP
8000
8000
8000
BC00
E300
8100
8080
8080
8080
8080
C180
E300
BE00
ENDCHAR
STARTCHAR FF43
ENCODING 9059
SWIDTH 2000 0
DWIDTH 20 0
BBX 9 10 6 0
BITMAP
3E00
6300
4100
8000
8000
8000
8080
4180
6300
3E00
ENDCHAR
STARTCHAR FF44
ENCODING 9060
SWIDTH 2000 0
DWIDTH 20 0
BBX 8 13 6 0
BITMAP
01
01
01
3D
43
C1
81
81
81
81
C1
43
3D
ENDCHAR
STARTCHAR FF45
ENCODING 9061
SWIDTH 2000 0
DWIDTH 20 0
BBX 8 10 6 0
BITMAP
3C
42
81
81
FF
80
80
81
43
3C
ENDCHAR
STARTCHAR FF46
ENCODING 9062
SWIDTH 2000 0
DWIDTH 20 0
BBX 8 14 6 0
BITMAP
04
0B
10
10
10
FF
10
10
10
10
10
10
10
10
ENDCHAR
STARTCHAR FF47
ENCODING 9063
SWIDTH 2000 0
DWIDTH 20 0
BBX 8 13 6 -3
BITMAP
3D
47
C3
81
81
81
81
C1
43
3D
01
C2
7C
ENDCHAR
STARTCHAR FF48
ENCODING 9064
SWIDTH 2000 0
DWIDTH 20 0
BBX 8 13 6 0
BITMAP
80
80
80
BC
C2
81
81
81
81
81
81
81
81
ENDCHAR
STARTCHAR FF49
ENCODING 9065
SWIDTH 2000 0
DWIDTH 20 0
BBX 1 14 9 0
BITMAP
80
00
00
80
80
80
80
80
80
80
80
80
80
80
ENDCHAR
STARTCHAR FF4A
ENCODING 9066
SWIDTH 2000 0
DWIDTH 20 0
BBX 6 17 5 -3
BITMAP
04
00
00
04
04
04
04
04
04
04
04
04
04
04
04
D8
70
ENDCHAR
STARTCHAR FF4B
ENCODING 9067
SWIDTH 2000 0
DWIDTH 20 0
BBX 7 13 7 0
BITMAP
80
80
80
8C
98
B0
E0
E0
B0
98
8C
84
82
ENDCHAR
STARTCHAR FF4C
ENCODING 9068
SWIDTH 2000 0
DWIDTH 20 0
BBX 1 13 10 0
BITMAP
80
80
80
80
80
80
80
80
80
80
80
80
80
ENDCHAR
STARTCHAR FF4D
ENCODING 9069
SWIDTH 2000 0
DWIDTH 20 0
BBX 12 11 4 0
BITMAP
B8E0
C730
8210
8210
8210
8210
8210
8210
8210
8210
8210
ENDCHAR
STARTCHAR FF4E
ENCODING 9070
SWIDTH 2000 0
DWIDTH 20 0
BBX 7 11 6 0
BITMAP
98
E4
82
82
82
82
82
82
82
82
82
ENDCHAR
STARTCHAR FF4F
ENCODING 9071
SWIDTH 2000 0
DWIDTH 20 0
BBX 8 11 6 0
BITMAP
3C
42
42
81
81
81
81
81
42
42
3C
ENDCHAR
STARTCHAR FF50
ENCODING 9072
SWIDTH 2000 0
DWIDTH 20 0
BBX 8 14 6 -3
BITMAP
80
BC
C2
82
81
81
81
81
81
C2
FC
80
80
80
ENDCHAR
STARTCHAR FF51
ENCODING 9073
SWIDTH 2000 0
DWIDTH 20 0
BBX 8 13 6 -3
BITMAP
3D
43
81
81
81
81
81
C1
67
3D
01
01
01
ENDCHAR
STARTCHAR FF52
ENCODING 9074
SWIDTH 2000 0
DWIDTH 20 0
BBX 7 11 8 0
BITMAP
B8
EC
86
80
80
80
80
80
80
80
80
ENDCHAR
STARTCHAR FF53
ENCODING 9075
SWIDTH 2000 0
DWIDTH 20 0
BBX 8 11 6 0
BITMAP
3C
66
C2
C0
60
3C
02
81
81
43
3C
ENDCHAR
STARTCHAR FF54
ENCODING 9076
SWIDTH 2000 0
DWIDTH 20 0
BBX 7 13 6 0
BITMAP
20
20
20
FE
20
20
20
20
20
20
22
32
1C
ENDCHAR
STARTCHAR FF55
ENCODING 9077
SWIDTH 2000 0
DWIDTH 20 0
BBX 8 11 6 0
BITMAP
81
81
81
81
81
81
81
81
81
43
3D
ENDCHAR
STARTCHAR FF56
ENCODING 9078
SWIDTH 2000 0
DWIDTH 20 0
BBX 8 10 6 0
BITMAP
81
81
C2
42
42
24
24
38
18
18
ENDCHAR
STARTCHAR FF57
ENCODING 9079
SWIDTH 2000 0
DWIDTH 20 0
BBX 14 11 3 0
BITMAP
8004
8304
4308
4508
4488
2490
2490
2890
2870
1860
1060
ENDCHAR
STARTCHAR FF58
ENCODING 9080
SWIDTH 2000 0
DWIDTH 20 0
BBX 9 11 6 0
BITMAP
8100
4200
2600
3C00
1800
1800
2400
6200
4300
8100
0080
ENDCHAR
STARTCHAR FF59
ENCODING 9081
SWIDTH 2000 0
DWIDTH 20 0
BBX 9 14 5 -3
BITMAP
4080
4080
4100
2100
2300
1200
1200
1E00
0C00
0C00
0800
0800
D000
6000
ENDCHAR
STARTCHAR FF5A
ENCODING 9082
SWIDTH 2000 0
DWIDTH 20 0
BBX 8 11 6 0
BITMAP
FF
02
06
0C
08
10
30
60
40
80
FF
ENDCHAR
STARTCHAR FF5B
ENCODING 9083
SWIDTH 2000 0
DWIDTH 20 0
BBX 5 17 8 -2
BITMAP
18
20
20
20
20
20
20
20
C0
20
20
20
20
20
20
20
18
ENDCHAR
STARTCHAR FF5C
ENCODING 9084
SWIDTH 2000 0
DWIDTH 20 0
BBX 1 17 9 -2
BITMAP
80
80
80
80
80
80
80
80
80
80
80
80
80
80
80
80
80
ENDCHAR
STARTCHAR FF5D
ENCODING 9085
SWIDTH 2000 0
DWIDTH 20 0
BBX 5 17 7 -2
BITMAP
C0
20
20
20
20
20
20
20
18
20
20
20
20
20
20
20
C0
ENDCHAR
STARTCHAR FFE3
ENCODING 9086
SWIDTH 2000 0
DWIDTH 20 0
BBX 11 1 5 6
BITMAP
FFE0
ENDCHAR
STARTCHAR 3131
ENCODING 9249
SWIDTH 2000 0
DWIDTH 20 0
BBX 11 10 4 0
BITMAP
FFE0
0020
0020
0020
0020
0020
0020
0020
0020
0020
ENDCHAR
STARTCHAR 3132
ENCODING 9250
SWIDTH 2000 0
DWIDTH 20 0
BBX 13 10 3 0
BITMAP
FDF8
0408
0408
0408
0408
0408
0408
0408
0408
0408
ENDCHAR
STARTCHAR 3133
ENCODING 9251
SWIDTH 2000 0
DWIDTH 20 0
BBX 14 10 3 0
BITMAP
FC40
0440
0440
0440
0440
04A0
04A0
0490
0518
060C
ENDCHAR
STARTCHAR 3134
ENCODING 9252
SWIDTH 2000 0
DWIDTH 20 0
BBX 12 10 5 0
BITMAP
8000
8000
8000
8000
8000
8000
8000
8000
8000
FFF0
ENDCHAR
STARTCHAR 3135
ENCODING 9253
SWIDTH 2000 0
DWIDTH 20 0
BBX 15 10 3 0
BITMAP
81FC
8020
8020
8020
8020
8050
8050
8088
998C
F206
ENDCHAR
STARTCHAR 3136
ENCODING 9254
SWIDTH 2000 0
DWIDTH 20 0
BBX 14 11 3 -1
BITMAP
80F0
8000
83FC
8000
8000
80F8
818C
8104
9904
F18C
00F8
ENDCHAR
STARTCHAR 3137
ENCODING 9255
SWIDTH 2000 0
DWIDTH 20 0
BBX 11 10 5 0
BITMAP
FFE0
8000
8000
8000
8000
8000
8000
8000
8000
FFE0
ENDCHAR
STARTCHAR 3138
ENCODING 9256
SWIDTH 2000 0
DWIDTH 20 0
BBX 14 10 3 0
BITMAP
FCFC
8080
8080
8080
8080
8080
8080
8080
9C80
F0FC
ENDCHAR
STARTCHAR 3139
ENCODING 9257
SWIDTH 2000 0
DWIDTH 20 0
BBX 12 10 4 0
BITMAP
FFE0
0020
0020
0020
7FE0
4000
4000
4000
4000
7FF0
ENDCHAR
STARTCHAR 313A
ENCODING 9258
SWIDTH 2000 0
DWIDTH 20 0
BBX 13 10 3 0
BITMAP
FDF8
0408
0408
0408
FC08
8008
8008
8008
8608
F808
ENDCHAR
STARTCHAR 313B
ENCODING 9259
SWIDTH 2000 0
DWIDTH 20 0
BBX 13 10 3 0
BITMAP
FCF8
0488
0488
0488
FC88
8088
8088
8088
8688
F8F8
ENDCHAR
STARTCHAR 313C
ENCODING 9260
SWIDTH 2000 0
DWIDTH 20 0
BBX 13 10 3 0
BITMAP
FC88
0488
0488
0488
FCF8
8088
8088
8088
8488
F8F8
ENDCHAR
STARTCHAR 313D
ENCODING 9261
SWIDTH 2000 0
DWIDTH 20 0
BBX 16 10 2 0
BITMAP
FC10
0410
0410
0410
7C10
4028
4028
4024
4246
7C83
ENDCHAR
STARTCHAR 313E
ENCODING 9262
SWIDTH 2000 0
DWIDTH 20 0
BBX 14 10 3 0
BITMAP
FCFC
0480
0480
0480
FCFC
8080
8080
8080
8480
F8FC
ENDCHAR
STARTCHAR 313F
ENCODING 9263
SWIDTH 2000 0
DWIDTH 20 0
BBX 16 10 2 0
BITMAP
FCFE
0400
0404
0444
7C44
4044
4044
4048
4668
79FF
ENDCHAR
STARTCHAR 3140
ENCODING 9264
SWIDTH 2000 0
DWIDTH 20 0
BBX 15 11 2 -1
BITMAP
FC78
0400
05FE
0400
7C00
407C
40C6
4082
4282
7CC6
007C
ENDCHAR
STARTCHAR 3141
ENCODING 9265
SWIDTH 2000 0
DWIDTH 20 0
BBX 10 10 5 0
BITMAP
FFC0
8040
8040
8040
8040
8040
8040
8040
8040
FFC0
ENDCHAR
STARTCHAR 3142
ENCODING 9266
SWIDTH 2000 0
DWIDTH 20 0
BBX 10 10 5 0
BITMAP
8040
8040
8040
8040
FFC0
8040
8040
8040
8040
FFC0
ENDCHAR
STARTCHAR 3143
ENCODING 9267
SWIDTH 2000 0
DWIDTH 20 0
BBX 13 10 3 0
BITMAP
8488
8488
8488
8488
FCF8
8488
8488
8488
8488
FCF8
ENDCHAR
STARTCHAR 3144
ENCODING 9268
SWIDTH 2000 0
DWIDTH 20 0
BBX 15 10 3 0
BITMAP
8420
8420
8420
8420
FC20
8450
8450
8448
848C
FD06
ENDCHAR
STARTCHAR 3145
ENCODING 9269
SWIDTH 2000 0
DWIDTH 20 0
BBX 13 10 3 0
BITMAP
0200
0200
0200
0200
0500
0500
0880
18C0
3030
C018
ENDCHAR
STARTCHAR 3146
ENCODING 9270
SWIDTH 2000 0
DWIDTH 20 0
BBX 15 11 2 -1
BITMAP
0810
0810
0810
0810
0810
1418
1428
3628
6244
40C2
8080
ENDCHAR
STARTCHAR 3147
ENCODING 9271
SWIDTH 2000 0
DWIDTH 20 0
BBX 12 10 4 0
BITMAP
1F80
6060
4020
8010
8010
8010
8010
4020
6060
1F80
ENDCHAR
STARTCHAR 3148
ENCODING 9272
SWIDTH 2000 0
DWIDTH 20 0
BBX 12 10 4 0
BITMAP
FFF0
0400
0600
0600
0A00
0900
1180
30C0
6060
8030
ENDCHAR
STARTCHAR 3149
ENCODING 9273
SWIDTH 2000 0
DWIDTH 20 0
BBX 14 10 3 0
BITMAP
FFFC
1020
1020
1020
2830
2850
2450
4688
C184
8104
ENDCHAR
STARTCHAR 314A
ENCODING 9274
SWIDTH 2000 0
DWIDTH 20 0
BBX 13 10 3 0
BITMAP
1FC0
0000
0000
7FF8
0200
0300
0500
0C80
1860
E038
ENDCHAR
STARTCHAR 314B
ENCODING 9275
SWIDTH 2000 0
DWIDTH 20 0
BBX 12 10 3 0
BITMAP
FFF0
0010
0010
0010
0010
FFD0
0010
0010
0020
0020
ENDCHAR
STARTCHAR 314C
ENCODING 9276
SWIDTH 2000 0
DWIDTH 20 0
BBX 11 10 5 0
BITMAP
FFE0
8000
8000
8000
FFE0
8000
8000
8000
8000
FFE0
ENDCHAR
STARTCHAR 314D
ENCODING 9277
SWIDTH 2000 0
DWIDTH 20 0
BBX 13 10 3 0
BITMAP
7FF8
0000
0000
1040
1040
1040
0840
0840
0840
FFF8
ENDCHAR
STARTCHAR 314E
ENCODING 9278
SWIDTH 2000 0
DWIDTH 20 0
BBX 13 12 3 -1
BITMAP
1FC0
0000
0000
FFF8
0000
0F80
1040
2020
2020
2020
1040
0F80
ENDCHAR
STARTCHAR 314F
ENCODING 9279
SWIDTH 2000 0
DWIDTH 20 0
BBX 6 18 8 -4
BITMAP
80
80
80
80
80
80
80
80
FC
80
80
80
80
80
80
80
80
80
ENDCHAR
STARTCHAR 3150
ENCODING 9280
SWIDTH 2000 0
DWIDTH 20 0
BBX 5 18 7 -4
BITMAP
08
88
88
88
88
88
88
88
F8
88
88
88
88
88
88
88
08
08
ENDCHAR
STARTCHAR 3151
ENCODING 9281
SWIDTH 2000 0
DWIDTH 20 0
BBX 5 18 8 -4
BITMAP
80
80
80
80
80
80
F8
80
80
80
80
F8
80
80
80
80
80
80
ENDCHAR
STARTCHAR 3152
ENCODING 9282
SWIDTH 2000 0
DWIDTH 20 0
BBX 6 17 7 -3
BITMAP
04
84
84
84
84
84
FC
84
84
84
FC
84
84
84
84
84
84
ENDCHAR
STARTCHAR 3153
ENCODING 9283
SWIDTH 2000 0
DWIDTH 20 0
BBX 7 18 5 -4
BITMAP
02
02
02
02
02
02
02
02
FE
02
02
02
02
02
02
02
02
02
ENDCHAR
STARTCHAR 3154
ENCODING 9284
SWIDTH 2000 0
DWIDTH 20 0
BBX 9 18 4 -4
BITMAP
0080
0080
0480
0480
0480
0480
0480
0480
FC80
0480
0480
0480
0480
0480
0480
0480
0480
0080
ENDCHAR
STARTCHAR 3155
ENCODING 9285
SWIDTH 2000 0
DWIDTH 20 0
BBX 7 18 5 -4
BITMAP
02
02
02
02
02
02
FE
02
02
02
02
FE
02
02
02
02
02
02
ENDCHAR
STARTCHAR 3156
ENCODING 9286
SWIDTH 2000 0
DWIDTH 20 0
BBX 8 18 5 -4
BITMAP
01
09
09
09
09
09
F9
09
09
09
09
F9
09
09
09
09
01
01
ENDCHAR
STARTCHAR 3157
ENCODING 9287
SWIDTH 2000 0
DWIDTH 20 0
BBX 15 9 2 1
BITMAP
0100
0100
0100
0100
0100
0100
0100
0100
FFFE
ENDCHAR
STARTCHAR 3158
ENCODING 9288
SWIDTH 2000 0
DWIDTH 20 0
BBX 16 18 2 -4
BITMAP
0010
0010
0010
0010
0410
0410
0410
0410
041F
0410
0410
FFF0
F810
0010
0010
0010
0010
0010
ENDCHAR
STARTCHAR 3159
ENCODING 9289
SWIDTH 2000 0
DWIDTH 20 0
BBX 14 18 2 -4
BITMAP
0004
0044
0044
0044
0844
0844
0844
0844
0844
087C
0844
1FC4
E044
0044
0044
0044
0004
0004
ENDCHAR
STARTCHAR 315A
ENCODING 9290
SWIDTH 2000 0
DWIDTH 20 0
BBX 12 18 3 -4
BITMAP
0010
0010
0010
0010
0410
0410
0410
0410
0410
0410
0410
07F0
FE10
0010
0010
0010
0010
0010
ENDCHAR
STARTCHAR 315B
ENCODING 9291
SWIDTH 2000 0
DWIDTH 20 0
BBX 15 9 2 1
BITMAP
0420
0420
0420
0420
0420
0420
0420
0420
FFFE
ENDCHAR
STARTCHAR 315C
ENCODING 9292
SWIDTH 2000 0
DWIDTH 20 0
BBX 15 13 2 -2
BITMAP
FFFE
0100
0100
0100
0100
0100
0100
0100
0100
0100
0100
0100
0100
ENDCHAR
STARTCHAR 315D
ENCODING 9293
SWIDTH 2000 0
DWIDTH 20 0
BBX 12 18 3 -4
BITMAP
0010
0010
0010
0010
0010
FFF0
0410
0410
0410
05F0
0410
0410
0410
0410
0410
0010
0010
0010
ENDCHAR
STARTCHAR 315E
ENCODING 9294
SWIDTH 2000 0
DWIDTH 20 0
BBX 14 18 2 -4
BITMAP
0024
0024
0024
0024
0024
0024
FFA4
0824
0824
09E4
0824
0824
0824
0824
0824
0024
0004
0004
ENDCHAR
STARTCHAR 315F
ENCODING 9295
SWIDTH 2000 0
DWIDTH 20 0
BBX 13 18 2 -4
BITMAP
0008
0008
0008
0008
0008
01F8
FFF8
0208
0208
0208
0208
0208
0208
0208
0208
0008
0008
0008
ENDCHAR
STARTCHAR 3160
ENCODING 9296
SWIDTH 2000 0
DWIDTH 20 0
BBX 16 13 2 -2
BITMAP
FFFF
0420
0420
0420
0420
0420
0420
0420
0420
0420
0420
0420
0420
ENDCHAR
STARTCHAR 3161
ENCODING 9297
SWIDTH 2000 0
DWIDTH 20 0
BBX 15 1 2 5
BITMAP
FFFE
ENDCHAR
STARTCHAR 3162
ENCODING 9298
SWIDTH 2000 0
DWIDTH 20 0
BBX 12 18 3 -4
BITMAP
0010
0010
0010
0010
0010
0010
0010
0010
0010
0030
1FF0
F010
0010
0010
0010
0010
0010
0010
ENDCHAR
STARTCHAR 3163
ENCODING 9299
SWIDTH 2000 0
DWIDTH 20 0
BBX 1 18 9 -4
BITMAP
80
80
80
80
80
80
80
80
80
80
80
80
80
80
80
80
80
80
ENDCHAR
STARTCHAR 3164
ENCODING 9300
SWIDTH 2000 0
DWIDTH 20 0
BBX 0 0 0 0
BITMAP
ENDCHAR
STARTCHAR 3165
ENCODING 9301
SWIDTH 2000 0
DWIDTH 20 0
BBX 14 10 3 0
BITMAP
8100
8100
8100
8100
8100
8100
8100
8100
9D00
F1FC
ENDCHAR
STARTCHAR 3166
ENCODING 9302
SWIDTH 2000 0
DWIDTH 20 0
BBX 14 10 3 0
BITMAP
81F8
8100
8100
8100
8100
8100
8100
8500
FD00
C1FC
ENDCHAR
STARTCHAR 3167
ENCODING 9303
SWIDTH 2000 0
DWIDTH 20 0
BBX 14 10 3 0
BITMAP
8020
8020
8020
8020
8020
8050
8050
8048
8884
F900
ENDCHAR
STARTCHAR 3168
ENCODING 9304
SWIDTH 2000 0
DWIDTH 20 0
BBX 14 10 3 0
BITMAP
8000
8060
8060
8060
8090
8090
8188
8108
F908
C3FC
ENDCHAR
STARTCHAR 3169
ENCODING 9305
SWIDTH 2000 0
DWIDTH 20 0
BBX 14 10 3 0
BITMAP
FF10
1110
1110
1110
F110
8128
8128
8128
F944
8140
ENDCHAR
STARTCHAR 316A
ENCODING 9306
SWIDTH 2000 0
DWIDTH 20 0
BBX 14 10 3 0
BITMAP
FCFC
0480
0480
0480
FC80
8080
8080
8080
8680
F8FC
ENDCHAR
STARTCHAR 316B
ENCODING 9307
SWIDTH 2000 0
DWIDTH 20 0
BBX 14 10 3 0
BITMAP
F090
1490
1490
1490
F790
84A8
84A8
84A8
F4A4
07C4
ENDCHAR
STARTCHAR 316C
ENCODING 9308
SWIDTH 2000 0
DWIDTH 20 0
BBX 14 10 3 0
BITMAP
FC20
0420
0460
0450
FC50
8088
8088
8088
8104
FDFC
ENDCHAR
STARTCHAR 316D
ENCODING 9309
SWIDTH 2000 0
DWIDTH 20 0
BBX 14 10 3 0
BITMAP
FFFC
0400
0400
04F8
FD8C
8104
8104
8104
8F8C
F8F8
ENDCHAR
STARTCHAR 316E
ENCODING 9310
SWIDTH 2000 0
DWIDTH 20 0
BBX 13 10 3 0
BITMAP
FC88
8488
8488
8488
84F8
8488
8488
8488
8488
FCF8
ENDCHAR
STARTCHAR 316F
ENCODING 9311
SWIDTH 2000 0
DWIDTH 20 0
BBX 15 10 3 0
BITMAP
FC20
8420
8420
8420
8420
8450
8450
84C8
8484
FD02
ENDCHAR
STARTCHAR 3170
ENCODING 9312
SWIDTH 2000 0
DWIDTH 20 0
BBX 14 10 3 0
BITMAP
FC20
8420
8470
8450
8450
8488
8488
848C
8504
FDFC
ENDCHAR
STARTCHAR 3171
ENCODING 9313
SWIDTH 2000 0
DWIDTH 20 0
BBX 8 14 6 -3
BITMAP
FF
81
81
81
81
FF
00
00
7E
C3
81
81
C3
7E
ENDCHAR
STARTCHAR 3172
ENCODING 9314
SWIDTH 2000 0
DWIDTH 20 0
BBX 13 10 3 0
BITMAP
85F8
8408
8408
8408
FC08
8408
8408
8408
8408
FC08
ENDCHAR
STARTCHAR 3173
ENCODING 9315
SWIDTH 2000 0
DWIDTH 20 0
BBX 14 10 3 0
BITMAP
84FC
8480
8480
8480
FC80
8480
8480
8480
8480
FCFC
ENDCHAR
STARTCHAR 3174
ENCODING 9316
SWIDTH 2000 0
DWIDTH 20 0
BBX 13 10 3 0
BITMAP
9178
9108
9108
9108
F108
9288
9288
9288
9248
F440
ENDCHAR
STARTCHAR 3175
ENCODING 9317
SWIDTH 2000 0
DWIDTH 20 0
BBX 14 10 3 0
BITMAP
923C
9220
9220
9220
F220
9520
9520
94A0
98A0
F83C
ENDCHAR
STARTCHAR 3176
ENCODING 9318
SWIDTH 2000 0
DWIDTH 20 0
BBX 14 10 3 0
BITMAP
85FC
8420
8420
8420
FC70
8450
84D8
8488
8504
FC00
ENDCHAR
STARTCHAR 3177
ENCODING 9319
SWIDTH 2000 0
DWIDTH 20 0
BBX 14 10 3 0
BITMAP
84FC
8480
8480
8480
FCFC
8480
8480
8480
8480
FCFC
ENDCHAR
STARTCHAR 3178
ENCODING 9320
SWIDTH 2000 0
DWIDTH 20 0
BBX 8 15 6 -3
BITMAP
81
81
81
FF
81
81
FF
00
00
7E
C3
81
81
C3
7E
ENDCHAR
STARTCHAR 3179
ENCODING 9321
SWIDTH 2000 0
DWIDTH 20 0
BBX 11 16 4 -3
BITMAP
8920
8920
8920
F9E0
8920
8920
8920
F9E0
0000
0000
1F80
30C0
2040
2040
30C0
1F80
ENDCHAR
STARTCHAR 317A
ENCODING 9322
SWIDTH 2000 0
DWIDTH 20 0
BBX 13 10 3 0
BITMAP
11F8
1008
1008
1008
1008
2808
2808
4408
C208
8008
ENDCHAR
STARTCHAR 317B
ENCODING 9323
SWIDTH 2000 0
DWIDTH 20 0
BBX 16 10 2 0
BITMAP
1040
1040
1040
1040
1040
2840
2840
2440
4240
837F
ENDCHAR
STARTCHAR 317C
ENCODING 9324
SWIDTH 2000 0
DWIDTH 20 0
BBX 15 10 3 0
BITMAP
10FC
1080
1080
1080
1080
2880
2880
4480
C280
80FE
ENDCHAR
STARTCHAR 317D
ENCODING 9325
SWIDTH 2000 0
DWIDTH 20 0
BBX 14 10 2 0
BITMAP
1004
1044
1044
1044
107C
2844
2844
2444
4244
837C
ENDCHAR
STARTCHAR 317E
ENCODING 9326
SWIDTH 2000 0
DWIDTH 20 0
BBX 14 10 3 0
BITMAP
11FC
1020
1020
1020
1070
2850
28D8
4488
C104
8000
ENDCHAR
STARTCHAR 317F
ENCODING 9327
SWIDTH 2000 0
DWIDTH 20 0
BBX 10 10 5 0
BITMAP
0800
0C00
1400
1200
2200
2100
4100
4080
80C0
FFC0
ENDCHAR
STARTCHAR 3180
ENCODING 9328
SWIDTH 2000 0
DWIDTH 20 0
BBX 13 10 3 0
BITMAP
7870
48D0
8488
8488
8488
8488
8488
8488
48D0
7870
ENDCHAR
STARTCHAR 3181
ENCODING 9329
SWIDTH 2000 0
DWIDTH 20 0
BBX 11 13 4 -1
BITMAP
0400
0400
0400
3F80
71C0
C060
8020
8020
8020
8020
4040
20C0
1F00
ENDCHAR
STARTCHAR 3182
ENCODING 9330
SWIDTH 2000 0
DWIDTH 20 0
BBX 15 11 3 0
BITMAP
1000
1020
3020
7820
CC20
8420
8450
8450
8448
4884
7106
ENDCHAR
STARTCHAR 3183
ENCODING 9331
SWIDTH 2000 0
DWIDTH 20 0
BBX 14 11 3 0
BITMAP
1000
1000
3020
7860
CC50
84D0
8490
8488
8508
4904
71FC
ENDCHAR
STARTCHAR 3184
ENCODING 9332
SWIDTH 2000 0
DWIDTH 20 0
BBX 12 14 4 -2
BITMAP
FFE0
0000
1080
1080
1080
1080
FFF0
0000
1F80
30C0
2040
2040
30C0
1F80
ENDCHAR
STARTCHAR 3185
ENCODING 9333
SWIDTH 2000 0
DWIDTH 20 0
BBX 16 12 2 -1
BITMAP
7C7E
0000
0000
FEFF
0000
0000
3C3C
4646
4242
4242
4646
3C3C
ENDCHAR
STARTCHAR 3186
ENCODING 9334
SWIDTH 2000 0
DWIDTH 20 0
BBX 14 12 3 -1
BITMAP
FFFC
0000
0000
0000
0000
0780
1860
1020
1020
1020
1860
0780
ENDCHAR
STARTCHAR 3187
ENCODING 9335
SWIDTH 2000 0
DWIDTH 20 0
BBX 14 18 3 -4
BITMAP
0020
0020
0020
1020
1220
1220
123C
1220
1220
1220
1220
FFFC
F020
0020
0020
0020
0020
0020
ENDCHAR
STARTCHAR 3188
ENCODING 9336
SWIDTH 2000 0
DWIDTH 20 0
BBX 13 18 3 -4
BITMAP
0008
0088
0088
0088
0088
2488
24F8
2488
2488
2488
27F8
FF88
C088
0088
0088
0088
0088
0008
ENDCHAR
STARTCHAR 3189
ENCODING 9337
SWIDTH 2000 0
DWIDTH 20 0
BBX 12 18 3 -4
BITMAP
0010
0010
0010
0010
1210
1210
1210
1210
1210
1210
1210
FFF0
E010
0010
0010
0010
0010
0010
ENDCHAR
STARTCHAR 318A
ENCODING 9338
SWIDTH 2000 0
DWIDTH 20 0
BBX 12 18 3 -4
BITMAP
0010
0010
0010
0010
01D0
FFD0
1210
1210
12F0
1210
1210
12F0
1210
1210
1210
1210
0010
0010
ENDCHAR
STARTCHAR 318B
ENCODING 9339
SWIDTH 2000 0
DWIDTH 20 0
BBX 13 18 3 -4
BITMAP
0008
0048
0048
0048
0048
0748
FC48
2448
27C8
2448
2448
27C8
2448
2448
2448
2448
0008
0008
ENDCHAR
STARTCHAR 318C
ENCODING 9340
SWIDTH 2000 0
DWIDTH 20 0
BBX 12 18 3 -4
BITMAP
0010
0010
0010
0010
0010
0010
03F0
FFF0
1110
1110
1110
1110
1110
1110
1110
1110
0110
0010
ENDCHAR
STARTCHAR 318D
ENCODING 9341
SWIDTH 2000 0
DWIDTH 20 0
BBX 3 3 8 4
BITMAP
E0
E0
E0
ENDCHAR
STARTCHAR 318E
ENCODING 9342
SWIDTH 2000 0
DWIDTH 20 0
BBX 9 18 5 -4
BITMAP
0080
0080
0080
0080
0080
0080
0080
E080
E080
E080
0080
0080
0080
0080
0080
0080
0080
0080
ENDCHAR
STARTCHAR 2170
ENCODING 9505
SWIDTH 2000 0
DWIDTH 20 0
BBX 1 15 9 0
BITMAP
80
00
00
00
00
80
80
80
80
80
80
80
80
80
80
ENDCHAR
STARTCHAR 2171
ENCODING 9506
SWIDTH 2000 0
DWIDTH 20 0
BBX 6 15 7 0
BITMAP
84
00
00
00
00
84
84
84
84
84
84
84
84
84
84
ENDCHAR
STARTCHAR 2172
ENCODING 9507
SWIDTH 2000 0
DWIDTH 20 0
BBX 9 15 5 0
BITMAP
8880
0000
0000
0000
0000
8880
8880
8880
8880
8880
8880
8880
8880
8880
8880
ENDCHAR
STARTCHAR 2173
ENCODING 9508
SWIDTH 2000 0
DWIDTH 20 0
BBX 10 15 5 0
BITMAP
8000
0000
0000
0000
0000
9040
8880
8880
8880
8500
8500
8500
8300
8200
8200
ENDCHAR
STARTCHAR 2174
ENCODING 9509
SWIDTH 2000 0
DWIDTH 20 0
BBX 7 10 6 0
BITMAP
82
42
44
44
24
28
28
18
10
10
ENDCHAR
STARTCHAR 2175
ENCODING 9510
SWIDTH 2000 0
DWIDTH 20 0
BBX 11 15 4 0
BITMAP
0020
0000
0000
0000
0000
8220
8220
4420
4420
2420
2820
2820
1820
1020
1020
ENDCHAR
STARTCHAR 2176
ENCODING 9511
SWIDTH 2000 0
DWIDTH 20 0
BBX 12 15 4 0
BITMAP
0120
0000
0000
0000
0000
8910
8910
8910
9110
5110
5110
6110
6110
2110
2110
ENDCHAR
STARTCHAR 2177
ENCODING 9512
SWIDTH 2000 0
DWIDTH 20 0
BBX 13 15 3 0
BITMAP
0148
0000
0000
0000
0000
8948
8948
8948
9148
5148
5148
7148
2148
2148
2148
ENDCHAR
STARTCHAR 2178
ENCODING 9513
SWIDTH 2000 0
DWIDTH 20 0
BBX 10 15 5 0
BITMAP
8000
0000
0000
0000
0000
8840
8880
8480
8500
8300
8300
8300
8480
8480
8840
ENDCHAR
STARTCHAR 2179
ENCODING 9514
SWIDTH 2000 0
DWIDTH 20 0
BBX 6 10 7 0
BITMAP
04
88
48
50
20
20
50
48
88
84
ENDCHAR
STARTCHAR 2160
ENCODING 9520
SWIDTH 2000 0
DWIDTH 20 0
BBX 1 14 9 0
BITMAP
80
80
80
80
80
80
80
80
80
80
80
80
80
80
ENDCHAR
STARTCHAR 2161
ENCODING 9521
SWIDTH 2000 0
DWIDTH 20 0
BBX 7 14 6 0
BITMAP
82
82
82
82
82
82
82
82
82
82
82
82
82
82
ENDCHAR
STARTCHAR 2162
ENCODING 9522
SWIDTH 2000 0
DWIDTH 20 0
BBX 10 14 5 0
BITMAP
8840
8840
8840
8840
8840
8840
8840
8840
8840
8840
8840
8840
8840
8840
ENDCHAR
STARTCHAR 2163
ENCODING 9523
SWIDTH 2000 0
DWIDTH 20 0
BBX 10 14 5 0
BITMAP
9040
9040
9040
8880
8880
8880
8880
8500
8500
8500
8700
8200
8200
8200
ENDCHAR
STARTCHAR 2164
ENCODING 9524
SWIDTH 2000 0
DWIDTH 20 0
BBX 8 14 6 0
BITMAP
81
82
82
42
46
44
64
24
28
28
18
18
10
10
ENDCHAR
STARTCHAR 2165
ENCODING 9525
SWIDTH 2000 0
DWIDTH 20 0
BBX 11 14 4 0
BITMAP
8220
8220
4220
4220
4420
6420
2420
2420
2820
1820
1820
1820
1020
0020
ENDCHAR
STARTCHAR 2166
ENCODING 9526
SWIDTH 2000 0
DWIDTH 20 0
BBX 13 14 3 0
BITMAP
8248
8248
8448
8448
4448
4448
4848
4848
2848
2848
3048
1048
1048
1048
ENDCHAR
STARTCHAR 2167
ENCODING 9527
SWIDTH 2000 0
DWIDTH 20 0
BBX 15 14 2 0
BITMAP
8292
4492
4492
4492
4492
2492
2892
2892
2892
2892
1092
1092
1092
1092
ENDCHAR
STARTCHAR 2168
ENCODING 9528
SWIDTH 2000 0
DWIDTH 20 0
BBX 10 14 5 0
BITMAP
9040
8880
8880
8900
8500
8700
8200
8200
8600
8500
8900
8880
8880
9040
ENDCHAR
STARTCHAR 2169
ENCODING 9529
SWIDTH 2000 0
DWIDTH 20 0
BBX 7 14 6 0
BITMAP
82
42
44
24
28
18
10
18
18
28
24
44
42
82
ENDCHAR
STARTCHAR 0391
ENCODING 9537
SWIDTH 2000 0
DWIDTH 20 0
BBX 10 14 5 0
BITMAP
0080
0080
0180
0780
0580
0880
08C0
10C0
20C0
20C0
3FC0
4040
4040
8040
ENDCHAR
STARTCHAR 0392
ENCODING 9538
SWIDTH 2000 0
DWIDTH 20 0
BBX 10 14 5 0
BITMAP
1F80
10C0
1040
2040
2040
2080
3F00
4100
4080
4080
4080
8080
8300
FE00
ENDCHAR
STARTCHAR 0393
ENCODING 9539
SWIDTH 2000 0
DWIDTH 20 0
BBX 10 13 5 1
BITMAP
1FC0
1000
1000
2000
2000
2000
4000
4000
4000
4000
8000
8000
8000
ENDCHAR
STARTCHAR 0394
ENCODING 9540
SWIDTH 2000 0
DWIDTH 20 0
BBX 11 14 4 0
BITMAP
00C0
00C0
03C0
02C0
04C0
08C0
08E0
1060
2060
2060
4060
8060
8060
FFE0
ENDCHAR
STARTCHAR 0395
ENCODING 9541
SWIDTH 2000 0
DWIDTH 20 0
BBX 11 14 4 0
BITMAP
0FE0
0800
1000
1000
1000
2000
3FC0
2000
2000
4000
4000
4000
C000
FF00
ENDCHAR
STARTCHAR 0396
ENCODING 9542
SWIDTH 2000 0
DWIDTH 20 0
BBX 12 14 4 0
BITMAP
3FF0
0020
0040
0080
0100
0300
0600
0400
0800
1000
3000
6000
C000
FFC0
ENDCHAR
STARTCHAR 0397
ENCODING 9543
SWIDTH 2000 0
DWIDTH 20 0
BBX 13 13 3 0
BITMAP
0808
0808
1008
1010
1010
2010
3FE0
2020
2020
4020
4040
4040
8040
ENDCHAR
STARTCHAR 0398
ENCODING 9544
SWIDTH 2000 0
DWIDTH 20 0
BBX 11 14 4 0
BITMAP
0F80
1840
2020
6020
4020
4020
5FA0
8020
8020
8040
8040
4080
4180
3E00
ENDCHAR
STARTCHAR 0399
ENCODING 9545
SWIDTH 2000 0
DWIDTH 20 0
BBX 4 14 8 0
BITMAP
10
20
20
20
20
20
40
40
40
40
40
80
80
80
ENDCHAR
STARTCHAR 039A
ENCODING 9546
SWIDTH 2000 0
DWIDTH 20 0
BBX 10 14 5 0
BITMAP
1040
2080
2100
2200
2400
2800
7400
6400
4200
4200
4200
4100
8100
8080
ENDCHAR
STARTCHAR 039B
ENCODING 9547
SWIDTH 2000 0
DWIDTH 20 0
BBX 9 14 5 0
BITMAP
0200
0600
0600
0A00
0B00
1100
1100
2100
2100
2100
4180
4080
8080
8080
ENDCHAR
STARTCHAR 039C
ENCODING 9548
SWIDTH 2000 0
DWIDTH 20 0
BBX 13 14 3 0
BITMAP
1008
3018
3018
2828
2828
2858
4850
4890
4910
4510
4610
4630
8420
8420
ENDCHAR
STARTCHAR 039D
ENCODING 9549
SWIDTH 2000 0
DWIDTH 20 0
BBX 11 14 4 0
BITMAP
1020
1020
3820
2820
2840
2440
2440
6440
4240
4240
4280
4180
4180
8180
ENDCHAR
STARTCHAR 039E
ENCODING 9550
SWIDTH 2000 0
DWIDTH 20 0
BBX 11 14 4 0
BITMAP
1FE0
0000
0000
0000
0000
0000
1F80
0000
0000
0000
0000
0000
0000
FF80
ENDCHAR
STARTCHAR 039F
ENCODING 9551
SWIDTH 2000 0
DWIDTH 20 0
BBX 11 14 4 0
BITMAP
0F00
10C0
2060
4020
4020
4020
8020
8020
8020
8040
8040
4080
6180
3E00
ENDCHAR
STARTCHAR 03A0
ENCODING 9552
SWIDTH 2000 0
DWIDTH 20 0
BBX 11 14 4 0
BITMAP
3FE0
2020
2020
2020
2040
2040
4040
4040
4040
4040
4080
8080
8080
8080
ENDCHAR
STARTCHAR 03A1
ENCODING 9553
SWIDTH 2000 0
DWIDTH 20 0
BBX 10 14 5 0
BITMAP
3F80
2080
20C0
20C0
2080
4080
7F00
4000
4000
4000
8000
8000
8000
8000
ENDCHAR
STARTCHAR 03A3
ENCODING 9554
SWIDTH 2000 0
DWIDTH 20 0
BBX 11 14 5 0
BITMAP
3FE0
2000
1000
0800
0800
0400
0600
0400
0800
1000
2000
6000
C000
FF80
ENDCHAR
STARTCHAR 03A4
ENCODING 9555
SWIDTH 2000 0
DWIDTH 20 0
BBX 10 14 5 0
BITMAP
FFC0
0800
0800
0800
0800
0800
0800
1000
1000
1000
1000
1000
1000
2000
ENDCHAR
STARTCHAR 03A5
ENCODING 9556
SWIDTH 2000 0
DWIDTH 20 0
BBX 9 14 6 0
BITMAP
8080
8180
8100
4200
4600
2400
2800
3000
1000
2000
2000
2000
2000
2000
ENDCHAR
STARTCHAR 03A6
ENCODING 9557
SWIDTH 2000 0
DWIDTH 20 0
BBX 12 15 4 0
BITMAP
0100
0100
0F80
33E0
4220
8230
8610
8410
8410
8420
C420
7CC0
3F80
0800
0800
ENDCHAR
STARTCHAR 03A7
ENCODING 9558
SWIDTH 2000 0
DWIDTH 20 0
BBX 11 14 4 0
BITMAP
1060
1040
0880
0900
0B00
0600
0400
0E00
0A00
1200
2100
6100
4080
8080
ENDCHAR
STARTCHAR 03A8
ENCODING 9559
SWIDTH 2000 0
DWIDTH 20 0
BBX 13 14 4 0
BITMAP
0008
4210
4230
4420
C420
8420
8420
8460
C440
3F80
0800
0800
0800
0800
ENDCHAR
STARTCHAR 03A9
ENCODING 9560
SWIDTH 2000 0
DWIDTH 20 0
BBX 12 14 3 0
BITMAP
0780
1860
1020
2010
2010
2010
6010
6010
2020
2020
1040
0980
1100
F3E0
ENDCHAR
STARTCHAR 03B1
ENCODING 9569
SWIDTH 2000 0
DWIDTH 20 0
BBX 8 11 6 0
BITMAP
3D
45
43
82
82
82
82
82
84
CE
73
ENDCHAR
STARTCHAR 03B2
ENCODING 9570
SWIDTH 2000 0
DWIDTH 20 0
BBX 9 18 5 -3
BITMAP
0200
0F00
1880
1080
3080
3100
2200
2E00
2100
2100
2100
6100
6100
6300
5E00
4000
4000
8000
ENDCHAR
STARTCHAR 03B3
ENCODING 9571
SWIDTH 2000 0
DWIDTH 20 0
BBX 8 14 5 -3
BITMAP
C1
61
62
62
64
24
24
38
38
30
30
30
70
70
ENDCHAR
STARTCHAR 03B4
ENCODING 9572
SWIDTH 2000 0
DWIDTH 20 0
BBX 9 15 6 0
BITMAP
3F80
2000
1000
0800
3C00
6600
4200
8200
8200
8200
8200
8200
8400
8400
7800
ENDCHAR
STARTCHAR 03B5
ENCODING 9573
SWIDTH 2000 0
DWIDTH 20 0
BBX 8 11 6 0
BITMAP
3C
62
41
41
3C
7C
C0
82
82
C6
7C
ENDCHAR
STARTCHAR 03B6
ENCODING 9574
SWIDTH 2000 0
DWIDTH 20 0
BBX 8 18 6 -3
BITMAP
3F
03
06
04
08
18
30
20
40
C0
80
80
80
70
0C
04
04
3C
ENDCHAR
STARTCHAR 03B7
ENCODING 9575
SWIDTH 2000 0
DWIDTH 20 0
BBX 7 14 6 -3
BITMAP
CE
72
62
42
42
42
82
82
82
84
84
04
04
04
ENDCHAR
STARTCHAR 03B8
ENCODING 9576
SWIDTH 2000 0
DWIDTH 20 0
BBX 9 15 5 0
BITMAP
0F00
1100
2080
2080
4080
4080
7F80
4080
4180
8100
4100
4100
4200
4600
3800
ENDCHAR
STARTCHAR 03B9
ENCODING 9577
SWIDTH 2000 0
DWIDTH 20 0
BBX 3 11 8 0
BITMAP
20
20
40
40
40
40
40
40
40
C0
60
ENDCHAR
STARTCHAR 03BA
ENCODING 9578
SWIDTH 2000 0
DWIDTH 20 0
BBX 9 11 6 0
BITMAP
2180
4600
4800
5000
7800
6800
4800
C800
8400
8400
8400
ENDCHAR
STARTCHAR 03BB
ENCODING 9579
SWIDTH 2000 0
DWIDTH 20 0
BBX 9 16 5 -1
BITMAP
0800
1C00
0600
0600
0600
0600
0E00
0A00
1200
1300
2300
2300
4300
4300
8180
8000
ENDCHAR
STARTCHAR 03BC
ENCODING 9580
SWIDTH 2000 0
DWIDTH 20 0
BBX 8 14 6 -3
BITMAP
21
41
42
42
42
42
42
C6
C6
CE
B3
80
80
80
ENDCHAR
STARTCHAR 03BD
ENCODING 9581
SWIDTH 2000 0
DWIDTH 20 0
BBX 7 11 6 0
BITMAP
C2
C2
44
44
44
48
48
50
70
60
60
ENDCHAR
STARTCHAR 03BE
ENCODING 9582
SWIDTH 2000 0
DWIDTH 20 0
BBX 9 18 6 -3
BITMAP
7F80
1800
2000
2000
2000
2000
1E00
3000
4000
8000
8000
8000
8000
7000
0C00
0400
0C00
3800
ENDCHAR
STARTCHAR 03BF
ENCODING 9583
SWIDTH 2000 0
DWIDTH 20 0
BBX 8 11 6 0
BITMAP
1C
62
42
C1
81
81
82
82
86
44
78
ENDCHAR
STARTCHAR 03C0
ENCODING 9584
SWIDTH 2000 0
DWIDTH 20 0
BBX 9 11 6 0
BITMAP
FF80
4200
4200
4200
8200
8200
8400
8400
8400
8400
8400
ENDCHAR
STARTCHAR 03C1
ENCODING 9585
SWIDTH 2000 0
DWIDTH 20 0
BBX 8 14 6 -3
BITMAP
0E
13
21
41
41
41
41
41
C2
C2
BC
80
80
80
ENDCHAR
STARTCHAR 03C3
ENCODING 9586
SWIDTH 2000 0
DWIDTH 20 0
BBX 9 11 6 0
BITMAP
3F80
6200
4200
C100
8100
8100
8200
8200
8200
4400
3800
ENDCHAR
STARTCHAR 03C4
ENCODING 9587
SWIDTH 2000 0
DWIDTH 20 0
BBX 7 11 7 0
BITMAP
FE
20
20
20
20
20
20
20
40
60
30
ENDCHAR
STARTCHAR 03C5
ENCODING 9588
SWIDTH 2000 0
DWIDTH 20 0
BBX 8 11 6 0
BITMAP
41
42
42
42
42
82
82
84
84
CC
78
ENDCHAR
STARTCHAR 03C6
ENCODING 9589
SWIDTH 2000 0
DWIDTH 20 0
BBX 10 14 5 -3
BITMAP
1B80
3640
4440
4440
C440
8440
8440
8880
C880
6B00
3E00
0800
0800
1000
ENDCHAR
STARTCHAR 03C7
ENCODING 9590
SWIDTH 2000 0
DWIDTH 20 0
BBX 8 14 6 -3
BITMAP
C1
22
24
24
18
18
10
18
28
28
48
44
84
06
ENDCHAR
STARTCHAR 03C8
ENCODING 9591
SWIDTH 2000 0
DWIDTH 20 0
BBX 11 14 5 -3
BITMAP
8420
C440
8440
8840
8840
8840
8880
8880
8880
D980
7E00
1000
1000
1000
ENDCHAR
STARTCHAR 03C9
ENCODING 9592
SWIDTH 2000 0
DWIDTH 20 0
BBX 10 11 5 0
BITMAP
1900
2080
40C0
C440
8440
8840
8840
88C0
9880
9580
6300
ENDCHAR
STARTCHAR 2500
ENCODING 9761
SWIDTH 2000 0
DWIDTH 20 0
BBX 20 1 0 6
BITMAP
FFFFF0
ENDCHAR
STARTCHAR 2502
ENCODING 9762
SWIDTH 2000 0
DWIDTH 20 0
BBX 1 20 10 -4
BITMAP
80
80
80
80
80
80
80
80
80
80
80
80
80
80
80
80
80
80
80
80
ENDCHAR
STARTCHAR 250C
ENCODING 9763
SWIDTH 2000 0
DWIDTH 20 0
BBX 11 11 10 -4
BITMAP
FFE0
8000
8000
8000
8000
8000
8000
8000
8000
8000
8000
ENDCHAR
STARTCHAR 2510
ENCODING 9764
SWIDTH 2000 0
DWIDTH 20 0
BBX 11 11 0 -4
BITMAP
FFE0
0020
0020
0020
0020
0020
0020
0020
0020
0020
0020
ENDCHAR
STARTCHAR 2518
ENCODING 9765
SWIDTH 2000 0
DWIDTH 20 0
BBX 11 10 0 6
BITMAP
0020
0020
0020
0020
0020
0020
0020
0020
0020
FFE0
ENDCHAR
STARTCHAR 2514
ENCODING 9766
SWIDTH 2000 0
DWIDTH 20 0
BBX 11 10 10 6
BITMAP
8000
8000
8000
8000
8000
8000
8000
8000
8000
FFE0
ENDCHAR
STARTCHAR 251C
ENCODING 9767
SWIDTH 2000 0
DWIDTH 20 0
BBX 11 20 10 -4
BITMAP
8000
8000
8000
8000
8000
8000
8000
8000
8000
FFE0
8000
8000
8000
8000
8000
8000
8000
8000
8000
8000
ENDCHAR
STARTCHAR 252C
ENCODING 9768
SWIDTH 2000 0
DWIDTH 20 0
BBX 21 11 0 -4
BITMAP
FFFFF8
002000
002000
002000
002000
002000
002000
002000
002000
002000
002000
ENDCHAR
STARTCHAR 2524
ENCODING 9769
SWIDTH 2000 0
DWIDTH 20 0
BBX 11 20 0 -4
BITMAP
0020
0020
0020
0020
0020
0020
0020
0020
0020
FFE0
0020
0020
0020
0020
0020
0020
0020
0020
0020
0020
ENDCHAR
STARTCHAR 2534
ENCODING 9770
SWIDTH 2000 0
DWIDTH 20 0
BBX 21 10 0 6
BITMAP
002000
002000
002000
002000
002000
002000
002000
002000
002000
FFFFF8
ENDCHAR
STARTCHAR 253C
ENCODING 9771
SWIDTH 2000 0
DWIDTH 20 0
BBX 21 20 0 -4
BITMAP
002000
002000
002000
002000
002000
002000
002000
002000
002000
FFFFF8
002000
002000
002000
002000
002000
002000
002000
002000
002000
002000
ENDCHAR
STARTCHAR 2501
ENCODING 9772
SWIDTH 2000 0
DWIDTH 20 0
BBX 20 1 0 6
BITMAP
FFFFF0
ENDCHAR
STARTCHAR 2503
ENCODING 9773
SWIDTH 2000 0
DWIDTH 20 0
BBX 1 20 9 -4
BITMAP
80
80
80
80
80
80
80
80
80
80
80
80
80
80
80
80
80
80
80
80
ENDCHAR
STARTCHAR 250F
ENCODING 9774
SWIDTH 2000 0
DWIDTH 20 0
BBX 10 11 9 -4
BITMAP
FFC0
8000
8000
8000
8000
8000
8000
8000
8000
8000
8000
ENDCHAR
STARTCHAR 2513
ENCODING 9775
SWIDTH 2000 0
DWIDTH 20 0
BBX 10 11 0 -4
BITMAP
FFC0
0040
0040
0040
0040
0040
0040
0040
0040
0040
0040
ENDCHAR
STARTCHAR 251B
ENCODING 9776
SWIDTH 2000 0
DWIDTH 20 0
BBX 10 10 0 6
BITMAP
0040
0040
0040
0040
0040
0040
0040
0040
0040
FFC0
ENDCHAR
STARTCHAR 2517
ENCODING 9777
SWIDTH 2000 0
DWIDTH 20 0
BBX 10 10 9 6
BITMAP
8000
8000
8000
8000
8000
8000
8000
8000
8000
FFC0
ENDCHAR
STARTCHAR 2523
ENCODING 9778
SWIDTH 2000 0
DWIDTH 20 0
BBX 10 20 9 -4
BITMAP
8000
8000
8000
8000
8000
8000
8000
8000
8000
FFC0
8000
8000
8000
8000
8000
8000
8000
8000
8000
8000
ENDCHAR
STARTCHAR 2533
ENCODING 9779
SWIDTH 2000 0
DWIDTH 20 0
BBX 19 11 0 -4
BITMAP
FFFFE0
004000
004000
004000
004000
004000
004000
004000
004000
004000
004000
ENDCHAR
STARTCHAR 252B
ENCODING 9780
SWIDTH 2000 0
DWIDTH 20 0
BBX 10 20 0 -4
BITMAP
0040
0040
0040
0040
0040
0040
0040
0040
0040
FFC0
0040
0040
0040
0040
0040
0040
0040
0040
0040
0040
ENDCHAR
STARTCHAR 253B
ENCODING 9781
SWIDTH 2000 0
DWIDTH 20 0
BBX 19 10 0 6
BITMAP
004000
004000
004000
004000
004000
004000
004000
004000
004000
FFFFE0
ENDCHAR
STARTCHAR 254B
ENCODING 9782
SWIDTH 2000 0
DWIDTH 20 0
BBX 19 20 0 -4
BITMAP
004000
004000
004000
004000
004000
004000
004000
004000
004000
FFFFE0
004000
004000
004000
004000
004000
004000
004000
004000
004000
004000
ENDCHAR
STARTCHAR 2520
ENCODING 9783
SWIDTH 2000 0
DWIDTH 20 0
BBX 10 20 9 -4
BITMAP
8000
8000
8000
8000
8000
8000
8000
8000
8000
FFC0
8000
8000
8000
8000
8000
8000
8000
8000
8000
8000
ENDCHAR
STARTCHAR 252F
ENCODING 9784
SWIDTH 2000 0
DWIDTH 20 0
BBX 21 11 0 -4
BITMAP
FFFFF8
002000
002000
002000
002000
002000
002000
002000
002000
002000
002000
ENDCHAR
STARTCHAR 2528
ENCODING 9785
SWIDTH 2000 0
DWIDTH 20 0
BBX 10 20 0 -4
BITMAP
0040
0040
0040
0040
0040
0040
0040
0040
0040
FFC0
0040
0040
0040
0040
0040
0040
0040
0040
0040
0040
ENDCHAR
STARTCHAR 2537
ENCODING 9786
SWIDTH 2000 0
DWIDTH 20 0
BBX 21 10 0 6
BITMAP
002000
002000
002000
002000
002000
002000
002000
002000
002000
FFFFF8
ENDCHAR
STARTCHAR 253F
ENCODING 9787
SWIDTH 2000 0
DWIDTH 20 0
BBX 21 20 0 -4
BITMAP
002000
002000
002000
002000
002000
002000
002000
002000
002000
FFFFF8
002000
002000
002000
002000
002000
002000
002000
002000
002000
002000
ENDCHAR
STARTCHAR 251D
ENCODING 9788
SWIDTH 2000 0
DWIDTH 20 0
BBX 11 20 10 -4
BITMAP
8000
8000
8000
8000
8000
8000
8000
8000
8000
FFE0
8000
8000
8000
8000
8000
8000
8000
8000
8000
8000
ENDCHAR
STARTCHAR 2530
ENCODING 9789
SWIDTH 2000 0
DWIDTH 20 0
BBX 19 11 0 -4
BITMAP
FFFFE0
004000
004000
004000
004000
004000
004000
004000
004000
004000
004000
ENDCHAR
STARTCHAR 2525
ENCODING 9790
SWIDTH 2000 0
DWIDTH 20 0
BBX 11 20 0 -4
BITMAP
0020
0020
0020
0020
0020
0020
0020
0020
0020
FFE0
0020
0020
0020
0020
0020
0020
0020
0020
0020
0020
ENDCHAR
STARTCHAR 2538
ENCODING 9791
SWIDTH 2000 0
DWIDTH 20 0
BBX 19 10 0 6
BITMAP
004000
004000
004000
004000
004000
004000
004000
004000
004000
FFFFE0
ENDCHAR
STARTCHAR 2542
ENCODING 9792
SWIDTH 2000 0
DWIDTH 20 0
BBX 19 20 0 -4
BITMAP
004000
004000
004000
004000
004000
004000
004000
004000
004000
FFFFE0
004000
004000
004000
004000
004000
004000
004000
004000
004000
004000
ENDCHAR
STARTCHAR 2512
ENCODING 9793
SWIDTH 2000 0
DWIDTH 20 0
BBX 10 11 0 -4
BITMAP
FFC0
0040
0040
0040
0040
0040
0040
0040
0040
0040
0040
ENDCHAR
STARTCHAR 2511
ENCODING 9794
SWIDTH 2000 0
DWIDTH 20 0
BBX 11 11 0 -4
BITMAP
FFE0
0020
0020
0020
0020
0020
0020
0020
0020
0020
0020
ENDCHAR
STARTCHAR 251A
ENCODING 9795
SWIDTH 2000 0
DWIDTH 20 0
BBX 10 10 0 6
BITMAP
0040
0040
0040
0040
0040
0040
0040
0040
0040
FFC0
ENDCHAR
STARTCHAR 2519
ENCODING 9796
SWIDTH 2000 0
DWIDTH 20 0
BBX 11 10 0 6
BITMAP
0020
0020
0020
0020
0020
0020
0020
0020
0020
FFE0
ENDCHAR
STARTCHAR 2516
ENCODING 9797
SWIDTH 2000 0
DWIDTH 20 0
BBX 10 10 9 6
BITMAP
8000
8000
8000
8000
8000
8000
8000
8000
8000
FFC0
ENDCHAR
STARTCHAR 2515
ENCODING 9798
SWIDTH 2000 0
DWIDTH 20 0
BBX 11 10 10 6
BITMAP
8000
8000
8000
8000
8000
8000
8000
8000
8000
FFE0
ENDCHAR
STARTCHAR 250E
ENCODING 9799
SWIDTH 2000 0
DWIDTH 20 0
BBX 10 11 9 -4
BITMAP
FFC0
8000
8000
8000
8000
8000
8000
8000
8000
8000
8000
ENDCHAR
STARTCHAR 250D
ENCODING 9800
SWIDTH 2000 0
DWIDTH 20 0
BBX 11 11 10 -4
BITMAP
FFE0
8000
8000
8000
8000
8000
8000
8000
8000
8000
8000
ENDCHAR
STARTCHAR 251E
ENCODING 9801
SWIDTH 2000 0
DWIDTH 20 0
BBX 10 20 9 -4
BITMAP
8000
8000
8000
8000
8000
8000
8000
8000
8000
FFC0
4000
4000
4000
4000
4000
4000
4000
4000
4000
4000
ENDCHAR
STARTCHAR 251F
ENCODING 9802
SWIDTH 2000 0
DWIDTH 20 0
BBX 10 20 9 -4
BITMAP
4000
4000
4000
4000
4000
4000
4000
4000
4000
7FC0
8000
8000
8000
8000
8000
8000
8000
8000
8000
8000
ENDCHAR
STARTCHAR 2521
ENCODING 9803
SWIDTH 2000 0
DWIDTH 20 0
BBX 10 20 9 -4
BITMAP
8000
8000
8000
8000
8000
8000
8000
8000
8000
FFC0
4000
4000
4000
4000
4000
4000
4000
4000
4000
4000
ENDCHAR
STARTCHAR 2522
ENCODING 9804
SWIDTH 2000 0
DWIDTH 20 0
BBX 10 20 10 -4
BITMAP
8000
8000
8000
8000
8000
8000
8000
8000
8000
FFC0
8000
8000
8000
8000
8000
8000
8000
8000
8000
8000
ENDCHAR
STARTCHAR 2526
ENCODING 9805
SWIDTH 2000 0
DWIDTH 20 0
BBX 11 20 0 -4
BITMAP
0040
0040
0040
0040
0040
0040
0040
0040
0040
FFC0
0020
0020
0020
0020
0020
0020
0020
0020
0020
0020
ENDCHAR
STARTCHAR 2527
ENCODING 9806
SWIDTH 2000 0
DWIDTH 20 0
BBX 11 20 0 -4
BITMAP
0020
0020
0020
0020
0020
0020
0020
0020
0020
FFE0
0040
0040
0040
0040
0040
0040
0040
0040
0040
0040
ENDCHAR
STARTCHAR 2529
ENCODING 9807
SWIDTH 2000 0
DWIDTH 20 0
BBX 11 20 0 -4
BITMAP
0040
0040
0040
0040
0040
0040
0040
0040
0040
FFC0
0020
0020
0020
0020
0020
0020
0020
0020
0020
0020
ENDCHAR
STARTCHAR 252A
ENCODING 9808
SWIDTH 2000 0
DWIDTH 20 0
BBX 11 20 0 -4
BITMAP
0020
0020
0020
0020
0020
0020
0020
0020
0020
FFE0
0040
0040
0040
0040
0040
0040
0040
0040
0040
0040
ENDCHAR
STARTCHAR 252D
ENCODING 9809
SWIDTH 2000 0
DWIDTH 20 0
BBX 21 11 0 -4
BITMAP
FFFFF8
002000
002000
002000
002000
002000
002000
002000
002000
002000
002000
ENDCHAR
STARTCHAR 252E
ENCODING 9810
SWIDTH 2000 0
DWIDTH 20 0
BBX 21 11 0 -4
BITMAP
FFFFF8
002000
002000
002000
002000
002000
002000
002000
002000
002000
002000
ENDCHAR
STARTCHAR 2531
ENCODING 9811
SWIDTH 2000 0
DWIDTH 20 0
BBX 19 11 0 -4
BITMAP
FFFFE0
004000
004000
004000
004000
004000
004000
004000
004000
004000
004000
ENDCHAR
STARTCHAR 2532
ENCODING 9812
SWIDTH 2000 0
DWIDTH 20 0
BBX 19 11 0 -4
BITMAP
FFFFE0
004000
004000
004000
004000
004000
004000
004000
004000
004000
004000
ENDCHAR
STARTCHAR 2535
ENCODING 9813
SWIDTH 2000 0
DWIDTH 20 0
BBX 21 10 0 6
BITMAP
002000
002000
002000
002000
002000
002000
002000
002000
002000
FFFFF8
ENDCHAR
STARTCHAR 2536
ENCODING 9814
SWIDTH 2000 0
DWIDTH 20 0
BBX 21 10 0 6
BITMAP
002000
002000
002000
002000
002000
002000
002000
002000
002000
FFFFF8
ENDCHAR
STARTCHAR 2539
ENCODING 9815
SWIDTH 2000 0
DWIDTH 20 0
BBX 19 10 0 6
BITMAP
004000
004000
004000
004000
004000
004000
004000
004000
004000
FFFFE0
ENDCHAR
STARTCHAR 253A
ENCODING 9816
SWIDTH 2000 0
DWIDTH 20 0
BBX 19 10 0 6
BITMAP
004000
004000
004000
004000
004000
004000
004000
004000
004000
FFFFE0
ENDCHAR
STARTCHAR 253D
ENCODING 9817
SWIDTH 2000 0
DWIDTH 20 0
BBX 21 20 0 -4
BITMAP
002000
002000
002000
002000
002000
002000
002000
002000
002000
FFFFF8
002000
002000
002000
002000
002000
002000
002000
002000
002000
002000
ENDCHAR
STARTCHAR 253E
ENCODING 9818
SWIDTH 2000 0
DWIDTH 20 0
BBX 21 20 0 -4
BITMAP
002000
002000
002000
002000
002000
002000
002000
002000
002000
FFFFF8
002000
002000
002000
002000
002000
002000
002000
002000
002000
002000
ENDCHAR
STARTCHAR 2540
ENCODING 9819
SWIDTH 2000 0
DWIDTH 20 0
BBX 19 20 0 -4
BITMAP
004000
004000
004000
004000
004000
004000
004000
004000
004000
FFFFE0
002000
002000
002000
002000
002000
002000
002000
002000
002000
002000
ENDCHAR
STARTCHAR 2541
ENCODING 9820
SWIDTH 2000 0
DWIDTH 20 0
BBX 19 20 0 -4
BITMAP
002000
002000
002000
002000
002000
002000
002000
002000
002000
FFFFE0
004000
004000
004000
004000
004000
004000
004000
004000
004000
004000
ENDCHAR
STARTCHAR 2543
ENCODING 9821
SWIDTH 2000 0
DWIDTH 20 0
BBX 19 20 0 -4
BITMAP
004000
004000
004000
004000
004000
004000
004000
004000
004000
FFFFE0
002000
002000
002000
002000
002000
002000
002000
002000
002000
002000
ENDCHAR
STARTCHAR 2544
ENCODING 9822
SWIDTH 2000 0
DWIDTH 20 0
BBX 19 20 0 -4
BITMAP
004000
004000
004000
004000
004000
004000
004000
004000
004000
FFFFE0
002000
002000
002000
002000
002000
002000
002000
002000
002000
002000
ENDCHAR
STARTCHAR 2545
ENCODING 9823
SWIDTH 2000 0
DWIDTH 20 0
BBX 19 20 0 -4
BITMAP
002000
002000
002000
002000
002000
002000
002000
002000
002000
FFFFE0
004000
004000
004000
004000
004000
004000
004000
004000
004000
004000
ENDCHAR
STARTCHAR 2546
ENCODING 9824
SWIDTH 2000 0
DWIDTH 20 0
BBX 19 20 0 -4
BITMAP
002000
002000
002000
002000
002000
002000
002000
002000
002000
FFFFE0
004000
004000
004000
004000
004000
004000
004000
004000
004000
004000
ENDCHAR
STARTCHAR 2547
ENCODING 9825
SWIDTH 2000 0
DWIDTH 20 0
BBX 19 20 0 -4
BITMAP
004000
004000
004000
004000
004000
004000
004000
004000
004000
FFFFE0
002000
002000
002000
002000
002000
002000
002000
002000
002000
002000
ENDCHAR
STARTCHAR 2548
ENCODING 9826
SWIDTH 2000 0
DWIDTH 20 0
BBX 19 20 0 -4
BITMAP
002000
002000
002000
002000
002000
002000
002000
002000
002000
FFFFE0
004000
004000
004000
004000
004000
004000
004000
004000
004000
004000
ENDCHAR
STARTCHAR 2549
ENCODING 9827
SWIDTH 2000 0
DWIDTH 20 0
BBX 19 20 0 -4
BITMAP
004000
004000
004000
004000
004000
004000
004000
004000
004000
FFFFE0
004000
004000
004000
004000
004000
004000
004000
004000
004000
004000
ENDCHAR
STARTCHAR 254A
ENCODING 9828
SWIDTH 2000 0
DWIDTH 20 0
BBX 19 20 0 -4
BITMAP
004000
004000
004000
004000
004000
004000
004000
004000
004000
FFFFE0
004000
004000
004000
004000
004000
004000
004000
004000
004000
004000
ENDCHAR
STARTCHAR 3395
ENCODING 10017
SWIDTH 2000 0
DWIDTH 20 0
BBX 16 17 2 -2
BITMAP
0006
000A
0019
1091
1092
10A2
1122
2122
2124
2224
4229
4231
4261
6412
BC0E
8000
8000
ENDCHAR
STARTCHAR 3396
ENCODING 10018
SWIDTH 2000 0
DWIDTH 20 0
BBX 14 15 3 0
BITMAP
0018
0024
0064
0044
EC44
B484
A488
A488
A490
A490
A4A4
A4C4
A584
A44C
A438
ENDCHAR
STARTCHAR 3397
ENCODING 10019
SWIDTH 2000 0
DWIDTH 20 0
BBX 14 15 2 0
BITMAP
0218
023C
0274
1A64
6664
42C4
42C8
C2C8
C2C8
C2D0
C2E4
42C4
4384
664C
3E38
ENDCHAR
STARTCHAR 2113
ENCODING 10020
SWIDTH 2000 0
DWIDTH 20 0
BBX 7 15 6 0
BITMAP
0C
12
32
22
22
44
44
44
48
48
52
62
C2
24
1C
ENDCHAR
STARTCHAR 3398
ENCODING 10021
SWIDTH 2000 0
DWIDTH 20 0
BBX 14 15 3 0
BITMAP
8018
8024
8064
8044
8448
8888
9088
B088
A090
E090
A0A4
90C4
8984
8C48
8438
ENDCHAR
STARTCHAR 33C4
ENCODING 10022
SWIDTH 2000 0
DWIDTH 20 0
BBX 15 12 3 0
BITMAP
3838
4444
84C4
8282
8080
8080
8080
8080
8282
C6C6
4444
3838
ENDCHAR
STARTCHAR 33A3
ENCODING 10023
SWIDTH 2000 0
DWIDTH 20 0
BBX 16 15 2 0
BITMAP
0002
0005
0002
0001
ADF5
F552
A550
A550
A550
A550
A550
A550
A550
A550
A550
ENDCHAR
STARTCHAR 33A4
ENCODING 10024
SWIDTH 2000 0
DWIDTH 20 0
BBX 16 15 2 0
BITMAP
0003
0001
0003
0001
73B3
4A50
8A50
8A50
8250
8250
8250
8A50
8A50
4A50
7250
ENDCHAR
STARTCHAR 33A5
ENCODING 10025
SWIDTH 2000 0
DWIDTH 20 0
BBX 16 15 2 0
BITMAP
0002
0005
0003
0001
B9E5
C712
8210
8210
8210
8210
8210
8210
8210
8210
8210
ENDCHAR
STARTCHAR 33A6
ENCODING 10026
SWIDTH 2000 0
DWIDTH 20 0
BBX 16 15 2 0
BITMAP
8002
8001
8003
8005
8BB5
9B52
9250
A250
A250
A250
A250
B250
9250
9A50
8A50
ENDCHAR
STARTCHAR 3399
ENCODING 10027
SWIDTH 2000 0
DWIDTH 20 0
BBX 16 15 2 0
BITMAP
0E00
1800
1000
1000
FEBE
10D1
1091
1091
1091
1091
1091
1091
1091
1091
1091
ENDCHAR
STARTCHAR 339A
ENCODING 10028
SWIDTH 2000 0
DWIDTH 20 0
BBX 15 12 2 0
BITMAP
1000
FCEE
8492
8492
8492
8492
8492
8492
8492
8492
8492
8492
ENDCHAR
STARTCHAR 339B
ENCODING 10029
SWIDTH 2000 0
DWIDTH 20 0
BBX 16 12 2 -1
BITMAP
115F
1169
1149
2249
2249
2249
2249
4449
4449
6C49
B449
8000
ENDCHAR
STARTCHAR 339C
ENCODING 10030
SWIDTH 2000 0
DWIDTH 20 0
BBX 15 11 2 0
BITMAP
BE76
D25A
9252
9252
9252
9252
9252
9252
9252
9252
9252
ENDCHAR
STARTCHAR 339D
ENCODING 10031
SWIDTH 2000 0
DWIDTH 20 0
BBX 15 11 2 0
BITMAP
38FE
4C92
8492
8492
8092
8092
8292
8292
8292
4692
3C92
ENDCHAR
STARTCHAR 339E
ENCODING 10032
SWIDTH 2000 0
DWIDTH 20 0
BBX 15 15 2 0
BITMAP
8000
8000
8000
8000
85EC
8D12
8912
9112
A112
A112
9112
9912
8912
8512
8512
ENDCHAR
STARTCHAR 339F
ENCODING 10033
SWIDTH 2000 0
DWIDTH 20 0
BBX 16 15 2 0
BITMAP
0003
0005
0002
0104
FDFB
A548
A548
A548
A548
A548
A548
A548
A548
A548
A548
ENDCHAR
STARTCHAR 33A0
ENCODING 10034
SWIDTH 2000 0
DWIDTH 20 0
BBX 16 15 2 0
BITMAP
0003
0001
0002
0002
72FB
5B48
8A48
8A48
8248
8248
8A48
8A48
8A48
5A48
7248
ENDCHAR
STARTCHAR 33A1
ENCODING 10035
SWIDTH 2000 0
DWIDTH 20 0
BBX 16 15 2 0
BITMAP
0003
0005
0002
0004
B9E7
CE10
8410
8410
8410
8410
8410
8410
8410
8410
8410
ENDCHAR
STARTCHAR 33A2
ENCODING 10036
SWIDTH 2000 0
DWIDTH 20 0
BBX 16 15 2 0
BITMAP
8003
8001
8002
8004
8AFB
9348
9248
A248
A248
C248
A248
A248
9248
9A48
8A48
ENDCHAR
STARTCHAR 33CA
ENCODING 10037
SWIDTH 2000 0
DWIDTH 20 0
BBX 15 15 2 0
BITMAP
8000
8000
8000
8000
BC3C
C662
8242
8202
821E
8222
8242
8282
8282
8246
823A
ENDCHAR
STARTCHAR 338D
ENCODING 10038
SWIDTH 2000 0
DWIDTH 20 0
BBX 16 14 2 -2
BITMAP
0001
113E
1142
2242
2242
223C
2640
4478
4447
4481
6CC1
B47E
8000
8000
ENDCHAR
STARTCHAR 338E
ENCODING 10039
SWIDTH 2000 0
DWIDTH 20 0
BBX 16 12 2 0
BITMAP
0003
F87E
A842
A842
A842
A87C
A840
A87C
A882
A881
A8C3
A87C
ENDCHAR
STARTCHAR 338F
ENCODING 10040
SWIDTH 2000 0
DWIDTH 20 0
BBX 16 15 2 0
BITMAP
8000
8000
8000
8002
863E
8C44
8882
9046
A07C
A080
9078
8886
8C81
8482
827C
ENDCHAR
STARTCHAR 33CF
ENCODING 10041
SWIDTH 2000 0
DWIDTH 20 0
BBX 14 15 3 0
BITMAP
8040
8040
8040
8040
8440
8DFC
8840
9040
A040
E040
A040
9040
8840
8C44
8438
ENDCHAR
STARTCHAR 3388
ENCODING 10042
SWIDTH 2000 0
DWIDTH 20 0
BBX 16 15 2 0
BITMAP
0001
0001
0001
0001
7071
4889
8889
8809
8039
80C9
8109
8909
8909
4919
70E9
ENDCHAR
STARTCHAR 3389
ENCODING 10043
SWIDTH 2000 0
DWIDTH 20 0
BBX 16 15 2 0
BITMAP
8001
8001
8001
8001
8B71
9289
9489
A489
A439
A449
A449
94C9
94C9
92C9
8B39
ENDCHAR
STARTCHAR 33C8
ENCODING 10044
SWIDTH 2000 0
DWIDTH 20 0
BBX 16 15 2 0
BITMAP
027C
0246
0242
0242
3A42
4642
C244
827C
8242
8241
8241
8241
C241
4642
3A7C
ENDCHAR
STARTCHAR 33A7
ENCODING 10045
SWIDTH 2000 0
DWIDTH 20 0
BBX 16 16 2 -2
BITMAP
FF02
8904
8908
8910
8930
8960
00C0
0180
033C
0642
0C40
1838
3007
6001
C041
003E
ENDCHAR
STARTCHAR 33A8
ENCODING 10046
SWIDTH 2000 0
DWIDTH 20 0
BBX 16 17 2 -2
BITMAP
A200
DF02
9104
9108
9110
9120
9143
0081
0182
0373
0688
0C80
1870
300C
6004
C084
0078
ENDCHAR
STARTCHAR 33B0
ENCODING 10047
SWIDTH 2000 0
DWIDTH 20 0
BBX 16 14 2 -3
BITMAP
B83C
C442
8642
8240
8270
820C
8202
8201
8241
C442
B83C
8000
8000
8000
ENDCHAR
STARTCHAR 33B1
ENCODING 10048
SWIDTH 2000 0
DWIDTH 20 0
BBX 16 11 2 0
BITMAP
BE3C
C246
8242
8240
8270
820C
8202
8201
8243
8242
823C
ENDCHAR
STARTCHAR 33B2
ENCODING 10049
SWIDTH 2000 0
DWIDTH 20 0
BBX 16 12 2 -1
BITMAP
113E
2163
2141
2260
2230
420E
4203
4401
4441
CC23
B41E
8000
ENDCHAR
STARTCHAR 33B3
ENCODING 10050
SWIDTH 2000 0
DWIDTH 20 0
BBX 16 11 2 0
BITMAP
F83C
A842
A842
A840
A830
A80C
A802
A801
A841
A842
A83C
ENDCHAR
STARTCHAR 33B4
ENCODING 10051
SWIDTH 2000 0
DWIDTH 20 0
BBX 16 17 2 -2
BITMAP
0081
0082
0082
0042
9042
EC42
C444
8244
8224
8224
8224
8228
8218
C418
B818
8000
8000
ENDCHAR
STARTCHAR 33B5
ENCODING 10052
SWIDTH 2000 0
DWIDTH 20 0
BBX 16 15 2 0
BITMAP
0081
0082
0082
0042
FE42
8242
8244
8264
8224
8224
8224
8228
8218
8218
8218
ENDCHAR
STARTCHAR 33B6
ENCODING 10053
SWIDTH 2000 0
DWIDTH 20 0
BBX 16 17 2 -2
BITMAP
0081
0041
0041
0042
1142
1142
2222
2222
2224
2224
4414
4414
4414
4C18
B418
8000
8000
ENDCHAR
STARTCHAR 33B7
ENCODING 10054
SWIDTH 2000 0
DWIDTH 20 0
BBX 16 15 2 0
BITMAP
0081
0081
00C2
0042
FE42
9242
9244
9224
9224
9224
9224
9228
9218
9218
9218
ENDCHAR
STARTCHAR 33B8
ENCODING 10055
SWIDTH 2000 0
DWIDTH 20 0
BBX 16 15 2 0
BITMAP
8081
8082
8082
8042
8242
8442
8844
9064
A024
A024
9024
8828
8C18
8618
8318
ENDCHAR
STARTCHAR 33B9
ENCODING 10056
SWIDTH 2000 0
DWIDTH 20 0
BBX 16 15 2 0
BITMAP
C681
C681
C642
C642
CA42
CA42
AA42
AA24
AA24
AA24
AA24
B214
B218
B218
9218
ENDCHAR
STARTCHAR 3380
ENCODING 10057
SWIDTH 2000 0
DWIDTH 20 0
BBX 16 17 2 -2
BITMAP
0018
0018
0018
0028
BC24
C424
8224
8224
8244
8242
827E
8242
C442
B882
8081
8000
8000
ENDCHAR
STARTCHAR 3381
ENCODING 10058
SWIDTH 2000 0
DWIDTH 20 0
BBX 16 15 2 0
BITMAP
0018
0018
0018
0028
BE24
C224
8224
8224
8244
8242
827E
8242
8242
8282
8281
ENDCHAR
STARTCHAR 3382
ENCODING 10059
SWIDTH 2000 0
DWIDTH 20 0
BBX 16 17 2 -2
BITMAP
0008
0018
0014
0014
1094
11A4
2124
2122
2122
2322
627E
4242
4241
6641
9A41
8000
8000
ENDCHAR
STARTCHAR 3383
ENCODING 10060
SWIDTH 2000 0
DWIDTH 20 0
BBX 16 15 2 0
BITMAP
0018
0018
0018
0018
BE24
D224
9224
9224
9222
9242
927E
9242
9242
9281
9281
ENDCHAR
STARTCHAR 3384
ENCODING 10061
SWIDTH 2000 0
DWIDTH 20 0
BBX 16 15 2 0
BITMAP
8018
8018
8018
8028
8624
8C24
8824
9024
A044
A042
907E
8842
8C42
8482
8281
ENDCHAR
STARTCHAR 33BA
ENCODING 10062
SWIDTH 2000 0
DWIDTH 20 0
BBX 14 17 3 -2
BITMAP
0334
0334
0354
0354
BB5C
CB5C
874C
854C
854C
854C
858C
8584
C984
B984
8184
8000
8000
ENDCHAR
STARTCHAR 33BB
ENCODING 10063
SWIDTH 2000 0
DWIDTH 20 0
BBX 15 15 2 0
BITMAP
019A
019A
01AA
01AA
FDAE
85AE
85A6
84A6
84A6
84A6
84C6
84C2
84C2
84C2
84C2
ENDCHAR
STARTCHAR 33BC
ENCODING 10064
SWIDTH 2000 0
DWIDTH 20 0
BBX 16 17 2 -2
BITMAP
0199
0199
01A9
01A9
23A9
43AD
43A5
44A5
44A5
44A5
44C5
44C6
44C6
CCC2
B4C2
8000
8000
ENDCHAR
STARTCHAR 33BD
ENCODING 10065
SWIDTH 2000 0
DWIDTH 20 0
BBX 15 15 2 0
BITMAP
019A
019A
01AA
01AA
BFAA
D3AA
93AA
92AA
92AA
92AA
92C6
92C2
92C2
92C2
92C2
ENDCHAR
STARTCHAR 33BE
ENCODING 10066
SWIDTH 2000 0
DWIDTH 20 0
BBX 15 15 2 0
BITMAP
8232
8252
8252
8252
8552
8952
994A
914A
A14A
A1CA
91CC
98CC
888C
848C
8684
ENDCHAR
STARTCHAR 33BF
ENCODING 10067
SWIDTH 2000 0
DWIDTH 20 0
BBX 15 15 2 0
BITMAP
C68A
C69A
C69A
C69A
C65A
C65A
CE5A
AE5C
AA5C
AA7C
AA7C
AA3C
AA3C
9A3C
922C
ENDCHAR
STARTCHAR 3390
ENCODING 10068
SWIDTH 2000 0
DWIDTH 20 0
BBX 16 15 2 0
BITMAP
8200
8200
8200
8200
827E
8202
8204
FE08
8208
8210
8210
8220
8240
8240
827F
ENDCHAR
STARTCHAR 3391
ENCODING 10069
SWIDTH 2000 0
DWIDTH 20 0
BBX 16 15 2 0
BITMAP
8440
8440
8440
8440
945F
9441
A442
A7C2
C444
A444
A444
A448
9448
9450
8C5E
ENDCHAR
STARTCHAR 3392
ENCODING 10070
SWIDTH 2000 0
DWIDTH 20 0
BBX 16 15 2 0
BITMAP
8D20
8D20
9520
9520
952F
9521
D522
D5E2
D522
D524
D524
E524
E528
A528
A52F
ENDCHAR
STARTCHAR 3393
ENCODING 10071
SWIDTH 2000 0
DWIDTH 20 0
BBX 16 16 2 -1
BITMAP
2220
5A20
4A20
8A20
8A2F
8221
8221
83E2
BA22
8A24
8A24
8A24
8A28
4A28
5A2F
2000
ENDCHAR
STARTCHAR 3394
ENCODING 10072
SWIDTH 2000 0
DWIDTH 20 0
BBX 16 15 2 0
BITMAP
FA20
2220
2220
2220
222F
2221
2222
23E2
2222
2224
2224
2228
2228
2228
222F
ENDCHAR
STARTCHAR 2126
ENCODING 10073
SWIDTH 2000 0
DWIDTH 20 0
BBX 12 14 4 0
BITMAP
3F80
60C0
4040
8020
8020
8020
8020
C040
4040
3080
1900
0900
0900
F9F0
ENDCHAR
STARTCHAR 33C0
ENCODING 10074
SWIDTH 2000 0
DWIDTH 20 0
BBX 16 15 2 0
BITMAP
8038
80C4
8082
8103
8501
8901
9901
9101
A082
A082
B044
9028
8828
8428
85EE
ENDCHAR
STARTCHAR 33C1
ENCODING 10075
SWIDTH 2000 0
DWIDTH 20 0
BBX 16 15 2 0
BITMAP
C438
C4C6
CC82
CD03
CD01
CD01
AD01
AD01
AC82
AC82
AC6C
B428
B428
9428
95EE
ENDCHAR
STARTCHAR 338A
ENCODING 10076
SWIDTH 2000 0
DWIDTH 20 0
BBX 16 17 2 -2
BITMAP
007F
0040
0040
0040
9040
EC40
C47F
8240
8240
8240
8240
8240
8640
C440
B840
8000
8000
ENDCHAR
STARTCHAR 338B
ENCODING 10077
SWIDTH 2000 0
DWIDTH 20 0
BBX 16 15 2 0
BITMAP
007F
0040
0040
0040
FE40
8240
827E
8240
8240
8240
8240
8240
8240
8240
8240
ENDCHAR
STARTCHAR 338C
ENCODING 10078
SWIDTH 2000 0
DWIDTH 20 0
BBX 16 17 2 -2
BITMAP
007F
0040
0040
0040
1140
2140
217E
2240
2240
2240
4240
4440
4440
4440
BC40
8000
8000
ENDCHAR
STARTCHAR 33D6
ENCODING 10079
SWIDTH 2000 0
DWIDTH 20 0
BBX 16 15 2 0
BITMAP
0001
0001
0001
0001
FE71
9251
9289
9289
9289
9289
9289
9289
9289
9251
9271
ENDCHAR
STARTCHAR 33C5
ENCODING 10080
SWIDTH 2000 0
DWIDTH 20 0
BBX 16 15 2 0
BITMAP
0001
0001
0001
0001
381F
4423
C221
8261
8041
8041
8041
8221
8221
4433
3C1D
ENDCHAR
STARTCHAR 33AD
ENCODING 10081
SWIDTH 2000 0
DWIDTH 20 0
BBX 14 15 3 0
BITMAP
0004
0004
0004
0004
B71C
C4A4
88A4
80A4
83A4
84A4
88A4
88A4
88A4
88A4
879C
ENDCHAR
STARTCHAR 33AE
ENCODING 10082
SWIDTH 2000 0
DWIDTH 20 0
BBX 16 17 2 -2
BITMAP
0010
0010
0010
AE70
CA90
8690
9A90
9291
8D76
0018
003E
00C9
0108
0606
0809
300B
4004
ENDCHAR
STARTCHAR 33AF
ENCODING 10083
SWIDTH 2000 0
DWIDTH 20 0
BBX 18 17 1 -2
BITMAP
001000
001000
001000
EE7000
8A9000
869000
9A9080
929300
8D7580
000880
0031C0
004E00
018800
020400
0C0200
100A00
200400
ENDCHAR
STARTCHAR 33DB
ENCODING 10084
SWIDTH 2000 0
DWIDTH 20 0
BBX 14 11 3 0
BITMAP
7C5C
C660
8240
C040
6040
1C40
0640
0240
8240
C640
3C40
ENDCHAR
STARTCHAR 33A9
ENCODING 10085
SWIDTH 2000 0
DWIDTH 20 0
BBX 15 15 2 0
BITMAP
FC00
8600
8300
8100
813C
8142
8242
8602
F81E
8062
80C2
8082
8082
8046
807A
ENDCHAR
STARTCHAR 33AA
ENCODING 10086
SWIDTH 2000 0
DWIDTH 20 0
BBX 15 15 2 0
BITMAP
8380
8240
8240
8240
8A4C
9252
9252
A242
A386
A20A
A212
9212
9212
8A12
8A0E
ENDCHAR
STARTCHAR 33AB
ENCODING 10087
SWIDTH 2000 0
DWIDTH 20 0
BBX 16 15 2 0
BITMAP
85C0
8520
8D20
8D20
CD27
CD39
CD31
CD21
CDC7
D509
B509
B509
B509
B509
B507
ENDCHAR
STARTCHAR 33AC
ENCODING 10088
SWIDTH 2000 0
DWIDTH 20 0
BBX 16 16 2 -1
BITMAP
01C0
7120
4920
8920
893E
8131
8121
8121
B9C3
8905
8909
8909
8909
8909
5907
2805
ENDCHAR
STARTCHAR 33DD
ENCODING 10089
SWIDTH 2000 0
DWIDTH 20 0
BBX 16 15 2 0
BITMAP
C940
C940
C940
D940
D95C
DE62
DE41
5E41
5E41
5E41
5E41
6E41
6E42
6E62
6C7C
ENDCHAR
STARTCHAR 33D0
ENCODING 10090
SWIDTH 2000 0
DWIDTH 20 0
BBX 13 15 3 0
BITMAP
8000
8000
8000
8000
8BB0
8CC8
8888
8888
8888
8888
8888
8888
8888
8888
8888
ENDCHAR
STARTCHAR 33D3
ENCODING 10091
SWIDTH 2000 0
DWIDTH 20 0
BBX 12 15 4 0
BITMAP
8000
8000
8000
8000
8820
8420
8240
8240
8180
8080
8180
8240
8240
8420
8410
ENDCHAR
STARTCHAR 33C3
ENCODING 10092
SWIDTH 2000 0
DWIDTH 20 0
BBX 14 17 3 -2
BITMAP
F800
8C00
8400
8400
8474
848C
8904
F904
8504
8304
8304
8384
82CC
8474
F804
0004
0004
ENDCHAR
STARTCHAR 33C9
ENCODING 10093
SWIDTH 2000 0
DWIDTH 20 0
BBX 16 18 2 -3
BITMAP
3C00
4200
4100
8100
8141
8042
8042
8022
8724
8124
8124
8118
C118
4318
3D18
0010
0070
0060
ENDCHAR
STARTCHAR 33DC
ENCODING 10094
SWIDTH 2000 0
DWIDTH 20 0
BBX 16 15 2 0
BITMAP
3C00
4200
4100
4100
4041
4022
2022
1C22
0222
0114
0114
8114
4114
4308
3C08
ENDCHAR
STARTCHAR 33C6
ENCODING 10095
SWIDTH 2000 0
DWIDTH 20 0
BBX 16 16 2 -2
BITMAP
F200
9200
8400
8400
8400
9A00
6A00
0A00
125E
1296
2296
229C
225C
4223
4031
401E
ENDCHAR
STARTCHAR 00C6
ENCODING 10273
SWIDTH 2000 0
DWIDTH 20 0
BBX 15 13 2 0
BITMAP
03FE
0300
0500
0500
0900
0900
11FE
1100
3F00
4100
4100
8100
81FE
ENDCHAR
STARTCHAR 00D0
ENCODING 10274
SWIDTH 2000 0
DWIDTH 20 0
BBX 13 13 3 0
BITMAP
1FC0
1030
1010
1008
1008
1008
FE08
1008
1008
1008
1010
1070
1FC0
ENDCHAR
STARTCHAR 00AA
ENCODING 10275
SWIDTH 2000 0
DWIDTH 20 0
BBX 8 13 6 0
BITMAP
3C
46
82
02
1E
62
82
82
86
7B
00
00
FF
ENDCHAR
STARTCHAR 0126
ENCODING 10276
SWIDTH 2000 0
DWIDTH 20 0
BBX 14 13 3 0
BITMAP
2020
2020
FFFC
2020
2020
2020
3FE0
2020
2020
2020
2020
2020
2020
ENDCHAR
STARTCHAR 0132
ENCODING 10278
SWIDTH 2000 0
DWIDTH 20 0
BBX 9 13 5 0
BITMAP
8080
8080
8080
8080
8080
8080
8080
8080
9080
9080
9080
9900
8F00
ENDCHAR
STARTCHAR 013F
ENCODING 10280
SWIDTH 2000 0
DWIDTH 20 0
BBX 8 13 6 0
BITMAP
80
80
80
80
80
84
84
80
80
80
80
80
FF
ENDCHAR
STARTCHAR 0141
ENCODING 10281
SWIDTH 2000 0
DWIDTH 20 0
BBX 11 13 4 0
BITMAP
1000
1200
1200
1400
1800
1000
1000
3000
5000
5000
9000
1000
1FE0
ENDCHAR
STARTCHAR 00D8
ENCODING 10282
SWIDTH 2000 0
DWIDTH 20 0
BBX 13 15 3 -1
BITMAP
0008
0FD0
1060
2060
2070
6090
4110
4210
4410
6810
2830
3020
3840
4F80
8000
ENDCHAR
STARTCHAR 0152
ENCODING 10283
SWIDTH 2000 0
DWIDTH 20 0
BBX 15 13 2 0
BITMAP
3FFE
6100
4100
8100
8100
8100
81FE
8100
8100
C100
4100
6100
3FFE
ENDCHAR
STARTCHAR 00BA
ENCODING 10284
SWIDTH 2000 0
DWIDTH 20 0
BBX 8 13 6 0
BITMAP
3C
66
C3
81
81
81
81
81
42
3C
00
00
FF
ENDCHAR
STARTCHAR 00DE
ENCODING 10285
SWIDTH 2000 0
DWIDTH 20 0
BBX 8 13 6 0
BITMAP
80
80
80
FC
82
81
81
81
83
FE
80
80
80
ENDCHAR
STARTCHAR 0166
ENCODING 10286
SWIDTH 2000 0
DWIDTH 20 0
BBX 9 12 5 0
BITMAP
FF80
0800
0800
0800
0800
0800
7F00
0800
0800
0800
0800
0800
ENDCHAR
STARTCHAR 014A
ENCODING 10287
SWIDTH 2000 0
DWIDTH 20 0
BBX 8 14 6 0
BITMAP
9C
F6
C1
81
81
81
81
81
81
81
81
81
81
8E
ENDCHAR
STARTCHAR 3260
ENCODING 10289
SWIDTH 2000 0
DWIDTH 20 0
BBX 16 17 2 -3
BITMAP
07E0
1818
300C
6006
5FF2
C013
8011
8011
8011
8011
8021
C023
4002
6006
300C
1818
07E0
ENDCHAR
STARTCHAR 3261
ENCODING 10290
SWIDTH 2000 0
DWIDTH 20 0
BBX 16 17 2 -3
BITMAP
07E0
1818
300C
6006
5002
D003
9001
9001
9001
9001
9001
DFF3
4002
6006
300C
1818
07E0
ENDCHAR
STARTCHAR 3262
ENCODING 10291
SWIDTH 2000 0
DWIDTH 20 0
BBX 16 17 2 -3
BITMAP
07E0
1818
300C
6006
5FF2
D003
9001
9001
9001
9001
9001
DFF3
4002
6006
300C
1818
07E0
ENDCHAR
STARTCHAR 3263
ENCODING 10292
SWIDTH 2000 0
DWIDTH 20 0
BBX 16 17 2 -3
BITMAP
07E0
1818
300C
6006
5FF2
C013
8011
8FF1
8801
8801
8801
CFFB
4002
6006
300C
1818
07E0
ENDCHAR
STARTCHAR 3264
ENCODING 10293
SWIDTH 2000 0
DWIDTH 20 0
BBX 16 17 2 -3
BITMAP
07E0
1818
300C
6006
5FF2
D013
9011
9011
9011
9011
9011
DFF3
4002
6006
300C
1818
07E0
ENDCHAR
STARTCHAR 3265
ENCODING 10294
SWIDTH 2000 0
DWIDTH 20 0
BBX 16 17 2 -3
BITMAP
07E0
1818
300C
6006
4002
D013
9011
9FF1
9011
9011
9011
DFF3
4002
6006
300C
1818
07E0
ENDCHAR
STARTCHAR 3266
ENCODING 10295
SWIDTH 2000 0
DWIDTH 20 0
BBX 16 17 2 -3
BITMAP
07E0
1818
300C
6106
4102
C103
8101
8281
8281
8441
8831
F01B
4002
6006
300C
1818
07E0
ENDCHAR
STARTCHAR 3267
ENCODING 10296
SWIDTH 2000 0
DWIDTH 20 0
BBX 16 17 2 -3
BITMAP
07E0
1818
300C
67C6
4C62
D823
9011
9011
9011
9011
8821
CC63
47C2
6006
300C
1818
07E0
ENDCHAR
STARTCHAR 3268
ENCODING 10297
SWIDTH 2000 0
DWIDTH 20 0
BBX 16 17 2 -3
BITMAP
07E0
1818
300C
6006
5FFA
C103
8181
8181
8241
8461
9831
F00B
4002
6006
300C
1818
07E0
ENDCHAR
STARTCHAR 3269
ENCODING 10298
SWIDTH 2000 0
DWIDTH 20 0
BBX 16 17 2 -3
BITMAP
07E0
1818
300C
67E6
4002
DFFB
8101
8181
8241
8461
9819
F00B
4002
6006
300C
1818
07E0
ENDCHAR
STARTCHAR 326A
ENCODING 10299
SWIDTH 2000 0
DWIDTH 20 0
BBX 16 17 2 -3
BITMAP
07E0
1818
300C
6006
5FF2
C013
8011
8051
9F91
8011
8021
C023
4002
6006
300C
1818
07E0
ENDCHAR
STARTCHAR 326B
ENCODING 10300
SWIDTH 2000 0
DWIDTH 20 0
BBX 16 17 2 -3
BITMAP
07E0
1818
300C
6006
5FF2
D003
9001
9001
9FE1
9001
9001
DFF3
4002
6006
300C
1818
07E0
ENDCHAR
STARTCHAR 326C
ENCODING 10301
SWIDTH 2000 0
DWIDTH 20 0
BBX 16 17 2 -3
BITMAP
07E0
1818
300C
6006
5FF2
C003
8421
8421
8421
8441
8441
DFFB
4002
6006
300C
1818
07E0
ENDCHAR
STARTCHAR 326D
ENCODING 10302
SWIDTH 2000 0
DWIDTH 20 0
BBX 16 17 2 -3
BITMAP
07E0
1818
300C
67C6
4002
FFFB
8001
83C1
8421
8811
8811
C813
4422
63C6
300C
1818
07E0
ENDCHAR
STARTCHAR 326E
ENCODING 10303
SWIDTH 2000 0
DWIDTH 20 0
BBX 16 17 2 -3
BITMAP
07E0
1818
302C
6026
5F22
C123
8121
8221
823D
8421
8821
F023
4022
6026
300C
1818
07E0
ENDCHAR
STARTCHAR 326F
ENCODING 10304
SWIDTH 2000 0
DWIDTH 20 0
BBX 16 17 2 -3
BITMAP
07E0
1818
302C
6026
5022
D023
9021
9021
903D
9021
91A1
CE23
4022
6026
300C
1818
07E0
ENDCHAR
STARTCHAR 3270
ENCODING 10305
SWIDTH 2000 0
DWIDTH 20 0
BBX 16 17 2 -3
BITMAP
07E0
1818
302C
6026
5FA2
D023
9021
9021
903D
9021
90A1
DF23
4022
6026
300C
1818
07E0
ENDCHAR
STARTCHAR 3271
ENCODING 10306
SWIDTH 2000 0
DWIDTH 20 0
BBX 16 17 2 -3
BITMAP
07E0
1818
302C
6026
5F22
C123
8121
9F21
903D
9021
9021
DFA3
4022
6026
300C
1818
07E0
ENDCHAR
STARTCHAR 3272
ENCODING 10307
SWIDTH 2000 0
DWIDTH 20 0
BBX 16 17 2 -3
BITMAP
07E0
1818
302C
6026
5F22
D123
9121
9121
913D
9121
9121
DF23
4022
6026
300C
1818
07E0
ENDCHAR
STARTCHAR 3273
ENCODING 10308
SWIDTH 2000 0
DWIDTH 20 0
BBX 16 17 2 -3
BITMAP
07E0
1818
302C
6026
5122
D123
9121
9F21
913D
9121
9121
DF23
4022
6026
300C
1818
07E0
ENDCHAR
STARTCHAR 3274
ENCODING 10309
SWIDTH 2000 0
DWIDTH 20 0
BBX 16 17 2 -3
BITMAP
07E0
1818
302C
6426
4422
C423
8421
8421
8A3D
9B21
B1A1
E0A3
4022
6026
300C
1818
07E0
ENDCHAR
STARTCHAR 3275
ENCODING 10310
SWIDTH 2000 0
DWIDTH 20 0
BBX 16 17 2 -3
BITMAP
07E0
1818
302C
6026
4E22
DB23
9121
9121
913D
9121
9B21
CE23
4022
6026
300C
1818
07E0
ENDCHAR
STARTCHAR 3276
ENCODING 10311
SWIDTH 2000 0
DWIDTH 20 0
BBX 16 17 2 -3
BITMAP
07E0
1818
302C
6026
7FA2
C423
8421
8421
8A3D
8A21
9121
E0A3
4022
6026
300C
1818
07E0
ENDCHAR
STARTCHAR 3277
ENCODING 10312
SWIDTH 2000 0
DWIDTH 20 0
BBX 16 17 2 -3
BITMAP
07E0
1818
302C
6F26
4022
FFA3
8421
8421
843D
8A21
9B21
F1A3
4022
6026
300C
1818
07E0
ENDCHAR
STARTCHAR 3278
ENCODING 10313
SWIDTH 2000 0
DWIDTH 20 0
BBX 16 17 2 -3
BITMAP
07E0
1818
302C
6026
5F22
C123
8121
9F21
813D
8221
8621
CC23
5822
6026
300C
1818
07E0
ENDCHAR
STARTCHAR 3279
ENCODING 10314
SWIDTH 2000 0
DWIDTH 20 0
BBX 16 17 2 -3
BITMAP
07E0
1818
302C
6026
5FA2
D023
9021
9F21
903D
9021
90A1
DFA3
4022
6026
300C
1818
07E0
ENDCHAR
STARTCHAR 327A
ENCODING 10315
SWIDTH 2000 0
DWIDTH 20 0
BBX 16 17 2 -3
BITMAP
07E0
1818
302C
6026
7FA2
C023
8921
8921
893D
8921
8FE1
F823
4022
6026
300C
1818
07E0
ENDCHAR
STARTCHAR 327B
ENCODING 10316
SWIDTH 2000 0
DWIDTH 20 0
BBX 16 17 2 -3
BITMAP
07E0
1818
302C
6F26
4022
FFA3
8021
8021
8E3D
9121
9121
D123
4E22
6026
300C
1818
07E0
ENDCHAR
STARTCHAR 24D0
ENCODING 10317
SWIDTH 2000 0
DWIDTH 20 0
BBX 16 17 2 -3
BITMAP
07E0
1818
300C
6006
43C2
C623
8421
8061
87A1
8421
8421
C6E3
4392
6006
300C
1818
07E0
ENDCHAR
STARTCHAR 24D1
ENCODING 10318
SWIDTH 2000 0
DWIDTH 20 0
BBX 16 17 2 -3
BITMAP
07E0
1818
380C
6806
4802
CB83
8C41
8821
8821
8821
8821
C823
4C42
6B86
300C
1818
07E0
ENDCHAR
STARTCHAR 24D2
ENCODING 10319
SWIDTH 2000 0
DWIDTH 20 0
BBX 16 17 2 -3
BITMAP
07E0
1818
300C
6006
4782
C443
8841
8801
8801
8841
8441
C783
4002
6006
300C
1818
07E0
ENDCHAR
STARTCHAR 24D3
ENCODING 10320
SWIDTH 2000 0
DWIDTH 20 0
BBX 16 17 2 -3
BITMAP
07E0
1818
302C
6026
4022
C3A3
8461
8821
8821
8821
8821
C823
4462
63A6
300C
1818
07E0
ENDCHAR
STARTCHAR 24D4
ENCODING 10321
SWIDTH 2000 0
DWIDTH 20 0
BBX 16 17 2 -3
BITMAP
07E0
1818
300C
6006
4382
C443
8841
8821
8FE1
8801
8821
C443
4382
6006
300C
1818
07E0
ENDCHAR
STARTCHAR 24D5
ENCODING 10322
SWIDTH 2000 0
DWIDTH 20 0
BBX 16 17 2 -3
BITMAP
07E0
1818
31CC
6106
4102
C7C3
8101
8101
8101
8101
8101
C103
4102
6106
300C
1818
07E0
ENDCHAR
STARTCHAR 24D6
ENCODING 10323
SWIDTH 2000 0
DWIDTH 20 0
BBX 16 17 2 -3
BITMAP
07E0
1818
33AC
6266
4422
C423
8421
8421
8421
8661
83A1
C423
4442
6786
300C
1818
07E0
ENDCHAR
STARTCHAR 24D7
ENCODING 10324
SWIDTH 2000 0
DWIDTH 20 0
BBX 16 17 2 -3
BITMAP
07E0
1818
340C
6406
4402
C5C3
8661
8421
8421
8421
8421
C423
4422
6426
300C
1818
07E0
ENDCHAR
STARTCHAR 24D8
ENCODING 10325
SWIDTH 2000 0
DWIDTH 20 0
BBX 16 17 2 -3
BITMAP
07E0
1818
310C
6106
4002
C103
8101
8101
8101
8101
8101
C103
4102
6106
300C
1818
07E0
ENDCHAR
STARTCHAR 24D9
ENCODING 10326
SWIDTH 2000 0
DWIDTH 20 0
BBX 16 17 2 -3
BITMAP
07E0
1918
310C
6006
4102
C103
8101
8101
8101
8101
8101
C103
4102
6106
370C
1818
07E0
ENDCHAR
STARTCHAR 24DA
ENCODING 10327
SWIDTH 2000 0
DWIDTH 20 0
BBX 16 17 2 -3
BITMAP
07E0
1818
340C
6406
4402
C403
84C1
8501
8701
8481
8481
C443
4442
6426
300C
1818
07E0
ENDCHAR
STARTCHAR 24DB
ENCODING 10328
SWIDTH 2000 0
DWIDTH 20 0
BBX 16 17 2 -3
BITMAP
07E0
1818
310C
6106
4102
C103
8101
8101
8101
8101
8101
C103
4102
6106
300C
1818
07E0
ENDCHAR
STARTCHAR 24DC
ENCODING 10329
SWIDTH 2000 0
DWIDTH 20 0
BBX 16 17 2 -3
BITMAP
07E0
1818
300C
7006
5F7A
D18B
9109
9109
9109
9109
9109
D10B
4002
6006
300C
1818
07E0
ENDCHAR
STARTCHAR 24DD
ENCODING 10330
SWIDTH 2000 0
DWIDTH 20 0
BBX 16 17 2 -3
BITMAP
07E0
1818
300C
6006
47C2
C623
8421
8421
8421
8421
8421
C423
4422
6006
300C
1818
07E0
ENDCHAR
STARTCHAR 24DE
ENCODING 10331
SWIDTH 2000 0
DWIDTH 20 0
BBX 16 17 2 -3
BITMAP
07E0
1818
300C
6006
4382
C443
8821
8821
8821
8821
8441
C383
4002
6006
300C
1818
07E0
ENDCHAR
STARTCHAR 24DF
ENCODING 10332
SWIDTH 2000 0
DWIDTH 20 0
BBX 16 17 2 -3
BITMAP
07E0
1818
300C
6B86
4C42
C823
8821
8821
8821
8C41
8B81
C803
4802
6806
300C
1818
07E0
ENDCHAR
STARTCHAR 24E0
ENCODING 10333
SWIDTH 2000 0
DWIDTH 20 0
BBX 16 17 2 -3
BITMAP
07E0
1818
33AC
6466
4822
C823
8821
8821
8821
8461
83A1
C023
4022
6026
300C
1818
07E0
ENDCHAR
STARTCHAR 24E1
ENCODING 10334
SWIDTH 2000 0
DWIDTH 20 0
BBX 16 17 2 -3
BITMAP
07E0
1818
300C
6006
42C2
C303
8201
8201
8201
8201
8201
C203
4202
6006
300C
1818
07E0
ENDCHAR
STARTCHAR 24E2
ENCODING 10335
SWIDTH 2000 0
DWIDTH 20 0
BBX 16 17 2 -3
BITMAP
07E0
1818
300C
63C6
4442
C403
8601
81C1
8061
8421
8461
C3C3
4002
6006
300C
1818
07E0
ENDCHAR
STARTCHAR 24E3
ENCODING 10336
SWIDTH 2000 0
DWIDTH 20 0
BBX 16 17 2 -3
BITMAP
07E0
1818
310C
6106
4102
C7C3
8101
8101
8101
8101
8101
C103
41C2
6006
300C
1818
07E0
ENDCHAR
STARTCHAR 24E4
ENCODING 10337
SWIDTH 2000 0
DWIDTH 20 0
BBX 16 17 2 -3
BITMAP
07E0
1818
300C
6006
4422
C423
8421
8421
8421
8421
8421
C663
43A2
6006
300C
1818
07E0
ENDCHAR
STARTCHAR 24E5
ENCODING 10338
SWIDTH 2000 0
DWIDTH 20 0
BBX 16 17 2 -3
BITMAP
07E0
1818
300C
6006
4422
C423
8441
8241
8241
8281
8281
C183
4102
6006
300C
1818
07E0
ENDCHAR
STARTCHAR 24E6
ENCODING 10339
SWIDTH 2000 0
DWIDTH 20 0
BBX 16 17 2 -3
BITMAP
07E0
1818
300C
6006
510A
D18B
9191
9291
8A91
8A51
8E61
C463
4462
6406
300C
1818
07E0
ENDCHAR
STARTCHAR 24E7
ENCODING 10340
SWIDTH 2000 0
DWIDTH 20 0
BBX 16 17 2 -3
BITMAP
07E0
1818
300C
6026
4442
C243
8281
8181
8181
8281
8641
C463
4022
6006
300C
1818
07E0
ENDCHAR
STARTCHAR 24E8
ENCODING 10341
SWIDTH 2000 0
DWIDTH 20 0
BBX 16 17 2 -3
BITMAP
07E0
1818
300C
6426
4442
C443
8241
8281
8281
8181
8181
C103
4102
6606
300C
1818
07E0
ENDCHAR
STARTCHAR 24E9
ENCODING 10342
SWIDTH 2000 0
DWIDTH 20 0
BBX 16 17 2 -3
BITMAP
07E0
1818
300C
6006
4FE2
C043
8081
8081
8101
8201
8401
CFE3
4002
6006
300C
1818
07E0
ENDCHAR
STARTCHAR 2460
ENCODING 10343
SWIDTH 2000 0
DWIDTH 20 0
BBX 16 17 2 -3
BITMAP
07E0
1818
308C
6086
4082
C783
8081
8081
8081
8081
8081
C083
4082
6086
300C
1818
07E0
ENDCHAR
STARTCHAR 2461
ENCODING 10344
SWIDTH 2000 0
DWIDTH 20 0
BBX 16 17 2 -3
BITMAP
07E0
1818
33CC
6666
4422
C423
8421
8061
80C1
8181
8201
C403
4402
6FE6
300C
1818
07E0
ENDCHAR
STARTCHAR 2462
ENCODING 10345
SWIDTH 2000 0
DWIDTH 20 0
BBX 16 17 2 -3
BITMAP
07E0
1818
33CC
6466
4822
C823
8061
81C1
8021
8021
8821
C823
4442
6386
300C
1818
07E0
ENDCHAR
STARTCHAR 2463
ENCODING 10346
SWIDTH 2000 0
DWIDTH 20 0
BBX 16 17 2 -3
BITMAP
07E0
1818
308C
6186
4182
C283
8281
8481
8881
8881
9FE1
C083
4082
6086
300C
1818
07E0
ENDCHAR
STARTCHAR 2464
ENCODING 10347
SWIDTH 2000 0
DWIDTH 20 0
BBX 16 17 2 -3
BITMAP
07E0
1818
37EC
6406
4402
C403
8781
8441
8021
8021
8021
C823
4442
6386
300C
1818
07E0
ENDCHAR
STARTCHAR 2465
ENCODING 10348
SWIDTH 2000 0
DWIDTH 20 0
BBX 16 17 2 -3
BITMAP
07E0
1818
338C
6446
4442
C803
8801
8BC1
8C61
8821
8821
C823
4462
63C6
300C
1818
07E0
ENDCHAR
STARTCHAR 2466
ENCODING 10349
SWIDTH 2000 0
DWIDTH 20 0
BBX 16 17 2 -3
BITMAP
07E0
1818
3FFC
6026
4042
C043
8081
8081
8101
8101
8101
C203
4202
6206
300C
1818
07E0
ENDCHAR
STARTCHAR 2467
ENCODING 10350
SWIDTH 2000 0
DWIDTH 20 0
BBX 16 17 2 -3
BITMAP
07E0
1818
33CC
6666
4422
C423
8661
83C1
8461
8821
8821
C823
4C62
63C6
300C
1818
07E0
ENDCHAR
STARTCHAR 2468
ENCODING 10351
SWIDTH 2000 0
DWIDTH 20 0
BBX 16 17 2 -3
BITMAP
07E0
1818
338C
6246
4422
C423
8421
8421
8661
83A1
8021
C843
4442
6786
300C
1818
07E0
ENDCHAR
STARTCHAR 2469
ENCODING 10352
SWIDTH 2000 0
DWIDTH 20 0
BBX 16 17 2 -3
BITMAP
07E0
1818
300C
6876
4852
F88B
8889
8889
8889
8889
8889
C853
4872
6006
300C
1818
07E0
ENDCHAR
STARTCHAR 246A
ENCODING 10353
SWIDTH 2000 0
DWIDTH 20 0
BBX 16 17 2 -3
BITMAP
07E0
1818
300C
6816
4812
F8F3
8811
8811
8811
8811
8811
C813
4812
6006
300C
1818
07E0
ENDCHAR
STARTCHAR 246B
ENCODING 10354
SWIDTH 2000 0
DWIDTH 20 0
BBX 16 17 2 -3
BITMAP
07E0
1818
300C
6806
48F2
F88B
8889
8809
8811
8821
8841
C883
49FA
6006
300C
1818
07E0
ENDCHAR
STARTCHAR 246C
ENCODING 10355
SWIDTH 2000 0
DWIDTH 20 0
BBX 16 17 2 -3
BITMAP
07E0
1818
300C
6876
489A
F88B
8811
8861
8819
8809
8909
C98B
48F2
6006
300C
1818
07E0
ENDCHAR
STARTCHAR 246D
ENCODING 10356
SWIDTH 2000 0
DWIDTH 20 0
BBX 16 17 2 -3
BITMAP
07E0
1818
300C
6816
4832
F833
8851
8891
8891
89FD
8811
C813
4802
6006
300C
1818
07E0
ENDCHAR
STARTCHAR 246E
ENCODING 10357
SWIDTH 2000 0
DWIDTH 20 0
BBX 16 17 2 -3
BITMAP
07E0
1818
300C
68FE
4882
F883
88F1
8899
8809
8809
8889
C8F3
4802
6006
300C
1818
07E0
ENDCHAR
STARTCHAR 00BD
ENCODING 10358
SWIDTH 2000 0
DWIDTH 20 0
BBX 13 14 3 0
BITMAP
2040
2040
E080
2080
2100
2120
22D8
2288
2488
2418
0830
0840
1080
10F8
ENDCHAR
STARTCHAR 2153
ENCODING 10359
SWIDTH 2000 0
DWIDTH 20 0
BBX 14 13 3 0
BITMAP
2040
E080
E080
2100
2130
2278
2248
2408
2430
0808
0884
10CC
1078
ENDCHAR
STARTCHAR 2154
ENCODING 10360
SWIDTH 2000 0
DWIDTH 20 0
BBX 14 13 3 0
BITMAP
7040
8840
8880
1880
3130
4178
8248
FA08
0430
0408
0884
08CC
1078
ENDCHAR
STARTCHAR 00BC
ENCODING 10361
SWIDTH 2000 0
DWIDTH 20 0
BBX 13 14 3 0
BITMAP
2040
2040
E080
2080
2110
2130
2230
2250
2490
2490
0910
0BF8
1010
1010
ENDCHAR
STARTCHAR 00BE
ENCODING 10362
SWIDTH 2000 0
DWIDTH 20 0
BBX 14 14 3 0
BITMAP
3020
7840
8840
0880
3090
0930
8D30
CA50
7A90
0490
0510
0BFC
0810
1010
ENDCHAR
STARTCHAR 215B
ENCODING 10363
SWIDTH 2000 0
DWIDTH 20 0
BBX 14 13 3 0
BITMAP
2040
E080
E080
2100
2100
2278
2244
2448
2430
0848
0844
1044
1078
ENDCHAR
STARTCHAR 215C
ENCODING 10364
SWIDTH 2000 0
DWIDTH 20 0
BBX 14 13 3 0
BITMAP
F840
8840
0880
3080
1900
8978
8A44
FA48
0430
0448
0844
0844
1078
ENDCHAR
STARTCHAR 215D
ENCODING 10365
SWIDTH 2000 0
DWIDTH 20 0
BBX 14 13 3 0
BITMAP
F840
8040
B080
D880
0900
8978
8A44
F248
0430
0448
0844
0844
1078
ENDCHAR
STARTCHAR 215E
ENCODING 10366
SWIDTH 2000 0
DWIDTH 20 0
BBX 14 13 3 0
BITMAP
FC40
0880
0880
1100
1100
2278
2244
2448
0430
0848
0844
1044
1078
ENDCHAR
STARTCHAR 00E6
ENCODING 10529
SWIDTH 2000 0
DWIDTH 20 0
BBX 13 10 3 0
BITMAP
7CF0
4718
8208
0208
3FF8
4200
8200
8208
8508
78F0
ENDCHAR
STARTCHAR 0111
ENCODING 10530
SWIDTH 2000 0
DWIDTH 20 0
BBX 10 13 5 0
BITMAP
0100
1FC0
0100
3900
6700
C300
8100
8100
8100
8100
C300
4300
3D00
ENDCHAR
STARTCHAR 00F0
ENCODING 10531
SWIDTH 2000 0
DWIDTH 20 0
BBX 7 14 6 0
BITMAP
44
28
30
68
04
04
3E
46
82
82
82
82
44
38
ENDCHAR
STARTCHAR 0127
ENCODING 10532
SWIDTH 2000 0
DWIDTH 20 0
BBX 9 13 5 0
BITMAP
2000
FE00
7C00
2000
2700
3980
2080
2080
2080
2080
2080
2080
2080
ENDCHAR
STARTCHAR 0131
ENCODING 10533
SWIDTH 2000 0
DWIDTH 20 0
BBX 1 9 9 0
BITMAP
80
80
80
80
80
80
80
80
80
ENDCHAR
STARTCHAR 0133
ENCODING 10534
SWIDTH 2000 0
DWIDTH 20 0
BBX 6 15 7 -2
BITMAP
84
00
00
00
84
84
84
84
84
84
84
84
84
04
1C
ENDCHAR
STARTCHAR 0138
ENCODING 10535
SWIDTH 2000 0
DWIDTH 20 0
BBX 7 9 6 0
BITMAP
84
88
B0
F0
98
88
84
84
82
ENDCHAR
STARTCHAR 0140
ENCODING 10536
SWIDTH 2000 0
DWIDTH 20 0
BBX 5 13 8 0
BITMAP
80
80
80
80
80
88
88
88
80
80
80
80
80
ENDCHAR
STARTCHAR 0142
ENCODING 10537
SWIDTH 2000 0
DWIDTH 20 0
BBX 7 13 6 0
BITMAP
10
10
12
14
18
18
10
30
50
90
90
10
10
ENDCHAR
STARTCHAR 00F8
ENCODING 10538
SWIDTH 2000 0
DWIDTH 20 0
BBX 10 10 5 0
BITMAP
1F40
2080
4140
4240
4440
4840
5040
6080
6080
9F00
ENDCHAR
STARTCHAR 0153
ENCODING 10539
SWIDTH 2000 0
DWIDTH 20 0
BBX 15 10 3 0
BITMAP
3878
668C
C304
8206
8106
81FE
8100
8306
4284
3C78
ENDCHAR
STARTCHAR 00DF
ENCODING 10540
SWIDTH 2000 0
DWIDTH 20 0
BBX 8 14 6 0
BITMAP
38
66
C2
82
82
84
9C
82
81
81
81
81
82
9C
ENDCHAR
STARTCHAR 00FE
ENCODING 10541
SWIDTH 2000 0
DWIDTH 20 0
BBX 8 15 6 -2
BITMAP
80
80
80
9C
E6
C3
81
81
81
81
83
C2
BC
80
80
ENDCHAR
STARTCHAR 0167
ENCODING 10542
SWIDTH 2000 0
DWIDTH 20 0
BBX 5 13 7 0
BITMAP
20
20
20
F8
78
20
F8
20
20
20
20
20
38
ENDCHAR
STARTCHAR 014B
ENCODING 10543
SWIDTH 2000 0
DWIDTH 20 0
BBX 7 13 6 -3
BITMAP
9C
E6
82
82
82
82
82
82
82
82
02
0E
0C
ENDCHAR
STARTCHAR 0149
ENCODING 10544
SWIDTH 2000 0
DWIDTH 20 0
BBX 11 11 4 0
BITMAP
6000
49C0
CE60
8820
0820
0820
0820
0820
0820
0820
0820
ENDCHAR
STARTCHAR 3200
ENCODING 10545
SWIDTH 2000 0
DWIDTH 20 0
BBX 16 16 2 -2
BITMAP
1008
2004
4002
4002
9FF1
8011
8011
8011
8011
8011
8021
8022
4002
4002
2004
1008
ENDCHAR
STARTCHAR 3201
ENCODING 10546
SWIDTH 2000 0
DWIDTH 20 0
BBX 16 16 2 -2
BITMAP
1008
2004
4002
4002
9001
9001
9001
9001
9001
9001
9001
9FF2
4002
4002
2004
1008
ENDCHAR
STARTCHAR 3202
ENCODING 10547
SWIDTH 2000 0
DWIDTH 20 0
BBX 16 16 2 -2
BITMAP
1008
2004
4002
4002
9FF1
9001
9001
9001
9001
9001
9001
5FF2
4002
6002
2004
1008
ENDCHAR
STARTCHAR 3203
ENCODING 10548
SWIDTH 2000 0
DWIDTH 20 0
BBX 16 16 2 -2
BITMAP
1008
2004
4006
4002
9FF2
8011
8011
8011
8FF1
8801
8801
8FFA
4002
4002
2004
1008
ENDCHAR
STARTCHAR 3204
ENCODING 10549
SWIDTH 2000 0
DWIDTH 20 0
BBX 16 16 2 -2
BITMAP
1008
2004
4002
4002
9FF1
9011
9011
9011
9011
9011
9011
9FF2
4002
4002
2004
1008
ENDCHAR
STARTCHAR 3205
ENCODING 10550
SWIDTH 2000 0
DWIDTH 20 0
BBX 16 16 2 -2
BITMAP
1008
2004
4002
4002
9011
9011
9011
9FF1
9011
9011
9011
9FF2
4002
4002
2004
1008
ENDCHAR
STARTCHAR 3206
ENCODING 10551
SWIDTH 2000 0
DWIDTH 20 0
BBX 16 16 2 -2
BITMAP
1008
2004
4002
4102
8101
8101
8101
8101
8281
86C1
8C61
B01A
4002
4002
2004
1008
ENDCHAR
STARTCHAR 3207
ENCODING 10552
SWIDTH 2000 0
DWIDTH 20 0
BBX 16 16 2 -2
BITMAP
1008
2004
4002
47C2
8C61
9821
9011
9011
9011
9011
8821
8C62
47C2
4002
2004
1008
ENDCHAR
STARTCHAR 3208
ENCODING 10553
SWIDTH 2000 0
DWIDTH 20 0
BBX 16 16 2 -2
BITMAP
1008
2004
4002
4002
9FF9
8101
8101
8281
8281
8441
9831
B01A
4002
4002
2004
1008
ENDCHAR
STARTCHAR 3209
ENCODING 10554
SWIDTH 2000 0
DWIDTH 20 0
BBX 16 16 2 -2
BITMAP
1008
2004
4002
47E2
8001
9FF9
8101
8181
8281
8641
8C31
900A
4002
4002
2004
1008
ENDCHAR
STARTCHAR 320A
ENCODING 10555
SWIDTH 2000 0
DWIDTH 20 0
BBX 16 16 2 -2
BITMAP
1008
2004
4002
4002
9FF1
8011
8011
80D1
9F11
8011
8021
8022
4002
4002
2004
1008
ENDCHAR
STARTCHAR 320B
ENCODING 10556
SWIDTH 2000 0
DWIDTH 20 0
BBX 16 16 2 -2
BITMAP
1008
2004
4002
4002
9FF1
9001
9001
9FF1
9001
9001
9001
9FF2
4002
4002
2004
1008
ENDCHAR
STARTCHAR 320C
ENCODING 10557
SWIDTH 2000 0
DWIDTH 20 0
BBX 16 16 2 -2
BITMAP
1008
2004
4002
4002
9FF1
8001
8421
8421
8441
8441
8441
9FFA
4002
4002
2004
1008
ENDCHAR
STARTCHAR 320D
ENCODING 10558
SWIDTH 2000 0
DWIDTH 20 0
BBX 16 16 2 -2
BITMAP
1008
2004
4002
47C2
8001
9FF9
8001
83C1
8421
8821
8821
8422
43C2
4002
2004
1008
ENDCHAR
STARTCHAR 320E
ENCODING 10559
SWIDTH 2000 0
DWIDTH 20 0
BBX 16 16 2 -2
BITMAP
1008
2004
4022
4022
9F22
8121
8121
8221
823D
8421
8821
7021
4022
4022
2004
1008
ENDCHAR
STARTCHAR 320F
ENCODING 10560
SWIDTH 2000 0
DWIDTH 20 0
BBX 16 16 2 -2
BITMAP
1008
2004
4022
4022
9022
9021
9021
9021
903D
9021
99A1
5E21
4022
4022
2004
1008
ENDCHAR
STARTCHAR 3210
ENCODING 10561
SWIDTH 2000 0
DWIDTH 20 0
BBX 16 16 2 -2
BITMAP
1008
2004
4022
4022
9FA2
9021
9021
9021
903D
9021
9FA1
9821
4022
4022
2004
1008
ENDCHAR
STARTCHAR 3211
ENCODING 10562
SWIDTH 2000 0
DWIDTH 20 0
BBX 16 16 2 -2
BITMAP
1008
2004
4022
4022
9F21
8121
8121
9F21
903D
9021
9021
9FA2
4022
4022
2004
1008
ENDCHAR
STARTCHAR 3212
ENCODING 10563
SWIDTH 2000 0
DWIDTH 20 0
BBX 16 16 2 -2
BITMAP
1008
2004
4022
4022
9F22
9121
9121
9121
913D
9121
9121
5F21
4022
4022
2004
1008
ENDCHAR
STARTCHAR 3213
ENCODING 10564
SWIDTH 2000 0
DWIDTH 20 0
BBX 16 16 2 -2
BITMAP
1008
2004
4022
4022
9122
9121
9121
9F21
913D
9121
9121
9F21
4022
4022
2004
1008
ENDCHAR
STARTCHAR 3214
ENCODING 10565
SWIDTH 2000 0
DWIDTH 20 0
BBX 16 16 2 -2
BITMAP
1008
2004
4022
4022
8422
8421
8421
8421
8A3D
8A21
9121
71A1
4022
4022
2004
1008
ENDCHAR
STARTCHAR 3215
ENCODING 10566
SWIDTH 2000 0
DWIDTH 20 0
BBX 16 16 2 -2
BITMAP
1008
2004
4022
4022
8E22
9B21
9121
9121
913D
9121
9B21
8E21
4022
4022
2004
1008
ENDCHAR
STARTCHAR 3216
ENCODING 10567
SWIDTH 2000 0
DWIDTH 20 0
BBX 16 16 2 -2
BITMAP
1008
2004
4022
4022
BF22
8421
8421
8421
8A3D
8A21
9121
61A1
4022
4022
2004
1008
ENDCHAR
STARTCHAR 3217
ENCODING 10568
SWIDTH 2000 0
DWIDTH 20 0
BBX 16 16 2 -2
BITMAP
1008
2004
4022
4F22
8022
8021
9FA1
8421
863D
8621
8B21
91A1
40A2
4022
2004
1008
ENDCHAR
STARTCHAR 3218
ENCODING 10569
SWIDTH 2000 0
DWIDTH 20 0
BBX 16 16 2 -2
BITMAP
1008
2004
4022
4022
9F22
8121
8121
BF21
813D
8221
8421
8821
5022
4022
2004
1008
ENDCHAR
STARTCHAR 3219
ENCODING 10570
SWIDTH 2000 0
DWIDTH 20 0
BBX 16 16 2 -2
BITMAP
1008
2004
4022
4022
9FA2
9021
9021
9F21
903D
9021
90A1
9FA1
4022
4022
2004
1008
ENDCHAR
STARTCHAR 321A
ENCODING 10571
SWIDTH 2000 0
DWIDTH 20 0
BBX 16 16 2 -2
BITMAP
1008
2004
4022
4022
BFA2
8021
8921
8921
893D
8921
8FE1
B821
4022
4022
2004
1008
ENDCHAR
STARTCHAR 321B
ENCODING 10572
SWIDTH 2000 0
DWIDTH 20 0
BBX 16 16 2 -2
BITMAP
1008
2004
4022
4F22
8022
BFA1
8021
8021
8E3D
9121
9121
9121
4E22
4022
2004
1008
ENDCHAR
STARTCHAR 249C
ENCODING 10573
SWIDTH 2000 0
DWIDTH 20 0
BBX 16 16 2 -2
BITMAP
1008
2004
4002
4002
83C1
8621
8421
8061
87A1
8421
8421
86E2
4392
4002
2004
1008
ENDCHAR
STARTCHAR 249D
ENCODING 10574
SWIDTH 2000 0
DWIDTH 20 0
BBX 16 16 2 -2
BITMAP
1008
2004
4402
4402
8401
85C1
8621
8411
8411
8411
8411
8412
4622
45C2
2004
1008
ENDCHAR
STARTCHAR 249E
ENCODING 10575
SWIDTH 2000 0
DWIDTH 20 0
BBX 16 16 2 -2
BITMAP
1008
2004
4002
4002
8781
8441
8841
8801
8801
8841
8441
8782
4002
4002
2004
1008
ENDCHAR
STARTCHAR 249F
ENCODING 10576
SWIDTH 2000 0
DWIDTH 20 0
BBX 16 16 2 -2
BITMAP
1008
2004
4022
4022
8021
83A1
8461
8821
8821
8821
8821
8822
4462
43A2
2004
1008
ENDCHAR
STARTCHAR 24A0
ENCODING 10577
SWIDTH 2000 0
DWIDTH 20 0
BBX 16 16 2 -2
BITMAP
1008
2004
4002
4002
8381
8441
8841
8821
8FE1
8801
8821
8462
43C2
4002
2004
1008
ENDCHAR
STARTCHAR 24A1
ENCODING 10578
SWIDTH 2000 0
DWIDTH 20 0
BBX 16 16 2 -2
BITMAP
1008
2004
41C2
4102
8101
87C1
8101
8101
8101
8101
8101
8102
4102
4102
2004
1008
ENDCHAR
STARTCHAR 24A2
ENCODING 10579
SWIDTH 2000 0
DWIDTH 20 0
BBX 16 16 2 -2
BITMAP
1008
2004
43A2
4262
8421
8421
8421
8421
8421
8661
83A1
8422
4442
4782
2004
1008
ENDCHAR
STARTCHAR 24A3
ENCODING 10580
SWIDTH 2000 0
DWIDTH 20 0
BBX 16 16 2 -2
BITMAP
1008
2004
4402
4402
8401
85C1
8661
8421
8421
8421
8421
8422
4422
4422
2004
1008
ENDCHAR
STARTCHAR 24A4
ENCODING 10581
SWIDTH 2000 0
DWIDTH 20 0
BBX 16 16 2 -2
BITMAP
1008
2004
4102
4102
8001
8101
8101
8101
8101
8101
8101
8102
4102
4102
2004
1008
ENDCHAR
STARTCHAR 24A5
ENCODING 10582
SWIDTH 2000 0
DWIDTH 20 0
BBX 16 16 2 -2
BITMAP
1008
2104
4102
4002
8101
8101
8101
8101
8101
8101
8101
8102
4102
4102
2704
1008
ENDCHAR
STARTCHAR 24A6
ENCODING 10583
SWIDTH 2000 0
DWIDTH 20 0
BBX 16 16 2 -2
BITMAP
1008
2004
4402
4402
8401
8421
84C1
8581
8701
8681
8481
8442
4442
4422
2004
1008
ENDCHAR
STARTCHAR 24A7
ENCODING 10584
SWIDTH 2000 0
DWIDTH 20 0
BBX 16 16 2 -2
BITMAP
1008
2004
4102
4102
8101
8101
8101
8101
8101
8101
8101
8102
4102
4102
2004
1008
ENDCHAR
STARTCHAR 24A8
ENCODING 10585
SWIDTH 2000 0
DWIDTH 20 0
BBX 16 16 2 -2
BITMAP
1008
2004
4002
5002
9F79
9189
9109
9109
9109
9109
9109
910A
4002
4002
2004
1008
ENDCHAR
STARTCHAR 24A9
ENCODING 10586
SWIDTH 2000 0
DWIDTH 20 0
BBX 16 16 2 -2
BITMAP
1008
2004
4002
4002
87C1
8661
8421
8421
8421
8421
8421
8422
4422
4002
2004
1008
ENDCHAR
STARTCHAR 24AA
ENCODING 10587
SWIDTH 2000 0
DWIDTH 20 0
BBX 16 16 2 -2
BITMAP
1008
2004
4002
4002
8381
8441
8821
8821
8821
8821
8441
8382
4002
4002
2004
1008
ENDCHAR
STARTCHAR 24AB
ENCODING 10588
SWIDTH 2000 0
DWIDTH 20 0
BBX 16 16 2 -2
BITMAP
1008
2004
4002
45C2
8621
8411
8411
8411
8411
8621
85C1
8402
4402
4402
2004
1008
ENDCHAR
STARTCHAR 24AC
ENCODING 10589
SWIDTH 2000 0
DWIDTH 20 0
BBX 16 16 2 -2
BITMAP
1008
2004
43A2
4462
8821
8821
8821
8821
8821
8461
83A1
8022
4022
4022
2004
1008
ENDCHAR
STARTCHAR 24AD
ENCODING 10590
SWIDTH 2000 0
DWIDTH 20 0
BBX 16 16 2 -2
BITMAP
1008
2004
4002
4002
82C1
8381
8301
8201
8201
8201
8201
8202
4202
4002
2004
1008
ENDCHAR
STARTCHAR 24AE
ENCODING 10591
SWIDTH 2000 0
DWIDTH 20 0
BBX 16 16 2 -2
BITMAP
1008
2004
4002
43C2
8441
8401
8601
81C1
8061
8421
8461
83C2
4002
4002
2004
1008
ENDCHAR
STARTCHAR 24AF
ENCODING 10592
SWIDTH 2000 0
DWIDTH 20 0
BBX 16 16 2 -2
BITMAP
1008
2004
4102
4102
8101
87C1
8101
8101
8101
8101
8101
8102
41C2
4002
2004
1008
ENDCHAR
STARTCHAR 24B0
ENCODING 10593
SWIDTH 2000 0
DWIDTH 20 0
BBX 16 16 2 -2
BITMAP
1008
2004
4002
4002
8421
8421
8421
8421
8421
8421
8421
8662
43A2
4002
2004
1008
ENDCHAR
STARTCHAR 24B1
ENCODING 10594
SWIDTH 2000 0
DWIDTH 20 0
BBX 16 16 2 -2
BITMAP
1008
2004
4002
4002
8421
8421
8441
8241
8241
8281
8281
8182
4102
4002
2004
1008
ENDCHAR
STARTCHAR 24B2
ENCODING 10595
SWIDTH 2000 0
DWIDTH 20 0
BBX 16 16 2 -2
BITMAP
1008
2004
4002
4002
9109
9189
9191
9291
8A91
8A51
8E61
8462
4462
4402
2004
1008
ENDCHAR
STARTCHAR 24B3
ENCODING 10596
SWIDTH 2000 0
DWIDTH 20 0
BBX 16 16 2 -2
BITMAP
1008
2004
4002
4002
8441
8441
8281
8101
8101
8281
8241
8442
4822
4002
2004
1008
ENDCHAR
STARTCHAR 24B4
ENCODING 10597
SWIDTH 2000 0
DWIDTH 20 0
BBX 16 16 2 -2
BITMAP
1008
2004
4002
4422
8441
8441
8241
8241
8281
8181
8181
8102
4102
4702
2004
1008
ENDCHAR
STARTCHAR 24B5
ENCODING 10598
SWIDTH 2000 0
DWIDTH 20 0
BBX 16 16 2 -2
BITMAP
1008
2004
4002
4002
8FE1
8041
8081
8081
8101
8201
8401
8FE2
4002
4002
2004
1008
ENDCHAR
STARTCHAR 2474
ENCODING 10599
SWIDTH 2000 0
DWIDTH 20 0
BBX 16 16 2 -2
BITMAP
1008
2004
4082
4082
8081
8781
8081
8081
8081
8081
8081
8082
4082
4082
2004
1008
ENDCHAR
STARTCHAR 2475
ENCODING 10600
SWIDTH 2000 0
DWIDTH 20 0
BBX 16 16 2 -2
BITMAP
1008
2004
43C2
4262
8421
8421
8421
8061
80C1
8181
8201
8402
4402
4FE2
2004
1008
ENDCHAR
STARTCHAR 2476
ENCODING 10601
SWIDTH 2000 0
DWIDTH 20 0
BBX 16 16 2 -2
BITMAP
1008
2004
43C2
4662
8421
8421
8061
81C1
8021
8021
8821
8822
4442
4382
2004
1008
ENDCHAR
STARTCHAR 2477
ENCODING 10602
SWIDTH 2000 0
DWIDTH 20 0
BBX 16 16 2 -2
BITMAP
1008
2004
4082
4182
8181
8281
8281
8481
8881
8881
9FE1
8082
4082
4082
2004
1008
ENDCHAR
STARTCHAR 2478
ENCODING 10603
SWIDTH 2000 0
DWIDTH 20 0
BBX 16 16 2 -2
BITMAP
1008
2004
47E2
4402
8401
8401
87C1
8441
8021
8021
8021
8822
4442
4382
2004
1008
ENDCHAR
STARTCHAR 2479
ENCODING 10604
SWIDTH 2000 0
DWIDTH 20 0
BBX 16 16 2 -2
BITMAP
1008
2004
4382
4442
8441
8801
8801
8BC1
8C61
8C21
8821
8C22
4442
43C2
2004
1008
ENDCHAR
STARTCHAR 247A
ENCODING 10605
SWIDTH 2000 0
DWIDTH 20 0
BBX 16 16 2 -2
BITMAP
1008
2004
4002
4FF2
8021
8041
8041
8081
8081
8101
8101
8102
4202
4202
2004
1008
ENDCHAR
STARTCHAR 247B
ENCODING 10606
SWIDTH 2000 0
DWIDTH 20 0
BBX 16 16 2 -2
BITMAP
1008
2004
43C2
4662
8421
8421
8661
83C1
8461
8821
8821
8822
4C62
4382
2004
1008
ENDCHAR
STARTCHAR 247C
ENCODING 10607
SWIDTH 2000 0
DWIDTH 20 0
BBX 16 16 2 -2
BITMAP
1008
2004
4382
4242
8421
8421
8421
8421
8261
83A1
8021
8842
4442
4782
2004
1008
ENDCHAR
STARTCHAR 247D
ENCODING 10608
SWIDTH 2000 0
DWIDTH 20 0
BBX 16 16 2 -2
BITMAP
1008
2004
4872
48DA
B889
8889
8889
8889
8889
8889
8889
888A
488A
4852
2824
1008
ENDCHAR
STARTCHAR 247E
ENCODING 10609
SWIDTH 2000 0
DWIDTH 20 0
BBX 16 16 2 -2
BITMAP
1008
2004
4822
4822
B8E1
8821
8821
8821
8821
8821
8821
8822
4822
4822
2824
1008
ENDCHAR
STARTCHAR 247F
ENCODING 10610
SWIDTH 2000 0
DWIDTH 20 0
BBX 16 16 2 -2
BITMAP
1008
2004
48E2
4892
B991
8911
8831
8821
8841
8881
8881
8902
4902
4902
29F4
1008
ENDCHAR
STARTCHAR 2480
ENCODING 10611
SWIDTH 2000 0
DWIDTH 20 0
BBX 16 16 2 -2
BITMAP
1008
2004
48F2
4892
B891
8811
8821
8861
8811
8809
8889
888A
488A
48D2
2864
1008
ENDCHAR
STARTCHAR 2481
ENCODING 10612
SWIDTH 2000 0
DWIDTH 20 0
BBX 16 16 2 -2
BITMAP
1008
2004
4812
4832
B831
8851
8851
8851
8891
8891
8891
89FA
4812
4812
2814
1008
ENDCHAR
STARTCHAR 2482
ENCODING 10613
SWIDTH 2000 0
DWIDTH 20 0
BBX 16 16 2 -2
BITMAP
1008
2004
48F2
4882
B881
8881
88B1
88D1
8889
8889
8809
880A
488A
4894
2874
1008
ENDCHAR
STARTCHAR 00B9
ENCODING 10614
SWIDTH 2000 0
DWIDTH 20 0
BBX 3 9 8 6
BITMAP
20
20
E0
20
20
20
20
20
20
ENDCHAR
STARTCHAR 00B2
ENCODING 10615
SWIDTH 2000 0
DWIDTH 20 0
BBX 5 8 7 7
BITMAP
70
88
88
18
30
40
80
F8
ENDCHAR
STARTCHAR 00B3
ENCODING 10616
SWIDTH 2000 0
DWIDTH 20 0
BBX 5 9 7 6
BITMAP
70
88
88
18
30
08
88
88
70
ENDCHAR
STARTCHAR 2074
ENCODING 10617
SWIDTH 2000 0
DWIDTH 20 0
BBX 7 8 7 7
BITMAP
18
18
28
48
48
FE
08
08
ENDCHAR
STARTCHAR 207F
ENCODING 10618
SWIDTH 2000 0
DWIDTH 20 0
BBX 5 6 7 8
BITMAP
F8
88
88
88
88
88
ENDCHAR
STARTCHAR 2081
ENCODING 10619
SWIDTH 2000 0
DWIDTH 20 0
BBX 3 8 8 -2
BITMAP
20
20
E0
20
20
20
20
20
ENDCHAR
STARTCHAR 2082
ENCODING 10620
SWIDTH 2000 0
DWIDTH 20 0
BBX 5 8 7 -2
BITMAP
78
88
88
18
30
40
80
F8
ENDCHAR
STARTCHAR 2083
ENCODING 10621
SWIDTH 2000 0
DWIDTH 20 0
BBX 5 8 7 -2
BITMAP
70
88
08
30
18
88
88
70
ENDCHAR
STARTCHAR 2084
ENCODING 10622
SWIDTH 2000 0
DWIDTH 20 0
BBX 7 8 7 -2
BITMAP
18
18
28
68
48
FE
08
08
ENDCHAR
STARTCHAR 3041
ENCODING 10785
SWIDTH 2000 0
DWIDTH 20 0
BBX 9 10 5 -2
BITMAP
1200
7C00
1200
1E00
3580
5480
9880
9080
B080
4300
ENDCHAR
STARTCHAR 3042
ENCODING 10786
SWIDTH 2000 0
DWIDTH 20 0
BBX 13 15 3 -2
BITMAP
0800
0980
FE00
0800
0880
0BC0
1D20
3910
4908
CA08
8C08
8408
8810
F420
00C0
ENDCHAR
STARTCHAR 3043
ENCODING 10787
SWIDTH 2000 0
DWIDTH 20 0
BBX 10 9 5 -2
BITMAP
8000
8000
8100
8080
8080
8040
4800
5000
2000
ENDCHAR
STARTCHAR 3044
ENCODING 10788
SWIDTH 2000 0
DWIDTH 20 0
BBX 14 12 3 0
BITMAP
8000
8020
8030
8010
8008
8008
8004
4004
4204
4400
2400
3800
ENDCHAR
STARTCHAR 3045
ENCODING 10789
SWIDTH 2000 0
DWIDTH 20 0
BBX 7 12 6 -2
BITMAP
20
18
04
18
64
82
02
02
04
04
08
10
ENDCHAR
STARTCHAR 3046
ENCODING 10790
SWIDTH 2000 0
DWIDTH 20 0
BBX 8 16 5 -2
BITMAP
20
1C
02
00
0C
72
C1
01
01
01
01
01
02
02
04
18
ENDCHAR
STARTCHAR 3047
ENCODING 10791
SWIDTH 2000 0
DWIDTH 20 0
BBX 9 11 6 -2
BITMAP
1000
0C00
0000
1C00
E800
1000
1000
2800
4800
8800
8780
ENDCHAR
STARTCHAR 3048
ENCODING 10792
SWIDTH 2000 0
DWIDTH 20 0
BBX 12 14 4 -1
BITMAP
0E00
0180
0000
0100
3F00
4200
0600
0400
0800
1E00
1200
2100
4100
81F0
ENDCHAR
STARTCHAR 3049
ENCODING 10793
SWIDTH 2000 0
DWIDTH 20 0
BBX 10 11 5 -2
BITMAP
1000
1100
1480
7840
1000
1F80
3080
5080
9080
5080
3300
ENDCHAR
STARTCHAR 304A
ENCODING 10794
SWIDTH 2000 0
DWIDTH 20 0
BBX 13 15 4 -1
BITMAP
1000
1000
1040
1630
F818
1008
1000
17C0
1820
3010
7010
D010
D030
D060
71C0
ENDCHAR
STARTCHAR 304B
ENCODING 10795
SWIDTH 2000 0
DWIDTH 20 0
BBX 14 14 3 -1
BITMAP
0800
0800
0820
0F10
FD88
108C
1084
1084
2080
2080
4100
4100
8300
0E00
ENDCHAR
STARTCHAR 304C
ENCODING 10796
SWIDTH 2000 0
DWIDTH 20 0
BBX 15 15 3 -1
BITMAP
0004
0812
0808
0820
0F10
FD88
108C
1084
1084
2080
2080
4100
4100
8300
0E00
ENDCHAR
STARTCHAR 304D
ENCODING 10797
SWIDTH 2000 0
DWIDTH 20 0
BBX 9 16 5 -1
BITMAP
1000
1000
0B00
1C00
E400
0580
0E00
F200
0300
0100
7F80
8080
8000
8000
C000
3E00
ENDCHAR
STARTCHAR 304E
ENCODING 10798
SWIDTH 2000 0
DWIDTH 20 0
BBX 12 16 5 -1
BITMAP
1000
1010
0B40
1C20
E400
0580
0E00
F200
0300
0100
7F80
8080
8000
8000
C000
3E00
ENDCHAR
STARTCHAR 304F
ENCODING 10799
SWIDTH 2000 0
DWIDTH 20 0
BBX 5 16 7 -2
BITMAP
08
08
10
20
60
40
80
80
80
C0
40
20
30
10
08
08
ENDCHAR
STARTCHAR 3050
ENCODING 10800
SWIDTH 2000 0
DWIDTH 20 0
BBX 10 16 6 -2
BITMAP
0400
0C00
0880
1040
2100
2080
4000
8000
C000
4000
2000
1000
1000
0800
0C00
0400
ENDCHAR
STARTCHAR 3051
ENCODING 10801
SWIDTH 2000 0
DWIDTH 20 0
BBX 13 16 4 -2
BITMAP
0040
4040
4040
8058
8FE0
8040
8040
8040
8040
8040
A040
C0C0
C080
4080
4100
0200
ENDCHAR
STARTCHAR 3052
ENCODING 10802
SWIDTH 2000 0
DWIDTH 20 0
BBX 14 17 4 -2
BITMAP
0008
0054
4050
4048
8058
8FE0
8040
8040
8040
8040
8040
A040
C0C0
C080
4080
4100
0200
ENDCHAR
STARTCHAR 3053
ENCODING 10803
SWIDTH 2000 0
DWIDTH 20 0
BBX 11 13 4 0
BITMAP
4000
3F80
0000
0000
0000
0000
0000
0000
0000
0000
C000
7060
0FC0
ENDCHAR
STARTCHAR 3054
ENCODING 10804
SWIDTH 2000 0
DWIDTH 20 0
BBX 14 13 4 0
BITMAP
4000
3F80
0008
0014
0000
0000
0000
0000
0000
0000
C000
7060
0FC0
ENDCHAR
STARTCHAR 3055
ENCODING 10805
SWIDTH 2000 0
DWIDTH 20 0
BBX 10 14 5 -1
BITMAP
0800
0840
0780
FC00
0200
0200
0100
3D80
C380
80C0
8000
8000
C000
3F00
ENDCHAR
STARTCHAR 3056
ENCODING 10806
SWIDTH 2000 0
DWIDTH 20 0
BBX 13 15 5 -1
BITMAP
0808
0820
0CC0
0F00
F600
0200
0100
0100
7E80
81C0
8040
8000
8000
4000
3E00
ENDCHAR
STARTCHAR 3057
ENCODING 10807
SWIDTH 2000 0
DWIDTH 20 0
BBX 10 15 5 -1
BITMAP
4000
8000
8000
8000
8000
8000
8000
8000
8000
8000
8040
8040
8080
4100
7E00
ENDCHAR
STARTCHAR 3058
ENCODING 10808
SWIDTH 2000 0
DWIDTH 20 0
BBX 10 15 5 -1
BITMAP
4000
8100
8280
8140
8000
8000
8000
8000
8000
8000
8040
8040
8080
4100
7E00
ENDCHAR
STARTCHAR 3059
ENCODING 10809
SWIDTH 2000 0
DWIDTH 20 0
BBX 15 16 2 -2
BITMAP
0080
0080
0080
FFFE
0080
0080
0780
0880
0880
0880
0D80
0780
0080
0100
0300
0600
ENDCHAR
STARTCHAR 305A
ENCODING 10810
SWIDTH 2000 0
DWIDTH 20 0
BBX 15 17 2 -2
BITMAP
0006
0088
0084
0080
FFFE
0080
0080
0780
0880
0880
0880
0D80
0780
0080
0100
0300
0600
ENDCHAR
STARTCHAR 305B
ENCODING 10811
SWIDTH 2000 0
DWIDTH 20 0
BBX 15 14 2 -1
BITMAP
0820
0820
0820
0820
1FFE
E820
0820
0820
0840
09C0
0800
0800
0C00
07F8
ENDCHAR
STARTCHAR 305C
ENCODING 10812
SWIDTH 2000 0
DWIDTH 20 0
BBX 16 15 2 -1
BITMAP
0002
0821
0824
0822
0820
3FFE
E820
0820
0820
0840
09C0
0800
0800
0C00
07F8
ENDCHAR
STARTCHAR 305D
ENCODING 10813
SWIDTH 2000 0
DWIDTH 20 0
BBX 13 15 3 -2
BITMAP
1040
08C0
0880
0100
0100
07F8
7C80
C100
0200
0400
0400
0400
0600
0300
00E0
ENDCHAR
STARTCHAR 305E
ENCODING 10814
SWIDTH 2000 0
DWIDTH 20 0
BBX 15 15 3 -2
BITMAP
1044
08CA
0C88
0100
0100
07F8
7C80
C100
0200
0400
0400
0400
0600
0300
00E0
ENDCHAR
STARTCHAR 305F
ENCODING 10815
SWIDTH 2000 0
DWIDTH 20 0
BBX 13 15 4 -1
BITMAP
1000
1000
1000
1000
FE00
D000
13F0
2000
2000
2000
2000
4000
4000
C700
80F8
ENDCHAR
STARTCHAR 3060
ENCODING 10816
SWIDTH 2000 0
DWIDTH 20 0
BBX 14 15 4 -1
BITMAP
1000
1008
1024
1010
FE00
D000
13F0
2000
2000
2000
2000
4000
4000
C700
80F0
ENDCHAR
STARTCHAR 3061
ENCODING 10817
SWIDTH 2000 0
DWIDTH 20 0
BBX 12 15 4 -1
BITMAP
1000
1000
1080
FF00
1000
1000
1000
13E0
2C30
3010
2010
0010
0010
0020
0FC0
ENDCHAR
STARTCHAR 3062
ENCODING 10818
SWIDTH 2000 0
DWIDTH 20 0
BBX 13 15 4 -1
BITMAP
1000
1010
10A8
FF10
1000
1000
1000
13E0
2C30
3010
2010
0010
0010
0020
0FC0
ENDCHAR
STARTCHAR 3063
ENCODING 10819
SWIDTH 2000 0
DWIDTH 20 0
BBX 8 8 6 -2
BITMAP
1E
E1
01
01
01
01
02
1C
ENDCHAR
STARTCHAR 3064
ENCODING 10820
SWIDTH 2000 0
DWIDTH 20 0
BBX 13 11 3 0
BITMAP
0FE0
7030
8008
0008
0008
0008
0008
0018
0030
0060
0780
ENDCHAR
STARTCHAR 3065
ENCODING 10821
SWIDTH 2000 0
DWIDTH 20 0
BBX 15 14 3 0
BITMAP
0004
0012
0008
0FE4
F010
8008
0008
0008
0008
0008
0018
0030
00E0
0700
ENDCHAR
STARTCHAR 3066
ENCODING 10822
SWIDTH 2000 0
DWIDTH 20 0
BBX 13 14 3 -1
BITMAP
00F8
3FC0
E100
0100
0200
0200
0400
0400
0400
0400
0200
0200
0100
00F0
ENDCHAR
STARTCHAR 3067
ENCODING 10823
SWIDTH 2000 0
DWIDTH 20 0
BBX 15 14 3 -1
BITMAP
00F8
3FC0
E100
0304
0212
0208
0400
0400
0400
0400
0200
0200
0100
00F0
ENDCHAR
STARTCHAR 3068
ENCODING 10824
SWIDTH 2000 0
DWIDTH 20 0
BBX 9 14 5 -1
BITMAP
2000
2000
2080
1380
1600
1800
3000
4000
8000
8000
8000
8000
4000
3F80
ENDCHAR
STARTCHAR 3069
ENCODING 10825
SWIDTH 2000 0
DWIDTH 20 0
BBX 12 15 5 -1
BITMAP
0020
2050
2020
2080
1380
1600
1800
2000
4000
8000
8000
8000
8000
4080
3F80
ENDCHAR
STARTCHAR 306A
ENCODING 10826
SWIDTH 2000 0
DWIDTH 20 0
BBX 13 16 3 -2
BITMAP
0800
0800
0800
FE10
1008
1088
1080
2080
2080
4080
8080
0380
0CE0
0890
0880
0700
ENDCHAR
STARTCHAR 306B
ENCODING 10827
SWIDTH 2000 0
DWIDTH 20 0
BBX 13 13 4 -1
BITMAP
4000
47F0
4000
8000
8000
8000
8000
8000
A000
C400
C7B8
4040
4000
ENDCHAR
STARTCHAR 306C
ENCODING 10828
SWIDTH 2000 0
DWIDTH 20 0
BBX 14 14 3 -1
BITMAP
0200
0200
4380
4FE0
3210
2208
6208
5408
9408
8808
9DF8
9118
6134
00C0
ENDCHAR
STARTCHAR 306D
ENCODING 10829
SWIDTH 2000 0
DWIDTH 20 0
BBX 15 16 3 -2
BITMAP
1000
1000
1000
1800
39F0
D218
1408
1808
3008
3008
5008
F1F8
B11C
3132
20C0
2000
ENDCHAR
STARTCHAR 306E
ENCODING 10830
SWIDTH 2000 0
DWIDTH 20 0
BBX 14 13 3 -1
BITMAP
07C0
1930
2308
420C
8204
8204
8404
8404
8C08
8808
5810
3060
0040
ENDCHAR
STARTCHAR 306F
ENCODING 10831
SWIDTH 2000 0
DWIDTH 20 0
BBX 14 16 3 -2
BITMAP
0040
4040
4040
4044
87F8
8020
8020
8020
8020
8020
81E0
A3F8
C42C
C220
41C0
4000
ENDCHAR
STARTCHAR 3070
ENCODING 10832
SWIDTH 2000 0
DWIDTH 20 0
BBX 15 16 3 -2
BITMAP
0004
404A
4044
4048
87F0
8040
8040
8040
8040
8060
83E0
A7F8
C42C
C640
4380
4000
ENDCHAR
STARTCHAR 3071
ENCODING 10833
SWIDTH 2000 0
DWIDTH 20 0
BBX 15 17 3 -2
BITMAP
001C
0052
4052
404C
4044
87F8
8020
8020
8020
8020
8020
81E0
A3F8
C42C
C460
4380
4000
ENDCHAR
STARTCHAR 3072
ENCODING 10834
SWIDTH 2000 0
DWIDTH 20 0
BBX 14 14 3 -1
BITMAP
0840
7860
9020
2030
2038
402C
4020
4040
8040
8040
4040
4080
2100
1E00
ENDCHAR
STARTCHAR 3073
ENCODING 10835
SWIDTH 2000 0
DWIDTH 20 0
BBX 15 15 3 -1
BITMAP
0004
0852
7868
9024
2030
2038
402C
4040
4040
8040
8040
4040
4080
2100
1E00
ENDCHAR
STARTCHAR 3074
ENCODING 10836
SWIDTH 2000 0
DWIDTH 20 0
BBX 15 15 3 -1
BITMAP
000E
084A
786A
902E
2030
2038
402C
4020
4040
8040
8040
4040
4080
2100
1E00
ENDCHAR
STARTCHAR 3075
ENCODING 10837
SWIDTH 2000 0
DWIDTH 20 0
BBX 15 14 2 -1
BITMAP
0300
0080
0000
0000
0200
0200
0200
0300
0108
0084
88C2
5042
6280
0100
ENDCHAR
STARTCHAR 3076
ENCODING 10838
SWIDTH 2000 0
DWIDTH 20 0
BBX 15 14 2 -1
BITMAP
0300
0080
0004
0012
0208
0200
0200
0300
0108
0084
88C2
5042
6280
0100
ENDCHAR
STARTCHAR 3077
ENCODING 10839
SWIDTH 2000 0
DWIDTH 20 0
BBX 15 14 2 -1
BITMAP
0300
0080
001E
0012
021E
0200
0200
0300
0108
0084
88C2
5042
6280
0100
ENDCHAR
STARTCHAR 3078
ENCODING 10840
SWIDTH 2000 0
DWIDTH 20 0
BBX 15 8 2 2
BITMAP
0400
0F00
1180
20C0
4020
8018
000C
0002
ENDCHAR
STARTCHAR 3079
ENCODING 10841
SWIDTH 2000 0
DWIDTH 20 0
BBX 15 9 2 2
BITMAP
0008
0404
0F10
1188
20C0
4020
8018
000C
0002
ENDCHAR
STARTCHAR 307A
ENCODING 10842
SWIDTH 2000 0
DWIDTH 20 0
BBX 15 9 2 2
BITMAP
001C
0414
0F14
119C
20C0
4020
8010
000C
0002
ENDCHAR
STARTCHAR 307B
ENCODING 10843
SWIDTH 2000 0
DWIDTH 20 0
BBX 13 15 3 -2
BITMAP
4008
47F0
4040
8040
8048
87F0
8040
8040
8040
A040
C3C0
C430
C448
4380
4000
ENDCHAR
STARTCHAR 307C
ENCODING 10844
SWIDTH 2000 0
DWIDTH 20 0
BBX 15 16 3 -2
BITMAP
0010
4FF0
4080
408A
8084
8090
8FE0
8080
8080
8080
A080
C780
C860
C890
4F80
4200
ENDCHAR
STARTCHAR 307D
ENCODING 10845
SWIDTH 2000 0
DWIDTH 20 0
BBX 15 16 3 -2
BITMAP
0010
4FF0
4084
408A
808A
8084
8FE0
8080
8080
8080
A080
C780
C860
C890
4F80
4200
ENDCHAR
STARTCHAR 307E
ENCODING 10846
SWIDTH 2000 0
DWIDTH 20 0
BBX 9 15 5 -1
BITMAP
0800
0800
0800
FF80
0800
0800
0880
FF00
0800
0800
0800
7800
8700
8980
F800
ENDCHAR
STARTCHAR 307F
ENCODING 10847
SWIDTH 2000 0
DWIDTH 20 0
BBX 14 13 3 -1
BITMAP
1F00
0100
0200
0220
0420
0420
3FA0
4860
9838
9044
A080
E080
0100
ENDCHAR
STARTCHAR 3080
ENCODING 10848
SWIDTH 2000 0
DWIDTH 20 0
BBX 14 15 3 -1
BITMAP
0800
0800
0800
FE10
0808
1004
7000
5800
8800
9800
9010
7010
1010
1820
0FC0
ENDCHAR
STARTCHAR 3081
ENCODING 10849
SWIDTH 2000 0
DWIDTH 20 0
BBX 13 14 3 -1
BITMAP
0100
4100
4100
47C0
3930
3210
7208
D408
8C08
8808
8C08
B410
C020
01C0
ENDCHAR
STARTCHAR 3082
ENCODING 10850
SWIDTH 2000 0
DWIDTH 20 0
BBX 10 15 5 -1
BITMAP
1000
1000
1000
9000
7E00
2000
2000
2080
FE40
2040
2040
2040
2040
1080
0F00
ENDCHAR
STARTCHAR 3083
ENCODING 10851
SWIDTH 2000 0
DWIDTH 20 0
BBX 10 9 5 -1
BITMAP
4800
4780
5C40
6040
A080
1700
1000
0800
0800
ENDCHAR
STARTCHAR 3084
ENCODING 10852
SWIDTH 2000 0
DWIDTH 20 0
BBX 15 16 2 -2
BITMAP
0200
0100
2080
2018
10E4
1302
0C02
3802
C404
04F8
0600
0200
0200
0100
0100
0100
ENDCHAR
STARTCHAR 3085
ENCODING 10853
SWIDTH 2000 0
DWIDTH 20 0
BBX 9 11 5 -2
BITMAP
0400
0400
8700
9A80
A280
C480
D480
8C80
8700
0800
0800
ENDCHAR
STARTCHAR 3086
ENCODING 10854
SWIDTH 2000 0
DWIDTH 20 0
BBX 13 15 3 -1
BITMAP
0100
4080
4080
41F0
4688
8888
9088
A088
A088
C488
C688
4330
41C0
4200
0600
ENDCHAR
STARTCHAR 3087
ENCODING 10855
SWIDTH 2000 0
DWIDTH 20 0
BBX 8 11 5 -2
BITMAP
08
08
08
0F
08
08
08
08
76
C9
70
ENDCHAR
STARTCHAR 3088
ENCODING 10856
SWIDTH 2000 0
DWIDTH 20 0
BBX 11 15 4 -1
BITMAP
0400
0400
0400
0400
07C0
0400
0400
0400
0400
0400
3C00
C700
84C0
8460
7800
ENDCHAR
STARTCHAR 3089
ENCODING 10857
SWIDTH 2000 0
DWIDTH 20 0
BBX 10 15 5 -1
BITMAP
2000
1000
0800
8000
8000
8000
8000
8F00
B080
C040
8040
0040
0080
0100
1E00
ENDCHAR
STARTCHAR 308A
ENCODING 10858
SWIDTH 2000 0
DWIDTH 20 0
BBX 8 16 6 -2
BITMAP
42
42
82
81
81
81
A1
C1
C1
C2
42
02
02
04
04
08
ENDCHAR
STARTCHAR 308B
ENCODING 10859
SWIDTH 2000 0
DWIDTH 20 0
BBX 11 15 4 -2
BITMAP
3F00
6200
0600
0C00
0800
1700
38C0
6020
C020
8020
1C20
2260
1140
1B80
0400
ENDCHAR
STARTCHAR 308C
ENCODING 10860
SWIDTH 2000 0
DWIDTH 20 0
BBX 15 16 3 -2
BITMAP
1000
1000
1000
1000
19E0
FA20
1420
1820
3020
3020
7020
5022
9024
102C
1010
1000
ENDCHAR
STARTCHAR 308D
ENCODING 10861
SWIDTH 2000 0
DWIDTH 20 0
BBX 12 14 3 -1
BITMAP
0780
1900
0300
0200
0400
0800
1FE0
3030
6010
8010
0010
0020
0060
0380
ENDCHAR
STARTCHAR 308E
ENCODING 10862
SWIDTH 2000 0
DWIDTH 20 0
BBX 11 11 4 -2
BITMAP
1000
1000
1800
73C0
1C40
1020
3020
5020
9040
1180
1000
ENDCHAR
STARTCHAR 308F
ENCODING 10863
SWIDTH 2000 0
DWIDTH 20 0
BBX 13 16 3 -2
BITMAP
1000
1000
1000
1000
3800
D1E0
1610
1808
3008
3008
5008
5008
9010
1020
11C0
1000
ENDCHAR
STARTCHAR 3090
ENCODING 10864
SWIDTH 2000 0
DWIDTH 20 0
BBX 13 14 3 -1
BITMAP
0F00
3200
0200
0200
0780
1C60
3410
4810
4818
8808
9310
94D0
A620
43C0
ENDCHAR
STARTCHAR 3091
ENCODING 10865
SWIDTH 2000 0
DWIDTH 20 0
BBX 13 15 3 -2
BITMAP
03C0
1C80
0100
0200
07E0
0C10
1010
2710
0530
07E0
18F0
3918
4608
8208
0200
ENDCHAR
STARTCHAR 3092
ENCODING 10866
SWIDTH 2000 0
DWIDTH 20 0
BBX 13 15 3 -1
BITMAP
0400
0800
0B80
7E00
1000
1000
3E08
2130
41C0
8300
0D00
1100
1100
1000
0FE0
ENDCHAR
STARTCHAR 3093
ENCODING 10867
SWIDTH 2000 0
DWIDTH 20 0
BBX 14 15 3 -1
BITMAP
0200
0200
0400
0400
0800
0800
1000
1000
3F00
3100
2104
610C
4088
C090
8060
ENDCHAR
STARTCHAR 30A1
ENCODING 11041
SWIDTH 2000 0
DWIDTH 20 0
BBX 9 9 5 -2
BITMAP
FF80
0880
0900
0A00
0800
1000
1000
2000
4000
ENDCHAR
STARTCHAR 30A2
ENCODING 11042
SWIDTH 2000 0
DWIDTH 20 0
BBX 13 13 3 -1
BITMAP
FFF8
0010
0410
0420
04C0
0400
0400
0400
0800
0800
1000
3000
4000
ENDCHAR
STARTCHAR 30A3
ENCODING 11043
SWIDTH 2000 0
DWIDTH 20 0
BBX 6 10 6 -2
BITMAP
04
08
10
30
D0
10
10
10
10
10
ENDCHAR
STARTCHAR 30A4
ENCODING 11044
SWIDTH 2000 0
DWIDTH 20 0
BBX 11 15 3 -1
BITMAP
0020
0020
0040
0080
0100
0600
0A00
7200
8200
0200
0200
0200
0200
0200
0200
ENDCHAR
STARTCHAR 30A5
ENCODING 11045
SWIDTH 2000 0
DWIDTH 20 0
BBX 8 10 6 -1
BITMAP
10
10
FF
81
82
82
02
04
04
08
ENDCHAR
STARTCHAR 30A6
ENCODING 11046
SWIDTH 2000 0
DWIDTH 20 0
BBX 11 15 4 -1
BITMAP
0400
0400
0400
FFE0
8020
8020
8020
8020
8040
0040
00C0
0080
0100
0200
0C00
ENDCHAR
STARTCHAR 30A7
ENCODING 11047
SWIDTH 2000 0
DWIDTH 20 0
BBX 10 7 4 -2
BITMAP
7FC0
0400
0400
0400
0400
0400
FFC0
ENDCHAR
STARTCHAR 30A8
ENCODING 11048
SWIDTH 2000 0
DWIDTH 20 0
BBX 13 10 3 1
BITMAP
7FF0
0200
0200
0200
0200
0200
0200
0200
0200
FFF8
ENDCHAR
STARTCHAR 30A9
ENCODING 11049
SWIDTH 2000 0
DWIDTH 20 0
BBX 9 10 5 -2
BITMAP
0400
0400
FF80
0C00
1400
1400
2400
4400
0400
1C00
ENDCHAR
STARTCHAR 30AA
ENCODING 11050
SWIDTH 2000 0
DWIDTH 20 0
BBX 13 14 3 -1
BITMAP
0080
0080
0080
FFF8
0180
0280
0280
0480
0880
1080
2080
4080
0080
0700
ENDCHAR
STARTCHAR 30AB
ENCODING 11051
SWIDTH 2000 0
DWIDTH 20 0
BBX 11 15 4 -1
BITMAP
0400
0400
0400
0400
FFE0
0420
0420
0420
0820
0820
1020
3020
6040
8040
0780
ENDCHAR
STARTCHAR 30AC
ENCODING 11052
SWIDTH 2000 0
DWIDTH 20 0
BBX 14 15 4 -1
BITMAP
0408
0424
0410
0408
FFE0
0420
0420
0420
0820
0820
1020
3020
6040
8040
0780
ENDCHAR
STARTCHAR 30AD
ENCODING 11053
SWIDTH 2000 0
DWIDTH 20 0
BBX 13 16 3 -2
BITMAP
0400
0400
0600
0270
7F80
0200
0200
0200
07F8
FA00
0100
0100
0100
0100
0100
0100
ENDCHAR
STARTCHAR 30AE
ENCODING 11054
SWIDTH 2000 0
DWIDTH 20 0
BBX 15 17 3 -2
BITMAP
0004
0412
0408
0600
0270
7F80
0200
0200
0200
07F8
FA00
0100
0100
0100
0100
0100
0100
ENDCHAR
STARTCHAR 30AF
ENCODING 11055
SWIDTH 2000 0
DWIDTH 20 0
BBX 11 15 3 -2
BITMAP
0200
0600
0400
0FE0
1860
1040
6040
C080
0080
0100
0200
0400
0800
3000
6000
ENDCHAR
STARTCHAR 30B0
ENCODING 11056
SWIDTH 2000 0
DWIDTH 20 0
BBX 14 16 4 -2
BITMAP
0208
0404
0408
0FC0
1840
3040
6040
C080
0180
0100
0200
0400
0800
3000
C000
8000
ENDCHAR
STARTCHAR 30B1
ENCODING 11057
SWIDTH 2000 0
DWIDTH 20 0
BBX 14 15 3 -2
BITMAP
0400
0800
0800
0800
1FFC
3080
2080
4080
8100
0100
0100
0200
0400
0C00
1800
ENDCHAR
STARTCHAR 30B2
ENCODING 11058
SWIDTH 2000 0
DWIDTH 20 0
BBX 15 16 3 -2
BITMAP
0004
0402
0808
0804
0800
1FFC
3080
2080
4080
8100
0100
0100
0200
0400
0C00
1800
ENDCHAR
STARTCHAR 30B3
ENCODING 11059
SWIDTH 2000 0
DWIDTH 20 0
BBX 10 11 4 0
BITMAP
FFC0
0040
0040
0040
0040
0040
0040
0040
0040
FFC0
0040
ENDCHAR
STARTCHAR 30B4
ENCODING 11060
SWIDTH 2000 0
DWIDTH 20 0
BBX 14 15 4 0
BITMAP
0008
0004
0010
0008
FFC0
0040
0040
0040
0040
0040
0040
0040
0040
FFC0
0040
ENDCHAR
STARTCHAR 30B5
ENCODING 11061
SWIDTH 2000 0
DWIDTH 20 0
BBX 15 15 2 -2
BITMAP
0820
0820
0820
0820
FFFE
0820
0820
0820
0820
0840
0040
0080
0080
0300
0600
ENDCHAR
STARTCHAR 30B6
ENCODING 11062
SWIDTH 2000 0
DWIDTH 20 0
BBX 16 16 2 -2
BITMAP
0002
0821
0824
0820
0820
FFFE
0820
0820
0820
0820
0840
0040
0080
0080
0300
0600
ENDCHAR
STARTCHAR 30B7
ENCODING 11063
SWIDTH 2000 0
DWIDTH 20 0
BBX 13 12 4 0
BITMAP
3000
1800
0000
8000
6018
2030
0060
00C0
0180
0600
1C00
7000
ENDCHAR
STARTCHAR 30B8
ENCODING 11064
SWIDTH 2000 0
DWIDTH 20 0
BBX 13 13 4 0
BITMAP
2020
1090
0840
0000
8000
6018
2030
0060
00C0
0180
0600
1C00
7000
ENDCHAR
STARTCHAR 30B9
ENCODING 11065
SWIDTH 2000 0
DWIDTH 20 0
BBX 13 12 3 -1
BITMAP
7FE0
0040
0040
0040
0080
0100
0180
0240
0C20
1810
6008
8000
ENDCHAR
STARTCHAR 30BA
ENCODING 11066
SWIDTH 2000 0
DWIDTH 20 0
BBX 15 15 3 -1
BITMAP
0002
0008
0004
7FE0
0040
0040
0040
0080
0100
0180
0240
0C20
1810
6008
8000
ENDCHAR
STARTCHAR 30BB
ENCODING 11067
SWIDTH 2000 0
DWIDTH 20 0
BBX 13 13 3 0
BITMAP
0800
0800
0800
0878
0F90
F810
0820
0860
08C0
0800
0800
0808
07F8
ENDCHAR
STARTCHAR 30BC
ENCODING 11068
SWIDTH 2000 0
DWIDTH 20 0
BBX 15 14 3 0
BITMAP
0804
0812
0808
0800
09F0
3E10
E810
0820
0840
0880
0800
0800
0808
07F8
ENDCHAR
STARTCHAR 30BD
ENCODING 11069
SWIDTH 2000 0
DWIDTH 20 0
BBX 11 14 4 -1
BITMAP
0020
8020
4020
6020
2040
2040
0080
0080
0100
0100
0200
0400
0800
3000
ENDCHAR
STARTCHAR 30BE
ENCODING 11070
SWIDTH 2000 0
DWIDTH 20 0
BBX 14 16 4 -1
BITMAP
0004
0010
0028
8020
4020
4020
2040
2040
0080
0080
0100
0100
0200
0400
0800
3000
ENDCHAR
STARTCHAR 30BF
ENCODING 11071
SWIDTH 2000 0
DWIDTH 20 0
BBX 11 16 4 -2
BITMAP
0400
0400
0C00
0FE0
1060
3040
6040
8480
0280
0100
0200
0600
0C00
1800
6000
8000
ENDCHAR
STARTCHAR 30C0
ENCODING 11072
SWIDTH 2000 0
DWIDTH 20 0
BBX 14 16 4 -2
BITMAP
0400
0414
0C08
0FE0
1060
3040
6040
8480
0280
0100
0200
0600
0C00
1800
6000
C000
ENDCHAR
STARTCHAR 30C1
ENCODING 11073
SWIDTH 2000 0
DWIDTH 20 0
BBX 14 14 3 -1
BITMAP
0020
01C0
3F00
0100
0100
FFFC
0100
0100
0200
0200
0200
0400
0800
3000
ENDCHAR
STARTCHAR 30C2
ENCODING 11074
SWIDTH 2000 0
DWIDTH 20 0
BBX 15 14 3 -1
BITMAP
0024
01CA
3F04
0100
0100
FFFC
0100
0100
0200
0200
0200
0400
0800
3000
ENDCHAR
STARTCHAR 30C3
ENCODING 11075
SWIDTH 2000 0
DWIDTH 20 0
BBX 8 9 6 -2
BITMAP
11
91
81
02
02
04
08
10
20
ENDCHAR
STARTCHAR 30C4
ENCODING 11076
SWIDTH 2000 0
DWIDTH 20 0
BBX 13 14 3 -1
BITMAP
0400
8408
4210
6210
2210
2010
0020
0020
0040
00C0
0080
0100
0600
0C00
ENDCHAR
STARTCHAR 30C5
ENCODING 11077
SWIDTH 2000 0
DWIDTH 20 0
BBX 15 16 3 -1
BITMAP
0004
000A
0404
8400
4200
6210
2210
2010
0020
0020
0040
00C0
0080
0100
0600
0C00
ENDCHAR
STARTCHAR 30C6
ENCODING 11078
SWIDTH 2000 0
DWIDTH 20 0
BBX 14 14 3 -2
BITMAP
3FE0
0000
0000
0000
FFFC
0100
0100
0100
0100
0200
0200
0400
0800
1000
ENDCHAR
STARTCHAR 30C7
ENCODING 11079
SWIDTH 2000 0
DWIDTH 20 0
BBX 16 15 2 -2
BITMAP
0002
1FF5
0002
0000
0000
FFFC
0100
0100
0100
0100
0200
0200
0400
0800
1000
ENDCHAR
STARTCHAR 30C8
ENCODING 11080
SWIDTH 2000 0
DWIDTH 20 0
BBX 5 15 8 -2
BITMAP
80
80
80
80
80
E0
90
88
88
80
80
80
80
80
80
ENDCHAR
STARTCHAR 30C9
ENCODING 11081
SWIDTH 2000 0
DWIDTH 20 0
BBX 7 15 8 -2
BITMAP
02
80
84
80
80
E0
90
88
88
80
80
80
80
80
80
ENDCHAR
STARTCHAR 30CA
ENCODING 11082
SWIDTH 2000 0
DWIDTH 20 0
BBX 14 16 3 -2
BITMAP
0100
0100
0100
0100
0100
FFFC
0100
0100
0100
0100
0200
0200
0400
0C00
1800
2000
ENDCHAR
STARTCHAR 30CB
ENCODING 11083
SWIDTH 2000 0
DWIDTH 20 0
BBX 13 10 3 1
BITMAP
3FE0
0000
0000
0000
0000
0000
0000
0000
0000
FFF8
ENDCHAR
STARTCHAR 30CC
ENCODING 11084
SWIDTH 2000 0
DWIDTH 20 0
BBX 11 13 4 -1
BITMAP
7FC0
0040
0040
0080
1880
0F00
0300
0380
0640
0C20
1800
3000
C000
ENDCHAR
STARTCHAR 30CD
ENCODING 11085
SWIDTH 2000 0
DWIDTH 20 0
BBX 12 16 4 -2
BITMAP
0200
0200
0200
7FC0
0040
00C0
0180
0300
0640
1A20
6210
8200
0200
0200
0200
0200
ENDCHAR
STARTCHAR 30CE
ENCODING 11086
SWIDTH 2000 0
DWIDTH 20 0
BBX 10 14 4 -1
BITMAP
0040
0040
00C0
0080
0080
0100
0100
0200
0400
0400
0800
1000
6000
8000
ENDCHAR
STARTCHAR 30CF
ENCODING 11087
SWIDTH 2000 0
DWIDTH 20 0
BBX 15 10 2 1
BITMAP
0420
0430
0410
0808
0808
100C
1004
2004
6002
C002
ENDCHAR
STARTCHAR 30D0
ENCODING 11088
SWIDTH 2000 0
DWIDTH 20 0
BBX 16 12 2 1
BITMAP
0002
0005
0422
0430
0410
0808
0808
100C
1004
2004
6002
C002
ENDCHAR
STARTCHAR 30D1
ENCODING 11089
SWIDTH 2000 0
DWIDTH 20 0
BBX 15 12 2 1
BITMAP
000E
000A
0426
0430
0410
0818
0808
100C
1004
2004
6002
C002
ENDCHAR
STARTCHAR 30D2
ENCODING 11090
SWIDTH 2000 0
DWIDTH 20 0
BBX 10 13 6 0
BITMAP
8000
8000
8000
8100
8600
F800
8000
8000
8000
8000
8000
8000
7FC0
ENDCHAR
STARTCHAR 30D3
ENCODING 11091
SWIDTH 2000 0
DWIDTH 20 0
BBX 12 15 6 0
BITMAP
0020
0010
8040
8020
8000
8100
8E00
F800
8000
8000
8000
8000
8000
8000
7FC0
ENDCHAR
STARTCHAR 30D4
ENCODING 11092
SWIDTH 2000 0
DWIDTH 20 0
BBX 12 15 6 0
BITMAP
0060
0090
8090
8060
8000
8100
8E00
F800
8000
8000
8000
8000
8000
8000
7FC0
ENDCHAR
STARTCHAR 30D5
ENCODING 11093
SWIDTH 2000 0
DWIDTH 20 0
BBX 11 13 4 -1
BITMAP
FFE0
0020
0020
0060
0040
0040
0080
0180
0100
0200
0400
1800
3000
ENDCHAR
STARTCHAR 30D6
ENCODING 11094
SWIDTH 2000 0
DWIDTH 20 0
BBX 14 15 4 -1
BITMAP
0014
0008
FFE0
0020
0020
0060
0040
0040
0080
0180
0100
0200
0400
1800
3000
ENDCHAR
STARTCHAR 30D7
ENCODING 11095
SWIDTH 2000 0
DWIDTH 20 0
BBX 14 16 4 -1
BITMAP
001C
0014
001C
FFE0
0020
0020
0060
0040
0040
0080
0180
0100
0200
0400
1800
3000
ENDCHAR
STARTCHAR 30D8
ENCODING 11096
SWIDTH 2000 0
DWIDTH 20 0
BBX 15 7 2 2
BITMAP
0600
1900
3080
6040
C030
0008
0006
ENDCHAR
STARTCHAR 30D9
ENCODING 11097
SWIDTH 2000 0
DWIDTH 20 0
BBX 15 11 2 2
BITMAP
0010
0008
0020
0010
0600
0900
3080
6040
C030
0008
0006
ENDCHAR
STARTCHAR 30DA
ENCODING 11098
SWIDTH 2000 0
DWIDTH 20 0
BBX 15 11 2 2
BITMAP
0030
0048
0050
0420
0F00
1180
20C0
4020
8010
000C
0002
ENDCHAR
STARTCHAR 30DB
ENCODING 11099
SWIDTH 2000 0
DWIDTH 20 0
BBX 14 14 3 -1
BITMAP
0200
0200
0200
FFF8
0200
0200
0200
2210
2210
6208
4204
8204
0200
1E00
ENDCHAR
STARTCHAR 30DC
ENCODING 11100
SWIDTH 2000 0
DWIDTH 20 0
BBX 14 15 3 -1
BITMAP
0008
0220
0210
0200
FFF8
0200
0200
0200
2210
2210
6208
4204
8204
0200
1E00
ENDCHAR
STARTCHAR 30DD
ENCODING 11101
SWIDTH 2000 0
DWIDTH 20 0
BBX 14 15 3 -1
BITMAP
0018
0228
0238
0200
FFF8
0200
0200
0200
2210
2210
6208
4204
8204
0200
1E00
ENDCHAR
STARTCHAR 30DE
ENCODING 11102
SWIDTH 2000 0
DWIDTH 20 0
BBX 12 10 3 1
BITMAP
FFF0
0010
0010
0020
1040
0880
0700
0200
0100
0080
ENDCHAR
STARTCHAR 30DF
ENCODING 11103
SWIDTH 2000 0
DWIDTH 20 0
BBX 8 12 6 0
BITMAP
38
06
00
80
70
0C
02
00
80
70
0E
03
ENDCHAR
STARTCHAR 30E0
ENCODING 11104
SWIDTH 2000 0
DWIDTH 20 0
BBX 13 13 3 0
BITMAP
0200
0200
0200
0200
0400
0400
0400
0840
0820
1010
10F0
FF08
0008
ENDCHAR
STARTCHAR 30E1
ENCODING 11105
SWIDTH 2000 0
DWIDTH 20 0
BBX 11 14 3 -1
BITMAP
0020
0020
0040
0040
08C0
0680
0300
0380
02C0
0440
0800
3000
6000
8000
ENDCHAR
STARTCHAR 30E2
ENCODING 11106
SWIDTH 2000 0
DWIDTH 20 0
BBX 13 13 3 -1
BITMAP
7FE0
0400
0400
0400
0400
FFF8
0400
0400
0400
0400
0400
0400
03F0
ENDCHAR
STARTCHAR 30E3
ENCODING 11107
SWIDTH 2000 0
DWIDTH 20 0
BBX 9 9 5 -2
BITMAP
1000
1F80
F080
1100
1200
0800
0800
0800
0800
ENDCHAR
STARTCHAR 30E4
ENCODING 11108
SWIDTH 2000 0
DWIDTH 20 0
BBX 12 15 4 -2
BITMAP
1000
1000
1000
11F0
3E10
C820
0860
0840
0880
0800
0C00
0400
0400
0400
0400
ENDCHAR
STARTCHAR 30E5
ENCODING 11109
SWIDTH 2000 0
DWIDTH 20 0
BBX 10 8 5 -2
BITMAP
7E00
0200
0200
0200
0200
0200
0200
FFC0
ENDCHAR
STARTCHAR 30E6
ENCODING 11110
SWIDTH 2000 0
DWIDTH 20 0
BBX 14 10 2 1
BITMAP
1FC0
0040
0040
0040
0040
0040
0040
0040
0040
FFFC
ENDCHAR
STARTCHAR 30E7
ENCODING 11111
SWIDTH 2000 0
DWIDTH 20 0
BBX 7 9 6 -2
BITMAP
FE
02
02
02
FE
02
02
FE
02
ENDCHAR
STARTCHAR 30E8
ENCODING 11112
SWIDTH 2000 0
DWIDTH 20 0
BBX 10 13 4 -1
BITMAP
FFC0
0040
0040
0040
0040
FFC0
0040
0040
0040
0040
FFC0
0040
0040
ENDCHAR
STARTCHAR 30E9
ENCODING 11113
SWIDTH 2000 0
DWIDTH 20 0
BBX 11 15 4 -2
BITMAP
7FC0
0000
0000
0000
0000
FFE0
0060
0040
0040
0080
0080
0100
0200
0C00
1000
ENDCHAR
STARTCHAR 30EA
ENCODING 11114
SWIDTH 2000 0
DWIDTH 20 0
BBX 7 16 6 -2
BITMAP
02
82
82
82
82
82
82
82
82
82
04
04
08
08
10
20
ENDCHAR
STARTCHAR 30EB
ENCODING 11115
SWIDTH 2000 0
DWIDTH 20 0
BBX 14 14 3 -1
BITMAP
0100
1100
1100
1100
1100
1100
1104
1108
1118
2130
2160
4180
C000
8000
ENDCHAR
STARTCHAR 30EC
ENCODING 11116
SWIDTH 2000 0
DWIDTH 20 0
BBX 11 12 5 1
BITMAP
8000
8000
8000
8000
8000
8020
8040
8080
8100
8600
9800
F000
ENDCHAR
STARTCHAR 30ED
ENCODING 11117
SWIDTH 2000 0
DWIDTH 20 0
BBX 10 12 5 -1
BITMAP
FFC0
8040
8040
8040
8040
8040
8040
8040
8040
FFC0
8040
8000
ENDCHAR
STARTCHAR 30EE
ENCODING 11118
SWIDTH 2000 0
DWIDTH 20 0
BBX 8 10 6 -2
BITMAP
FF
81
81
81
82
02
04
04
08
10
ENDCHAR
STARTCHAR 30EF
ENCODING 11119
SWIDTH 2000 0
DWIDTH 20 0
BBX 11 13 4 -1
BITMAP
FFE0
8020
8020
8020
8020
8040
0040
0040
0080
0080
0100
0200
0400
ENDCHAR
STARTCHAR 30F0
ENCODING 11120
SWIDTH 2000 0
DWIDTH 20 0
BBX 14 15 3 -2
BITMAP
0080
0080
0080
FFF0
1080
1080
1080
1080
1080
FFFC
0080
0080
0080
0080
0080
ENDCHAR
STARTCHAR 30F1
ENCODING 11121
SWIDTH 2000 0
DWIDTH 20 0
BBX 14 11 3 1
BITMAP
7FF0
0010
0020
0240
0280
0200
0200
0200
0200
0200
FFFC
ENDCHAR
STARTCHAR 30F2
ENCODING 11122
SWIDTH 2000 0
DWIDTH 20 0
BBX 10 13 4 -1
BITMAP
FFC0
0040
0040
0040
FFC0
0080
0080
0100
0300
0600
0C00
3000
4000
ENDCHAR
STARTCHAR 30F3
ENCODING 11123
SWIDTH 2000 0
DWIDTH 20 0
BBX 12 13 4 0
BITMAP
8000
C000
2000
1000
0010
0010
0020
00C0
0180
0300
0C00
3000
C000
ENDCHAR
STARTCHAR 30F4
ENCODING 11124
SWIDTH 2000 0
DWIDTH 20 0
BBX 14 15 4 -1
BITMAP
0404
0410
0408
FFE0
8020
8020
8020
8020
8040
0040
0080
0180
0300
0600
0800
ENDCHAR
STARTCHAR 30F5
ENCODING 11125
SWIDTH 2000 0
DWIDTH 20 0
BBX 8 9 6 -2
BITMAP
10
10
FF
11
11
21
21
42
8E
ENDCHAR
STARTCHAR 30F6
ENCODING 11126
SWIDTH 2000 0
DWIDTH 20 0
BBX 10 10 4 -2
BITMAP
1000
1000
3FC0
2200
4200
8200
0400
0400
0800
1000
ENDCHAR
STARTCHAR 0410
ENCODING 11297
SWIDTH 2000 0
DWIDTH 20 0
BBX 11 15 4 -1
BITMAP
0600
0A00
0A00
0B00
1100
1100
1180
2080
3F80
2040
6040
4040
4040
4020
8020
ENDCHAR
STARTCHAR 0411
ENCODING 11298
SWIDTH 2000 0
DWIDTH 20 0
BBX 8 14 6 0
BITMAP
FF
80
80
80
80
FC
86
81
81
81
81
81
82
FC
ENDCHAR
STARTCHAR 0412
ENCODING 11299
SWIDTH 2000 0
DWIDTH 20 0
BBX 10 14 5 0
BITMAP
FF00
8180
8080
8080
8080
8100
FE00
8180
8080
8040
8040
8040
8080
FF00
ENDCHAR
STARTCHAR 0413
ENCODING 11300
SWIDTH 2000 0
DWIDTH 20 0
BBX 7 14 7 0
BITMAP
FE
80
80
80
80
80
80
80
80
80
80
80
80
80
ENDCHAR
STARTCHAR 0414
ENCODING 11301
SWIDTH 2000 0
DWIDTH 20 0
BBX 12 14 4 0
BITMAP
3FC0
2040
2040
2040
2040
2040
2040
2040
2040
C0F0
BF10
8010
8010
8010
ENDCHAR
STARTCHAR 0415
ENCODING 11302
SWIDTH 2000 0
DWIDTH 20 0
BBX 9 14 6 0
BITMAP
FF80
8000
8000
8000
8000
8000
FF00
8000
8000
8000
8000
8000
8000
FF80
ENDCHAR
STARTCHAR 0401
ENCODING 11303
SWIDTH 2000 0
DWIDTH 20 0
BBX 9 15 6 0
BITMAP
4600
0000
0000
FF80
8000
8000
8000
8000
FF00
8000
8000
8000
8000
8000
FF80
ENDCHAR
STARTCHAR 0416
ENCODING 11304
SWIDTH 2000 0
DWIDTH 20 0
BBX 13 14 3 0
BITMAP
C218
2220
2220
2220
2220
3260
1FC0
3220
4210
4210
4210
4210
4210
C218
ENDCHAR
STARTCHAR 0417
ENCODING 11305
SWIDTH 2000 0
DWIDTH 20 0
BBX 10 14 5 0
BITMAP
3E00
4100
8080
8080
8080
0100
1E00
0100
0080
0040
8040
4040
6080
3F00
ENDCHAR
STARTCHAR 0418
ENCODING 11306
SWIDTH 2000 0
DWIDTH 20 0
BBX 9 14 5 0
BITMAP
8080
8180
8280
8280
8480
8480
8880
8880
9080
9080
A080
A080
C080
8080
ENDCHAR
STARTCHAR 0419
ENCODING 11307
SWIDTH 2000 0
DWIDTH 20 0
BBX 10 14 5 0
BITMAP
2200
2200
9EC0
80C0
8140
8240
8640
8440
8840
9040
9040
A040
C040
C040
ENDCHAR
STARTCHAR 041A
ENCODING 11308
SWIDTH 2000 0
DWIDTH 20 0
BBX 9 14 6 0
BITMAP
8380
8600
8400
8400
8400
8800
F000
8C00
8400
8200
8200
8200
8200
8300
ENDCHAR
STARTCHAR 041B
ENCODING 11309
SWIDTH 2000 0
DWIDTH 20 0
BBX 11 14 3 0
BITMAP
1FE0
1020
1020
1020
1020
1020
1020
1020
1020
1020
1020
1020
3020
E020
ENDCHAR
STARTCHAR 041C
ENCODING 11310
SWIDTH 2000 0
DWIDTH 20 0
BBX 12 14 4 0
BITMAP
C030
C030
A050
A050
A050
9090
9090
9110
8910
8910
8A10
8610
8610
8410
ENDCHAR
STARTCHAR 041D
ENCODING 11311
SWIDTH 2000 0
DWIDTH 20 0
BBX 9 14 5 0
BITMAP
8080
8080
8080
8080
8080
8080
FF80
8080
8080
8080
8080
8080
8080
8080
ENDCHAR
STARTCHAR 041E
ENCODING 11312
SWIDTH 2000 0
DWIDTH 20 0
BBX 11 14 4 0
BITMAP
1F00
3080
4040
4040
8020
8020
8020
8020
8020
8020
4040
4040
2080
1F00
ENDCHAR
STARTCHAR 041F
ENCODING 11313
SWIDTH 2000 0
DWIDTH 20 0
BBX 8 14 6 0
BITMAP
FF
81
81
81
81
81
81
81
81
81
81
81
81
81
ENDCHAR
STARTCHAR 0420
ENCODING 11314
SWIDTH 2000 0
DWIDTH 20 0
BBX 9 14 6 0
BITMAP
FE00
8100
8080
8080
8080
8080
8100
FE00
8000
8000
8000
8000
8000
8000
ENDCHAR
STARTCHAR 0421
ENCODING 11315
SWIDTH 2000 0
DWIDTH 20 0
BBX 11 14 5 0
BITMAP
1F00
2080
4040
4040
8040
8000
8000
8000
8000
8020
4020
4040
20C0
1F00
ENDCHAR
STARTCHAR 0422
ENCODING 11316
SWIDTH 2000 0
DWIDTH 20 0
BBX 12 14 4 0
BITMAP
FFF0
0400
0400
0400
0400
0400
0400
0400
0400
0400
0400
0400
0400
0400
ENDCHAR
STARTCHAR 0423
ENCODING 11317
SWIDTH 2000 0
DWIDTH 20 0
BBX 9 14 5 0
BITMAP
8080
C080
4080
4100
2100
2200
1200
1400
1C00
0C00
0800
0800
1000
7000
ENDCHAR
STARTCHAR 0424
ENCODING 11318
SWIDTH 2000 0
DWIDTH 20 0
BBX 13 14 3 0
BITMAP
0200
0F80
3AE0
6230
C218
8208
8208
8208
8208
4210
4210
3260
0F80
0200
ENDCHAR
STARTCHAR 0425
ENCODING 11319
SWIDTH 2000 0
DWIDTH 20 0
BBX 9 15 5 -1
BITMAP
4080
4180
2100
2300
1200
1400
0C00
0800
0C00
1600
3200
2300
6100
4080
8000
ENDCHAR
STARTCHAR 0426
ENCODING 11320
SWIDTH 2000 0
DWIDTH 20 0
BBX 10 15 5 -1
BITMAP
8080
8080
8080
8080
8080
8080
8080
8080
8080
8080
8080
FFC0
0040
0040
0040
ENDCHAR
STARTCHAR 0427
ENCODING 11321
SWIDTH 2000 0
DWIDTH 20 0
BBX 7 14 6 0
BITMAP
82
82
82
82
82
82
82
C6
7A
02
02
02
02
02
ENDCHAR
STARTCHAR 0428
ENCODING 11322
SWIDTH 2000 0
DWIDTH 20 0
BBX 12 14 4 0
BITMAP
8410
8410
8410
8410
8410
8410
8410
8410
8410
8410
8410
8410
8410
FFF0
ENDCHAR
STARTCHAR 0429
ENCODING 11323
SWIDTH 2000 0
DWIDTH 20 0
BBX 14 15 3 -1
BITMAP
8210
8210
8210
8210
8210
8210
8210
8210
8210
8210
8210
8210
FFFC
0004
0004
ENDCHAR
STARTCHAR 042A
ENCODING 11324
SWIDTH 2000 0
DWIDTH 20 0
BBX 12 14 4 0
BITMAP
F000
1000
1000
1000
1000
1F80
1060
1030
1010
1010
1010
1010
1020
1FC0
ENDCHAR
STARTCHAR 042B
ENCODING 11325
SWIDTH 2000 0
DWIDTH 20 0
BBX 10 14 5 0
BITMAP
8040
8040
8040
8040
8040
8040
FC40
8640
8240
8240
8240
8240
8440
F840
ENDCHAR
STARTCHAR 042C
ENCODING 11326
SWIDTH 2000 0
DWIDTH 20 0
BBX 8 14 6 0
BITMAP
80
80
80
80
80
80
FE
83
81
81
81
81
82
FC
ENDCHAR
STARTCHAR 042D
ENCODING 11327
SWIDTH 2000 0
DWIDTH 20 0
BBX 11 14 4 0
BITMAP
1F00
6080
4040
8040
0020
0020
0FE0
0020
0020
8020
8040
C040
6080
3F00
ENDCHAR
STARTCHAR 042E
ENCODING 11328
SWIDTH 2000 0
DWIDTH 20 0
BBX 16 14 2 0
BITMAP
80F8
8104
8202
8202
8401
8401
C401
FC01
8401
8401
8202
8202
8104
80F8
ENDCHAR
STARTCHAR 042F
ENCODING 11329
SWIDTH 2000 0
DWIDTH 20 0
BBX 10 14 4 0
BITMAP
1FC0
2040
4040
4040
4040
2040
1FC0
2040
2040
4040
4040
4040
4040
8000
ENDCHAR
STARTCHAR 0430
ENCODING 11345
SWIDTH 2000 0
DWIDTH 20 0
BBX 8 11 6 0
BITMAP
3C
46
82
02
02
7E
82
82
86
CA
71
ENDCHAR
STARTCHAR 0431
ENCODING 11346
SWIDTH 2000 0
DWIDTH 20 0
BBX 9 15 6 0
BITMAP
1880
6700
4000
C000
8000
BE00
C200
8100
8100
8100
8100
8100
8300
4200
3C00
ENDCHAR
STARTCHAR 0432
ENCODING 11347
SWIDTH 2000 0
DWIDTH 20 0
BBX 6 11 7 0
BITMAP
F8
84
84
84
88
F8
84
84
84
84
F8
ENDCHAR
STARTCHAR 0433
ENCODING 11348
SWIDTH 2000 0
DWIDTH 20 0
BBX 5 11 7 0
BITMAP
F8
80
80
80
80
80
80
80
80
80
80
ENDCHAR
STARTCHAR 0434
ENCODING 11349
SWIDTH 2000 0
DWIDTH 20 0
BBX 10 12 5 -1
BITMAP
3F00
2100
2100
2100
2100
2100
2100
2100
4100
FFC0
8040
8040
ENDCHAR
STARTCHAR 0435
ENCODING 11350
SWIDTH 2000 0
DWIDTH 20 0
BBX 8 11 6 0
BITMAP
3C
42
82
81
81
FF
80
80
81
42
3C
ENDCHAR
STARTCHAR 0451
ENCODING 11351
SWIDTH 2000 0
DWIDTH 20 0
BBX 8 14 6 0
BITMAP
64
04
00
3C
42
81
81
81
FF
80
80
41
42
3C
ENDCHAR
STARTCHAR 0436
ENCODING 11352
SWIDTH 2000 0
DWIDTH 20 0
BBX 11 11 4 0
BITMAP
C460
64C0
2480
2480
2480
3F80
64C0
4440
4440
4440
4440
ENDCHAR
STARTCHAR 0437
ENCODING 11353
SWIDTH 2000 0
DWIDTH 20 0
BBX 7 11 6 0
BITMAP
3C
46
82
82
02
1C
06
82
C2
46
3C
ENDCHAR
STARTCHAR 0438
ENCODING 11354
SWIDTH 2000 0
DWIDTH 20 0
BBX 7 11 6 -1
BITMAP
82
86
8A
8A
92
92
A2
C2
C2
82
80
ENDCHAR
STARTCHAR 0439
ENCODING 11355
SWIDTH 2000 0
DWIDTH 20 0
BBX 7 15 6 0
BITMAP
40
44
38
00
82
86
86
8A
8A
92
B2
A2
C2
C2
82
ENDCHAR
STARTCHAR 043A
ENCODING 11356
SWIDTH 2000 0
DWIDTH 20 0
BBX 7 11 7 0
BITMAP
86
84
88
88
88
F8
84
84
84
84
84
ENDCHAR
STARTCHAR 043B
ENCODING 11357
SWIDTH 2000 0
DWIDTH 20 0
BBX 8 10 6 0
BITMAP
7F
41
41
41
41
41
41
41
41
81
ENDCHAR
STARTCHAR 043C
ENCODING 11358
SWIDTH 2000 0
DWIDTH 20 0
BBX 9 11 5 0
BITMAP
C180
C280
A280
A280
A280
9480
9480
9480
8880
8880
8880
ENDCHAR
STARTCHAR 043D
ENCODING 11359
SWIDTH 2000 0
DWIDTH 20 0
BBX 7 11 6 0
BITMAP
82
82
82
82
82
FE
82
82
82
82
82
ENDCHAR
STARTCHAR 043E
ENCODING 11360
SWIDTH 2000 0
DWIDTH 20 0
BBX 8 11 6 0
BITMAP
3C
42
42
81
81
81
81
81
42
42
3C
ENDCHAR
STARTCHAR 043F
ENCODING 11361
SWIDTH 2000 0
DWIDTH 20 0
BBX 7 11 6 0
BITMAP
FE
82
82
82
82
82
82
82
82
82
82
ENDCHAR
STARTCHAR 0440
ENCODING 11362
SWIDTH 2000 0
DWIDTH 20 0
BBX 8 12 6 -1
BITMAP
BC
C2
81
81
81
81
81
C1
C2
BC
80
80
ENDCHAR
STARTCHAR 0441
ENCODING 11363
SWIDTH 2000 0
DWIDTH 20 0
BBX 7 11 6 0
BITMAP
3C
42
42
80
80
80
80
82
42
46
3C
ENDCHAR
STARTCHAR 0442
ENCODING 11364
SWIDTH 2000 0
DWIDTH 20 0
BBX 7 11 6 0
BITMAP
FE
10
10
10
10
10
10
10
10
10
10
ENDCHAR
STARTCHAR 0443
ENCODING 11365
SWIDTH 2000 0
DWIDTH 20 0
BBX 7 11 6 -1
BITMAP
82
42
44
24
2C
38
18
10
10
30
60
ENDCHAR
STARTCHAR 0444
ENCODING 11366
SWIDTH 2000 0
DWIDTH 20 0
BBX 13 15 3 -1
BITMAP
0200
0200
0200
3AE0
4710
8208
8208
8208
8208
8208
4710
3AE0
0200
0200
0200
ENDCHAR
STARTCHAR 0445
ENCODING 11367
SWIDTH 2000 0
DWIDTH 20 0
BBX 7 11 6 0
BITMAP
82
44
44
28
18
10
28
2C
44
C2
82
ENDCHAR
STARTCHAR 0446
ENCODING 11368
SWIDTH 2000 0
DWIDTH 20 0
BBX 8 12 6 -1
BITMAP
82
82
82
82
82
82
82
82
FF
01
01
01
ENDCHAR
STARTCHAR 0447
ENCODING 11369
SWIDTH 2000 0
DWIDTH 20 0
BBX 6 11 7 0
BITMAP
84
84
84
84
84
84
CC
74
04
04
04
ENDCHAR
STARTCHAR 0448
ENCODING 11370
SWIDTH 2000 0
DWIDTH 20 0
BBX 10 11 5 0
BITMAP
8840
8840
8840
8840
8840
8840
8840
8840
8840
8840
FFC0
ENDCHAR
STARTCHAR 0449
ENCODING 11371
SWIDTH 2000 0
DWIDTH 20 0
BBX 11 12 4 -1
BITMAP
8440
8440
8440
8440
8440
8440
8440
8440
FFE0
0020
0020
0020
ENDCHAR
STARTCHAR 044A
ENCODING 11372
SWIDTH 2000 0
DWIDTH 20 0
BBX 8 11 6 0
BITMAP
E0
20
20
20
3C
22
21
21
21
23
3E
ENDCHAR
STARTCHAR 044B
ENCODING 11373
SWIDTH 2000 0
DWIDTH 20 0
BBX 8 11 6 0
BITMAP
81
81
81
81
F1
99
89
89
89
99
F1
ENDCHAR
STARTCHAR 044C
ENCODING 11374
SWIDTH 2000 0
DWIDTH 20 0
BBX 6 11 7 0
BITMAP
80
80
80
80
F0
8C
84
84
84
8C
F8
ENDCHAR
STARTCHAR 044D
ENCODING 11375
SWIDTH 2000 0
DWIDTH 20 0
BBX 8 11 6 0
BITMAP
3C
42
42
01
01
1F
01
01
C2
46
3C
ENDCHAR
STARTCHAR 044E
ENCODING 11376
SWIDTH 2000 0
DWIDTH 20 0
BBX 12 11 4 0
BITMAP
87C0
8C60
8820
9010
9010
F010
9010
9010
8820
8C60
83C0
ENDCHAR
STARTCHAR 044F
ENCODING 11377
SWIDTH 2000 0
DWIDTH 20 0
BBX 6 11 7 0
BITMAP
7C
84
84
84
84
7C
44
84
84
84
84
ENDCHAR
STARTCHAR AC00
ENCODING 12321
SWIDTH 2000 0
DWIDTH 20 0
BBX 18 18 1 -3
BITMAP
000200
7F8200
008200
008200
008200
008200
008200
0083C0
010200
010200
030200
060200
0C0200
780200
C00200
000200
000200
000200
ENDCHAR
STARTCHAR AC01
ENCODING 12322
SWIDTH 2000 0
DWIDTH 20 0
BBX 18 18 1 -3
BITMAP
000200
7F8200
00C200
00C200
0083C0
008200
018200
030200
0C0200
F00200
000000
000000
3FFE00
000200
000200
000200
000200
000200
ENDCHAR
STARTCHAR AC04
ENCODING 12323
SWIDTH 2000 0
DWIDTH 20 0
BBX 18 17 1 -2
BITMAP
000200
7F8200
00C200
00C200
008200
0083C0
008200
010200
060200
780200
C00200
000200
200200
200000
200000
200000
3FFE00
ENDCHAR
STARTCHAR AC07
ENCODING 12324
SWIDTH 2000 0
DWIDTH 20 0
BBX 18 17 1 -2
BITMAP
000200
7F8200
00C200
00C200
0083C0
008200
010200
060200
3C0200
E00200
000000
3FFE00
200000
200000
200000
200000
3FFE00
ENDCHAR
STARTCHAR AC08
ENCODING 12325
SWIDTH 2000 0
DWIDTH 20 0
BBX 18 17 1 -2
BITMAP
000200
7F8200
00C200
00C200
0083C0
018200
030200
0E0200
F80200
000000
1FFE00
000200
000200
1FFE00
100000
100000
1FFE00
ENDCHAR
STARTCHAR AC09
ENCODING 12326
SWIDTH 2000 0
DWIDTH 20 0
BBX 18 17 1 -2
BITMAP
000200
7F8200
00C200
00C200
0083C0
018200
030200
0E0200
F80200
000200
7E7E00
020200
020200
7E0200
400200
400200
7F8200
ENDCHAR
STARTCHAR AC0A
ENCODING 12327
SWIDTH 2000 0
DWIDTH 20 0
BBX 18 17 1 -2
BITMAP
000200
7F8200
00C200
00C200
0083C0
018200
030200
0E0200
F80200
000200
7E7E00
024200
024200
7E4200
404200
404200
7F7E00
ENDCHAR
STARTCHAR AC10
ENCODING 12328
SWIDTH 2000 0
DWIDTH 20 0
BBX 18 17 1 -2
BITMAP
000200
7F8200
00C200
00C200
0083C0
008200
010200
060200
3C0200
E00200
000000
3FFE00
200200
200200
200200
200200
3FFE00
ENDCHAR
STARTCHAR AC11
ENCODING 12329
SWIDTH 2000 0
DWIDTH 20 0
BBX 18 17 1 -2
BITMAP
000200
7F8200
00C200
00C200
0083C0
018200
030200
0E0200
F80200
000000
200200
200200
3FFE00
200200
200200
200200
1FFE00
ENDCHAR
STARTCHAR AC12
ENCODING 12330
SWIDTH 2000 0
DWIDTH 20 0
BBX 18 17 1 -2
BITMAP
000200
7F8200
00C200
008200
0083C0
010200
060200
F80200
000200
000200
420800
420800
7E0C00
421C00
421400
422200
7E4100
ENDCHAR
STARTCHAR AC13
ENCODING 12331
SWIDTH 2000 0
DWIDTH 20 0
BBX 18 17 1 -2
BITMAP
000200
7F8200
00C200
00C200
0083C0
008200
018200
030200
0C0200
F00200
000200
004000
004000
00A000
011000
060C00
380780
ENDCHAR
STARTCHAR AC14
ENCODING 12332
SWIDTH 2000 0
DWIDTH 20 0
BBX 18 17 1 -2
BITMAP
000200
7F8200
00C200
00C200
0083C0
008200
010200
060200
3C0200
E00200
000000
080800
080800
1C0C00
141400
363600
63E380
ENDCHAR
STARTCHAR AC15
ENCODING 12333
SWIDTH 2000 0
DWIDTH 20 0
BBX 18 18 1 -3
BITMAP
000200
7F8200
00C200
00C200
0083C0
008200
010200
060200
3C0200
E00200
000200
0FF000
300C00
400600
400200
400200
300C00
0FF000
ENDCHAR
STARTCHAR AC16
ENCODING 12334
SWIDTH 2000 0
DWIDTH 20 0
BBX 18 17 1 -2
BITMAP
000200
7F8200
00C200
00C200
0083C0
008200
010200
060200
3C0200
C00200
000000
7FFE00
008000
01C000
036000
0C3800
780E00
ENDCHAR
STARTCHAR AC17
ENCODING 12335
SWIDTH 2000 0
DWIDTH 20 0
BBX 18 17 1 -2
BITMAP
000200
7F8200
00C200
00C200
0083C0
008200
010200
060200
380200
C00200
07F000
000000
3FFE00
018000
014000
063000
381F00
ENDCHAR
STARTCHAR AC19
ENCODING 12336
SWIDTH 2000 0
DWIDTH 20 0
BBX 18 17 1 -2
BITMAP
000200
7F8200
00C200
00C200
0083C0
008200
030200
060200
780200
C00200
000000
3FFE00
200000
3FFE00
200000
200000
3FFE00
ENDCHAR
STARTCHAR AC1A
ENCODING 12337
SWIDTH 2000 0
DWIDTH 20 0
BBX 17 17 2 -2
BITMAP
000400
FF8400
008400
008400
018780
010400
020400
0C0400
F00400
000400
000000
7FFC00
081000
081000
081000
081000
7FFE00
ENDCHAR
STARTCHAR AC1B
ENCODING 12338
SWIDTH 2000 0
DWIDTH 20 0
BBX 18 18 1 -3
BITMAP
000200
7F8200
00C200
00C200
0083C0
008200
030200
060200
780200
C00200
07F000
000000
7FFF00
000000
1FFC00
300200
300600
0FFC00
ENDCHAR
STARTCHAR AC1C
ENCODING 12339
SWIDTH 2000 0
DWIDTH 20 0
BBX 16 18 2 -3
BITMAP
0021
7E21
0221
0221
0221
0221
0221
023F
0221
0421
0421
0821
1821
6021
8021
0021
0021
0021
ENDCHAR
STARTCHAR AC1D
ENCODING 12340
SWIDTH 2000 0
DWIDTH 20 0
BBX 15 18 2 -3
BITMAP
0022
FE22
0222
0222
023E
0622
0422
0C22
1822
F022
8022
0000
3FFE
0002
0002
0002
0002
0002
ENDCHAR
STARTCHAR AC20
ENCODING 12341
SWIDTH 2000 0
DWIDTH 20 0
BBX 16 16 2 -2
BITMAP
FE22
0222
0222
0222
0222
063E
0422
0822
3022
C022
0022
1022
1022
1000
1000
1FFF
ENDCHAR
STARTCHAR AC24
ENCODING 12342
SWIDTH 2000 0
DWIDTH 20 0
BBX 15 17 2 -2
BITMAP
0022
FE22
0222
0222
023E
0222
0622
0C22
3822
E022
3FFE
0002
0002
3FFE
3000
3000
1FFE
ENDCHAR
STARTCHAR AC2C
ENCODING 12343
SWIDTH 2000 0
DWIDTH 20 0
BBX 16 17 2 -2
BITMAP
0021
7E21
0221
0221
023F
0221
0621
0421
1821
F021
0000
1FFF
1001
1001
1001
1001
1FFF
ENDCHAR
STARTCHAR AC2D
ENCODING 12344
SWIDTH 2000 0
DWIDTH 20 0
BBX 15 17 3 -2
BITMAP
0042
FC42
0642
0442
047E
0442
0C42
1842
7042
8042
0000
2004
2004
3FFC
2004
2004
3FFC
ENDCHAR
STARTCHAR AC2F
ENCODING 12345
SWIDTH 2000 0
DWIDTH 20 0
BBX 16 17 2 -2
BITMAP
0022
FE22
0222
0222
023E
0222
0622
0422
0822
7022
8022
0040
00C0
00E0
0130
0618
3807
ENDCHAR
STARTCHAR AC30
ENCODING 12346
SWIDTH 2000 0
DWIDTH 20 0
BBX 16 17 2 -2
BITMAP
0022
FE22
0222
0222
023E
0222
0422
0C22
1822
F022
0002
1808
1808
1818
3C1C
2626
C3C3
ENDCHAR
STARTCHAR AC31
ENCODING 12347
SWIDTH 2000 0
DWIDTH 20 0
BBX 16 17 2 -3
BITMAP
7E21
0221
0221
0221
023F
0221
0421
0C21
7021
C021
07F8
1806
2001
2001
2001
1806
07F8
ENDCHAR
STARTCHAR AC38
ENCODING 12348
SWIDTH 2000 0
DWIDTH 20 0
BBX 17 18 1 -3
BITMAP
000400
7F8400
008400
008400
008400
008780
008400
008400
010400
010400
020400
040780
080400
300400
C00400
000400
000400
000400
ENDCHAR
STARTCHAR AC39
ENCODING 12349
SWIDTH 2000 0
DWIDTH 20 0
BBX 18 18 1 -3
BITMAP
000200
7F8200
00C200
00C3C0
008200
008200
018200
0303C0
0C0200
F00200
000200
000000
3FFE00
000200
000200
000200
000200
000200
ENDCHAR
STARTCHAR AC3C
ENCODING 12350
SWIDTH 2000 0
DWIDTH 20 0
BBX 18 17 1 -2
BITMAP
000200
7F8200
00C200
00C200
0083C0
008200
008200
010200
0603C0
780200
C00200
000200
200200
200000
200000
200000
3FFE00
ENDCHAR
STARTCHAR AC40
ENCODING 12351
SWIDTH 2000 0
DWIDTH 20 0
BBX 18 17 1 -2
BITMAP
000200
7F8200
00C200
00C3C0
008200
008200
010200
0603C0
3C0200
E00200
000000
1FFE00
000200
1FFE00
100000
100000
1FFE00
ENDCHAR
STARTCHAR AC4B
ENCODING 12352
SWIDTH 2000 0
DWIDTH 20 0
BBX 18 17 1 -2
BITMAP
000200
7F8200
00C200
00C3C0
008200
008200
018200
030200
0E03C0
780200
C00200
004200
00C000
01E000
033000
061800
780700
ENDCHAR
STARTCHAR AC4D
ENCODING 12353
SWIDTH 2000 0
DWIDTH 20 0
BBX 18 18 1 -3
BITMAP
000200
7F8200
00C200
00C3C0
008200
008200
010200
0603C0
1C0200
F00200
000000
0FF000
300C00
400600
400200
400200
300C00
0FF000
ENDCHAR
STARTCHAR AC54
ENCODING 12354
SWIDTH 2000 0
DWIDTH 20 0
BBX 15 17 2 -2
BITMAP
0022
FE22
0222
0222
0222
023E
0222
0622
0422
0422
0822
183E
3022
6022
8022
0022
0022
ENDCHAR
STARTCHAR AC58
ENCODING 12355
SWIDTH 2000 0
DWIDTH 20 0
BBX 16 17 2 -2
BITMAP
0022
FE22
0222
0222
023E
0222
0422
0422
083E
7022
C022
0022
1002
1000
1000
1000
1FFF
ENDCHAR
STARTCHAR AC5C
ENCODING 12356
SWIDTH 2000 0
DWIDTH 20 0
BBX 16 17 2 -2
BITMAP
0001
FE21
0221
023F
0221
0221
043F
0C21
3821
E000
0000
1FFF
0001
1FFF
1000
1000
1FFF
ENDCHAR
STARTCHAR AC70
ENCODING 12357
SWIDTH 2000 0
DWIDTH 20 0
BBX 15 18 2 -3
BITMAP
0002
7F82
0082
0082
0082
0082
0082
00BE
0102
0102
0202
0402
0802
3002
C002
0002
0002
0002
ENDCHAR
STARTCHAR AC71
ENCODING 12358
SWIDTH 2000 0
DWIDTH 20 0
BBX 15 18 2 -3
BITMAP
0002
7F82
0042
0042
00C2
0082
01BE
0302
0E02
F802
0002
0000
3FFE
0002
0002
0002
0002
0002
ENDCHAR
STARTCHAR AC74
ENCODING 12359
SWIDTH 2000 0
DWIDTH 20 0
BBX 16 17 2 -2
BITMAP
0002
7F82
00C2
00C2
0082
0082
00BE
0102
0602
7802
C002
0002
1002
1000
1000
1000
1FFF
ENDCHAR
STARTCHAR AC77
ENCODING 12360
SWIDTH 2000 0
DWIDTH 20 0
BBX 16 17 2 -2
BITMAP
0002
7F82
00C2
00C2
0082
00BE
0102
0602
1C02
F002
0000
1FFF
1000
1000
1000
1000
1FFF
ENDCHAR
STARTCHAR AC78
ENCODING 12361
SWIDTH 2000 0
DWIDTH 20 0
BBX 16 17 2 -2
BITMAP
0002
7F82
00C2
0082
00BE
0182
0302
0602
3802
E000
3FFE
0003
0003
1FFE
3000
3000
1FFF
ENDCHAR
STARTCHAR AC7A
ENCODING 12362
SWIDTH 2000 0
DWIDTH 20 0
BBX 16 18 2 -3
BITMAP
0002
7F82
00C2
00C2
00BE
0182
0302
0E02
F802
0000
7E3F
0221
0221
7E21
6021
6021
7F3F
7800
ENDCHAR
STARTCHAR AC80
ENCODING 12363
SWIDTH 2000 0
DWIDTH 20 0
BBX 16 17 2 -2
BITMAP
0002
7F82
00C2
00C2
0082
00BE
0182
0302
3C02
E002
0000
1FFF
1001
1001
1001
1001
1FFF
ENDCHAR
STARTCHAR AC81
ENCODING 12364
SWIDTH 2000 0
DWIDTH 20 0
BBX 15 17 2 -2
BITMAP
0002
7F82
00C2
00C2
0082
00BE
0102
0602
F802
0002
0000
1002
1002
1FFE
1002
1002
1FFE
ENDCHAR
STARTCHAR AC83
ENCODING 12365
SWIDTH 2000 0
DWIDTH 20 0
BBX 16 17 2 -2
BITMAP
0002
7F82
0082
0082
0082
00BE
0102
0302
0C02
F002
8002
0002
00C0
01C0
0320
0E18
780F
ENDCHAR
STARTCHAR AC84
ENCODING 12366
SWIDTH 2000 0
DWIDTH 20 0
BBX 16 17 2 -2
BITMAP
0002
FF82
0082
0082
0082
01BE
0302
0602
1C02
F002
0000
1808
1818
1818
3C1C
6426
C3C3
ENDCHAR
STARTCHAR AC85
ENCODING 12367
SWIDTH 2000 0
DWIDTH 20 0
BBX 16 18 2 -3
BITMAP
0001
7F81
00C1
00C1
0081
009F
0181
0301
0E01
F801
0000
07F8
1806
2001
2001
2001
1806
07F8
ENDCHAR
STARTCHAR AC86
ENCODING 12368
SWIDTH 2000 0
DWIDTH 20 0
BBX 15 17 2 -2
BITMAP
0002
7F82
00C2
00C2
00C2
00BE
0182
0302
1C02
F002
0000
7FFE
0180
01C0
0360
0C30
780E
ENDCHAR
STARTCHAR AC89
ENCODING 12369
SWIDTH 2000 0
DWIDTH 20 0
BBX 16 17 2 -2
BITMAP
0002
7F82
00C2
00C2
0082
00BE
0102
0602
1C02
E000
0000
1FFF
1000
1FFF
1000
1000
1FFF
ENDCHAR
STARTCHAR AC8A
ENCODING 12370
SWIDTH 2000 0
DWIDTH 20 0
BBX 16 17 2 -2
BITMAP
0002
7F82
0082
0082
0082
01BE
0302
0602
3802
E002
0000
3FFE
0408
0408
0408
0408
3FFF
ENDCHAR
STARTCHAR AC8B
ENCODING 12371
SWIDTH 2000 0
DWIDTH 20 0
BBX 16 18 2 -3
BITMAP
0002
7F82
0082
0082
0082
01BE
0102
0602
1C02
E002
07F0
0000
7FFF
0000
1FFC
3006
3006
0FF8
ENDCHAR
STARTCHAR AC8C
ENCODING 12372
SWIDTH 2000 0
DWIDTH 20 0
BBX 16 18 2 -3
BITMAP
0011
7E11
0211
0211
0211
0211
0211
02F1
0211
0411
0411
0811
1011
6011
8011
0011
0011
0001
ENDCHAR
STARTCHAR AC90
ENCODING 12373
SWIDTH 2000 0
DWIDTH 20 0
BBX 16 17 2 -2
BITMAP
0001
FE21
0221
0221
0221
0221
05E1
0421
0821
7021
C021
0021
1021
1000
1000
1000
1FFF
ENDCHAR
STARTCHAR AC94
ENCODING 12374
SWIDTH 2000 0
DWIDTH 20 0
BBX 16 17 2 -2
BITMAP
0022
FE23
0223
0223
02E3
0223
0623
0C23
1823
E000
0000
1FFE
0003
1FFF
1000
1000
1FFF
ENDCHAR
STARTCHAR AC9C
ENCODING 12375
SWIDTH 2000 0
DWIDTH 20 0
BBX 16 17 2 -2
BITMAP
0001
7E11
0211
0211
0211
02F1
0211
0411
0C11
7011
C000
1FFF
1001
1001
1001
1001
1FFF
ENDCHAR
STARTCHAR AC9D
ENCODING 12376
SWIDTH 2000 0
DWIDTH 20 0
BBX 16 17 2 -2
BITMAP
0001
7E11
0211
0211
0211
02F1
0611
0C11
3811
E011
0000
1001
1001
1FFF
1001
1001
1FFF
ENDCHAR
STARTCHAR AC9F
ENCODING 12377
SWIDTH 2000 0
DWIDTH 20 0
BBX 16 17 2 -2
BITMAP
0022
FE22
0222
0222
0222
03E2
0622
0422
0822
3022
C022
0000
00C0
01E0
0330
0618
7807
ENDCHAR
STARTCHAR ACA0
ENCODING 12378
SWIDTH 2000 0
DWIDTH 20 0
BBX 16 17 2 -2
BITMAP
0022
FE22
0222
0222
0222
03E2
0422
0C22
1822
6022
8002
1808
1808
1818
3C1C
2626
C3C3
ENDCHAR
STARTCHAR ACA1
ENCODING 12379
SWIDTH 2000 0
DWIDTH 20 0
BBX 16 17 2 -2
BITMAP
0011
7E11
0211
0211
0211
02F1
0611
0411
1811
7011
8001
07F8
1806
2001
2001
1806
07F8
ENDCHAR
STARTCHAR ACA8
ENCODING 12380
SWIDTH 2000 0
DWIDTH 20 0
BBX 14 18 3 -3
BITMAP
0004
FF04
0104
0104
0104
017C
0104
0104
0304
0204
047C
0C04
1804
6004
8004
0004
0004
0004
ENDCHAR
STARTCHAR ACA9
ENCODING 12381
SWIDTH 2000 0
DWIDTH 20 0
BBX 15 18 2 -3
BITMAP
0002
7F82
0042
007E
00C2
0082
0182
033E
0E02
F802
0002
0000
3FFE
0002
0002
0002
0002
0002
ENDCHAR
STARTCHAR ACAA
ENCODING 12382
SWIDTH 2000 0
DWIDTH 20 0
BBX 15 17 2 -2
BITMAP
0002
7F82
0042
00FE
00C2
0082
0182
063E
3C02
E002
0000
7F7E
0102
0102
0102
0102
0102
ENDCHAR
STARTCHAR ACAC
ENCODING 12383
SWIDTH 2000 0
DWIDTH 20 0
BBX 16 17 2 -2
BITMAP
0002
7F82
00C2
00C2
00BE
0082
0082
0102
063E
7802
C002
0002
1002
1000
1000
1000
1FFF
ENDCHAR
STARTCHAR ACAF
ENCODING 12384
SWIDTH 2000 0
DWIDTH 20 0
BBX 16 17 2 -2
BITMAP
0002
7F82
00C2
00FE
0082
0082
0102
0602
3C3E
E002
0000
1FFF
1000
1000
1000
1000
1FFF
ENDCHAR
STARTCHAR ACB0
ENCODING 12385
SWIDTH 2000 0
DWIDTH 20 0
BBX 16 17 2 -2
BITMAP
0002
7F82
00C2
00BE
0082
0082
013E
0602
1C02
E000
0000
1FFE
0003
1FFE
1000
1000
1FFF
ENDCHAR
STARTCHAR ACB8
ENCODING 12386
SWIDTH 2000 0
DWIDTH 20 0
BBX 16 17 2 -2
BITMAP
0001
7F81
00C1
00DF
0081
0081
0101
061F
1C01
F000
0000
1FFE
1002
1002
1002
1002
1FFE
ENDCHAR
STARTCHAR ACB9
ENCODING 12387
SWIDTH 2000 0
DWIDTH 20 0
BBX 16 17 2 -2
BITMAP
0002
7F82
00C2
00FE
0082
0082
0102
063E
1C02
F002
0000
1001
1001
1FFF
1001
1001
1FFF
ENDCHAR
STARTCHAR ACBB
ENCODING 12388
SWIDTH 2000 0
DWIDTH 20 0
BBX 16 17 2 -2
BITMAP
0002
7F82
0082
00BE
0082
0182
0302
0602
1C3E
F002
0002
0082
00C0
0140
0220
0C18
700F
ENDCHAR
STARTCHAR ACBC
ENCODING 12389
SWIDTH 2000 0
DWIDTH 20 0
BBX 16 17 2 -2
BITMAP
0002
FF82
0082
00BE
0082
0102
0302
0602
183E
E002
0002
1808
1818
1818
3C3C
6626
C3C3
ENDCHAR
STARTCHAR ACBD
ENCODING 12390
SWIDTH 2000 0
DWIDTH 20 0
BBX 16 18 2 -3
BITMAP
0002
7F82
00C2
00BE
0082
0082
0102
0602
0C3E
F002
0002
07F8
1806
2003
2001
2001
1806
07F8
ENDCHAR
STARTCHAR ACC1
ENCODING 12391
SWIDTH 2000 0
DWIDTH 20 0
BBX 16 17 2 -2
BITMAP
0002
7F82
00C2
00FE
0082
0082
0102
061E
1C02
F002
0000
1FFF
1000
1FFE
1000
1000
1FFF
ENDCHAR
STARTCHAR ACC4
ENCODING 12392
SWIDTH 2000 0
DWIDTH 20 0
BBX 16 18 2 -3
BITMAP
0011
7E11
0211
0211
02F1
0211
0211
0211
0211
0411
04F1
0811
1011
6011
8011
0011
0011
0001
ENDCHAR
STARTCHAR ACC8
ENCODING 12393
SWIDTH 2000 0
DWIDTH 20 0
BBX 16 17 2 -2
BITMAP
0022
FE22
0222
03E2
0222
0222
0422
0422
09E2
7022
C022
0022
1002
1000
1000
1000
1FFF
ENDCHAR
STARTCHAR ACCC
ENCODING 12394
SWIDTH 2000 0
DWIDTH 20 0
BBX 16 17 2 -2
BITMAP
0021
FE21
03E1
0221
0221
0221
05E1
0C21
7021
C001
0FFF
0001
0001
0FFF
0800
0800
0FFF
ENDCHAR
STARTCHAR ACD5
ENCODING 12395
SWIDTH 2000 0
DWIDTH 20 0
BBX 16 17 2 -2
BITMAP
0011
7E11
02F1
0211
0211
0211
04F1
0C11
7011
C001
0000
1001
1001
1FFF
1001
1001
1FFF
ENDCHAR
STARTCHAR ACD7
ENCODING 12396
SWIDTH 2000 0
DWIDTH 20 0
BBX 16 17 2 -2
BITMAP
0022
FE22
0222
03E2
0222
0222
0422
0DE2
1822
7022
C022
0002
00C0
01E0
0330
0618
7807
ENDCHAR
STARTCHAR ACE0
ENCODING 12397
SWIDTH 2000 0
DWIDTH 20 0
BBX 16 15 2 -1
BITMAP
7FFC
0004
0004
0004
0004
0004
0004
0204
0204
0204
0204
020C
0200
0200
FFFF
ENDCHAR
STARTCHAR ACE1
ENCODING 12398
SWIDTH 2000 0
DWIDTH 20 0
BBX 16 16 2 -2
BITMAP
7FFC
0004
0004
0104
0104
0104
0104
FFFF
0000
0000
7FFC
0004
0004
0004
0004
0004
ENDCHAR
STARTCHAR ACE4
ENCODING 12399
SWIDTH 2000 0
DWIDTH 20 0
BBX 16 16 2 -2
BITMAP
7FFC
0004
0004
0104
0104
0104
0104
0104
FFFF
0000
0000
2000
2000
2000
2000
3FFE
ENDCHAR
STARTCHAR ACE7
ENCODING 12400
SWIDTH 2000 0
DWIDTH 20 0
BBX 16 16 2 -2
BITMAP
7FFC
0004
0004
0104
0104
0104
0104
FFFF
0000
0000
3FFE
2000
2000
2000
2000
3FFE
ENDCHAR
STARTCHAR ACE8
ENCODING 12401
SWIDTH 2000 0
DWIDTH 20 0
BBX 16 16 2 -2
BITMAP
7FFC
0006
0004
0304
0304
0304
FFFF
0000
0000
7FFC
0004
0004
7FFC
4000
4000
7FFE
ENDCHAR
STARTCHAR ACEA
ENCODING 12402
SWIDTH 2000 0
DWIDTH 20 0
BBX 16 17 2 -3
BITMAP
7FFC
0004
0004
0104
0104
0104
0104
FFFF
0000
7E7E
0242
0242
7E42
4042
4042
7F7E
7800
ENDCHAR
STARTCHAR ACEC
ENCODING 12403
SWIDTH 2000 0
DWIDTH 20 0
BBX 16 16 2 -2
BITMAP
7FFC
0004
0004
0104
0104
0104
0104
FFFF
0000
0000
7E18
0218
3E18
6028
6066
3EC3
ENDCHAR
STARTCHAR ACEF
ENCODING 12404
SWIDTH 2000 0
DWIDTH 20 0
BBX 16 16 2 -2
BITMAP
3FFE
0002
0102
0102
0106
0106
FFFF
0000
0000
7E3C
0200
02FF
7E7C
40C2
40C2
7E7C
ENDCHAR
STARTCHAR ACF0
ENCODING 12405
SWIDTH 2000 0
DWIDTH 20 0
BBX 16 16 2 -2
BITMAP
7FFC
0004
0004
0104
0104
0104
0104
FFFF
0000
0000
3FFC
2004
2004
2004
2004
3FFC
ENDCHAR
STARTCHAR ACF1
ENCODING 12406
SWIDTH 2000 0
DWIDTH 20 0
BBX 16 16 2 -2
BITMAP
7FFC
0004
0004
0104
0104
0104
0104
FFFF
0000
2004
2004
3FFC
2004
2004
2004
3FFC
ENDCHAR
STARTCHAR ACF3
ENCODING 12407
SWIDTH 2000 0
DWIDTH 20 0
BBX 16 16 2 -2
BITMAP
7FFC
0004
0004
0104
0104
0104
0104
0104
FFFF
0000
0180
0180
03C0
0660
1830
F00E
ENDCHAR
STARTCHAR ACF5
ENCODING 12408
SWIDTH 2000 0
DWIDTH 20 0
BBX 16 16 2 -2
BITMAP
7FFC
0004
0104
0104
0104
0104
0104
FFFF
0000
0000
0FF0
300C
4002
4002
300C
0FF0
ENDCHAR
STARTCHAR ACF6
ENCODING 12409
SWIDTH 2000 0
DWIDTH 20 0
BBX 16 16 2 -2
BITMAP
7FFC
0004
0004
0104
0104
0104
0104
FFFF
0000
0000
7FFE
0180
03C0
0660
1C38
600E
ENDCHAR
STARTCHAR ACFC
ENCODING 12410
SWIDTH 2000 0
DWIDTH 20 0
BBX 18 18 1 -3
BITMAP
000200
3FE200
002200
002200
002200
002200
004200
0843C0
084200
084200
084200
088200
080200
FFFE00
000200
000200
000200
000200
ENDCHAR
STARTCHAR ACFD
ENCODING 12411
SWIDTH 2000 0
DWIDTH 20 0
BBX 18 18 1 -3
BITMAP
000200
3FE200
002200
002200
082200
0823C0
082200
086200
FFFE00
000200
000200
000000
3FFE00
000200
000200
000200
000200
000200
ENDCHAR
STARTCHAR AD00
ENCODING 12412
SWIDTH 2000 0
DWIDTH 20 0
BBX 18 17 1 -2
BITMAP
000200
3FE200
002200
002200
002200
082200
0823C0
082200
086200
FFFE00
000200
000200
200200
200000
200000
200000
3FFE00
ENDCHAR
STARTCHAR AD04
ENCODING 12413
SWIDTH 2000 0
DWIDTH 20 0
BBX 18 17 1 -2
BITMAP
000200
7FE200
002200
002200
0C2200
0C23C0
0C6200
0C4600
FFFA00
000200
000000
3FFE00
000200
3FFE00
200000
200000
3FFE00
ENDCHAR
STARTCHAR AD06
ENCODING 12414
SWIDTH 2000 0
DWIDTH 20 0
BBX 18 17 1 -2
BITMAP
000200
3FE200
002200
082200
0823C0
082200
086200
FFFE00
000200
000000
7E7E00
024200
024200
7E4200
404200
404200
7F7E00
ENDCHAR
STARTCHAR AD0C
ENCODING 12577
SWIDTH 2000 0
DWIDTH 20 0
BBX 18 17 1 -2
BITMAP
000200
3FE200
002200
002200
0823C0
082200
082200
086200
FFFE00
000200
000000
3FFE00
200200
200200
200200
200200
3FFE00
ENDCHAR
STARTCHAR AD0D
ENCODING 12578
SWIDTH 2000 0
DWIDTH 20 0
BBX 18 17 1 -2
BITMAP
000200
3FE200
002200
002200
0823C0
082200
082200
086600
FFFA00
000200
000000
200200
200200
3FFE00
200200
200200
3FFE00
ENDCHAR
STARTCHAR AD0F
ENCODING 12579
SWIDTH 2000 0
DWIDTH 20 0
BBX 18 17 1 -2
BITMAP
000200
3FE200
002200
002200
0823C0
082200
082200
082200
086600
FFFA00
000200
004200
00C000
01E000
033000
0E1800
780700
ENDCHAR
STARTCHAR AD11
ENCODING 12580
SWIDTH 2000 0
DWIDTH 20 0
BBX 18 17 1 -2
BITMAP
000200
3FE200
002200
002200
0823C0
082200
082200
086200
FFFE00
000200
07F200
181C00
300600
200200
300600
180C00
07F000
ENDCHAR
STARTCHAR AD18
ENCODING 12581
SWIDTH 2000 0
DWIDTH 20 0
BBX 15 18 2 -3
BITMAP
0022
3F22
0122
0122
0122
0122
0122
113E
1122
1122
1122
1022
1062
FFA2
0022
0022
0022
0002
ENDCHAR
STARTCHAR AD1C
ENCODING 12582
SWIDTH 2000 0
DWIDTH 20 0
BBX 16 17 2 -2
BITMAP
0022
7E22
0222
0222
1222
123E
1222
1222
1222
FFE2
0022
0022
1022
1000
1000
1000
1FFF
ENDCHAR
STARTCHAR AD20
ENCODING 12583
SWIDTH 2000 0
DWIDTH 20 0
BBX 16 17 2 -2
BITMAP
0022
7F22
0122
0122
1122
113E
1222
1022
FFE2
0022
0000
1FFE
0002
1FFE
1000
1000
1FFF
ENDCHAR
STARTCHAR AD29
ENCODING 12584
SWIDTH 2000 0
DWIDTH 20 0
BBX 15 17 2 -2
BITMAP
0022
7F22
0122
0122
1122
113E
1122
1022
FFE2
0022
0000
1002
1002
1FFE
1002
1002
1FFE
ENDCHAR
STARTCHAR AD2C
ENCODING 12585
SWIDTH 2000 0
DWIDTH 20 0
BBX 16 17 2 -2
BITMAP
0022
7E22
0222
0222
1222
123E
1222
1022
13E2
FC22
0000
1818
1818
1818
3C3C
6666
C3C3
ENDCHAR
STARTCHAR AD2D
ENCODING 12586
SWIDTH 2000 0
DWIDTH 20 0
BBX 15 18 2 -3
BITMAP
0022
7F22
0122
0122
1122
113E
1122
1222
13E2
FC22
0002
07F0
181C
2006
2002
3002
180C
07F0
ENDCHAR
STARTCHAR AD34
ENCODING 12587
SWIDTH 2000 0
DWIDTH 20 0
BBX 15 18 2 -3
BITMAP
0002
7FC2
0042
0042
0042
0042
0042
0842
0842
0842
0842
0802
0806
FFFA
0002
0002
0002
0002
ENDCHAR
STARTCHAR AD35
ENCODING 12588
SWIDTH 2000 0
DWIDTH 20 0
BBX 14 18 3 -3
BITMAP
0004
FF84
0084
0084
0884
0884
0884
080C
FFF4
0004
0004
0000
7FFC
0004
0004
0004
0004
0004
ENDCHAR
STARTCHAR AD38
ENCODING 12589
SWIDTH 2000 0
DWIDTH 20 0
BBX 15 17 2 -2
BITMAP
0002
7FC2
0042
0042
0842
0842
0842
0842
0806
FFFA
0002
0002
2002
2000
2000
2000
3FFE
ENDCHAR
STARTCHAR AD3C
ENCODING 12590
SWIDTH 2000 0
DWIDTH 20 0
BBX 16 16 2 -2
BITMAP
7FC2
0062
0042
0842
0C42
0C42
0C06
FFFA
0002
0002
3FFE
0002
1FFE
1000
1000
1FFF
ENDCHAR
STARTCHAR AD44
ENCODING 12591
SWIDTH 2000 0
DWIDTH 20 0
BBX 14 16 3 -2
BITMAP
FF84
0084
0084
0884
0884
0884
080C
FFF4
0004
0004
3FFC
2004
2004
2004
2004
3FFC
ENDCHAR
STARTCHAR AD45
ENCODING 12592
SWIDTH 2000 0
DWIDTH 20 0
BBX 14 16 3 -2
BITMAP
FF84
0084
0084
0884
0884
0884
080C
FFF4
0004
0000
2004
2004
3FFC
2004
2004
3FFC
ENDCHAR
STARTCHAR AD47
ENCODING 12593
SWIDTH 2000 0
DWIDTH 20 0
BBX 16 17 2 -2
BITMAP
0002
7FC2
0042
0042
0842
0842
0842
0846
09FA
FE02
0002
0080
00C0
0140
0220
0C18
700F
ENDCHAR
STARTCHAR AD49
ENCODING 12594
SWIDTH 2000 0
DWIDTH 20 0
BBX 14 17 3 -2
BITMAP
0004
FF84
0084
0084
0884
0884
0884
080C
FFF4
0004
0004
0FE0
3018
4004
4004
3018
0FE0
ENDCHAR
STARTCHAR AD50
ENCODING 12595
SWIDTH 2000 0
DWIDTH 20 0
BBX 16 15 2 -1
BITMAP
7FFC
0004
0004
0004
0004
0004
0004
0844
0844
0844
0844
0844
0844
0840
FFFF
ENDCHAR
STARTCHAR AD54
ENCODING 12596
SWIDTH 2000 0
DWIDTH 20 0
BBX 16 16 2 -2
BITMAP
7FFC
0006
0006
0006
0846
0844
0844
0840
FFFF
0000
2000
2000
2000
2000
2000
3FFE
ENDCHAR
STARTCHAR AD58
ENCODING 12597
SWIDTH 2000 0
DWIDTH 20 0
BBX 17 16 2 -2
BITMAP
7FFC00
000400
000400
000400
082400
082400
082000
FFFF80
000000
7FFC00
000400
000400
7FFC00
400000
400000
7FFC00
ENDCHAR
STARTCHAR AD61
ENCODING 12598
SWIDTH 2000 0
DWIDTH 20 0
BBX 16 16 2 -2
BITMAP
7FFC
0006
0006
0846
0846
0844
0840
FFFF
0000
2004
2004
3FFC
2004
2004
2004
3FFC
ENDCHAR
STARTCHAR AD63
ENCODING 12599
SWIDTH 2000 0
DWIDTH 20 0
BBX 16 16 2 -2
BITMAP
7FFC
0006
0006
0006
0846
0844
0844
0840
FFFF
0000
0080
0180
0140
0660
0C38
700E
ENDCHAR
STARTCHAR AD6C
ENCODING 12600
SWIDTH 2000 0
DWIDTH 20 0
BBX 17 17 2 -3
BITMAP
3FFE00
000200
000200
000200
000200
000200
000200
000200
000200
FFFF80
008000
008000
008000
008000
008000
008000
008000
ENDCHAR
STARTCHAR AD6D
ENCODING 12601
SWIDTH 2000 0
DWIDTH 20 0
BBX 16 16 2 -2
BITMAP
7FFC
0004
0004
0004
0004
0004
FFFF
0080
0080
0080
3FFE
0002
0002
0002
0002
0002
ENDCHAR
STARTCHAR AD70
ENCODING 12602
SWIDTH 2000 0
DWIDTH 20 0
BBX 16 16 2 -2
BITMAP
7FFC
0004
0004
0004
0004
0004
0004
FFFF
0080
0080
0080
2080
2000
2000
2000
3FFE
ENDCHAR
STARTCHAR AD73
ENCODING 12603
SWIDTH 2000 0
DWIDTH 20 0
BBX 16 16 2 -2
BITMAP
7FFC
0004
0004
0004
0004
0004
FFFF
0080
0080
0080
3FFE
2000
2000
2000
2000
3FFE
ENDCHAR
STARTCHAR AD74
ENCODING 12604
SWIDTH 2000 0
DWIDTH 20 0
BBX 16 16 2 -2
BITMAP
7FFC
0006
0004
0004
0004
0004
FFFF
0180
0180
7FFC
0006
0006
3FFC
6000
6000
3FFE
ENDCHAR
STARTCHAR AD75
ENCODING 12605
SWIDTH 2000 0
DWIDTH 20 0
BBX 15 16 2 -2
BITMAP
7FFC
0004
0004
0004
0004
0004
FFFE
0080
0080
7EBE
0202
0202
7E02
4002
4002
7F02
ENDCHAR
STARTCHAR AD76
ENCODING 12606
SWIDTH 2000 0
DWIDTH 20 0
BBX 16 17 2 -3
BITMAP
7FFC
0004
0004
0004
0004
FFFF
0100
0100
0100
7C7E
0642
0642
7C42
C042
C042
FF7E
7000
ENDCHAR
STARTCHAR AD7B
ENCODING 12607
SWIDTH 2000 0
DWIDTH 20 0
BBX 17 16 1 -2
BITMAP
3FFE00
000200
000200
000200
000200
FFFF80
008000
008000
009E00
7E0000
027F80
020000
3E3F00
206100
206100
3FBE00
ENDCHAR
STARTCHAR AD7C
ENCODING 12608
SWIDTH 2000 0
DWIDTH 20 0
BBX 16 16 1 -2
BITMAP
3FFE
0002
0002
0002
0002
0002
FFFF
0080
0080
0080
1FFF
1001
1001
1001
1001
1FFF
ENDCHAR
STARTCHAR AD7D
ENCODING 12609
SWIDTH 2000 0
DWIDTH 20 0
BBX 17 16 1 -2
BITMAP
3FFE00
000200
000200
000200
000200
000200
FFFF80
008000
008000
108200
100200
1FFE00
100200
100200
100200
1FFE00
ENDCHAR
STARTCHAR AD7F
ENCODING 12610
SWIDTH 2000 0
DWIDTH 20 0
BBX 17 16 1 -2
BITMAP
3FFE00
000200
000200
000200
000200
000200
000200
FFFF80
008000
008000
008000
00C000
00C000
033000
0E1800
780700
ENDCHAR
STARTCHAR AD81
ENCODING 12611
SWIDTH 2000 0
DWIDTH 20 0
BBX 17 16 1 -2
BITMAP
3FFE00
000200
000200
000200
000200
000200
FFFF80
008000
008000
07F000
1C0E00
300300
200100
300300
1C0E00
07F000
ENDCHAR
STARTCHAR AD82
ENCODING 12612
SWIDTH 2000 0
DWIDTH 20 0
BBX 15 17 2 -3
BITMAP
7FFC
0004
0004
0004
0004
0004
FFFE
0100
0100
0100
0000
7FFC
0300
0680
0C60
703C
4000
ENDCHAR
STARTCHAR AD88
ENCODING 12613
SWIDTH 2000 0
DWIDTH 20 0
BBX 14 18 3 -3
BITMAP
0004
7F84
0084
0084
0084
0084
0084
0084
00FC
FF04
0404
047C
0404
0404
0404
0404
0404
0400
ENDCHAR
STARTCHAR AD89
ENCODING 12614
SWIDTH 2000 0
DWIDTH 20 0
BBX 15 18 2 -3
BITMAP
0002
3FC2
0042
0042
0042
0042
FFFE
0402
043E
0402
0002
0000
3FFE
0002
0002
0002
0002
0002
ENDCHAR
STARTCHAR AD8C
ENCODING 12615
SWIDTH 2000 0
DWIDTH 20 0
BBX 16 17 2 -2
BITMAP
0002
3FC2
0042
0042
0042
0042
0042
FFFE
0402
0402
043E
0402
1002
1002
1000
1000
1FFF
ENDCHAR
STARTCHAR AD90
ENCODING 12616
SWIDTH 2000 0
DWIDTH 20 0
BBX 15 17 2 -2
BITMAP
0002
3FC2
0042
0042
0042
007E
FF82
0402
047E
0402
0000
3FFE
0002
1FFE
3000
3000
1FFE
ENDCHAR
STARTCHAR AD9C
ENCODING 12617
SWIDTH 2000 0
DWIDTH 20 0
BBX 16 17 2 -2
BITMAP
0002
3FC2
0042
0042
0042
0042
FFFE
0402
043E
040E
0002
101A
1818
1818
2C3C
6666
83C1
ENDCHAR
STARTCHAR AD9D
ENCODING 12618
SWIDTH 2000 0
DWIDTH 20 0
BBX 15 17 2 -2
BITMAP
0002
3FC2
0042
0042
0042
0042
FFFE
0402
043E
0402
0002
0FF0
180C
2002
2002
180C
07F0
ENDCHAR
STARTCHAR ADA4
ENCODING 12619
SWIDTH 2000 0
DWIDTH 20 0
BBX 14 18 3 -3
BITMAP
0004
FC44
0444
0444
0444
0444
0444
0444
07C4
FFC4
1044
13C4
1044
1044
1044
1044
1044
0004
ENDCHAR
STARTCHAR ADB7
ENCODING 12620
SWIDTH 2000 0
DWIDTH 20 0
BBX 16 17 2 -2
BITMAP
0012
3F12
0112
0112
0112
0112
01F2
FE12
0812
08F2
0812
0892
00C0
01E0
0330
0C18
7807
ENDCHAR
STARTCHAR ADC0
ENCODING 12621
SWIDTH 2000 0
DWIDTH 20 0
BBX 14 17 3 -3
BITMAP
7F84
0084
0084
0084
0084
0084
0084
0084
FFFC
0404
0404
0404
0404
0404
0404
0404
0004
ENDCHAR
STARTCHAR ADC1
ENCODING 12622
SWIDTH 2000 0
DWIDTH 20 0
BBX 14 17 3 -3
BITMAP
7FC4
0044
0044
0044
0044
0044
FFFC
0404
0404
0404
0000
7FFC
0004
0004
0004
0004
0004
ENDCHAR
STARTCHAR ADC4
ENCODING 12623
SWIDTH 2000 0
DWIDTH 20 0
BBX 16 17 2 -2
BITMAP
0002
7FC2
0042
0042
0042
0042
0042
0046
FFFA
0202
0202
0202
1202
1000
1000
1000
1FFF
ENDCHAR
STARTCHAR ADC8
ENCODING 12624
SWIDTH 2000 0
DWIDTH 20 0
BBX 16 16 2 -2
BITMAP
7FC2
0042
0042
0042
0042
0042
FFFE
0602
0602
0000
1FFE
0003
1FFE
1000
1000
1FFF
ENDCHAR
STARTCHAR ADD0
ENCODING 12625
SWIDTH 2000 0
DWIDTH 20 0
BBX 14 17 3 -2
BITMAP
0004
FF84
0084
0084
0084
0084
008C
FFFC
0404
0404
0000
3FFC
2004
2004
2004
2004
3FFC
ENDCHAR
STARTCHAR ADD1
ENCODING 12626
SWIDTH 2000 0
DWIDTH 20 0
BBX 15 17 3 -2
BITMAP
0004
FF84
0084
0084
0084
0084
008C
FFFC
0404
0404
0400
2002
2002
3FFE
2002
2002
3FFE
ENDCHAR
STARTCHAR ADD3
ENCODING 12627
SWIDTH 2000 0
DWIDTH 20 0
BBX 16 17 2 -2
BITMAP
0002
7FC2
0042
0042
0042
0042
0042
FFFE
0402
0402
0402
0080
00C0
01E0
0330
0C18
7807
ENDCHAR
STARTCHAR ADDC
ENCODING 12628
SWIDTH 2000 0
DWIDTH 20 0
BBX 16 17 2 -3
BITMAP
7FFC
0004
0004
0004
0004
0004
0004
0004
FFFF
0810
0810
0810
0810
0810
0810
0810
0010
ENDCHAR
STARTCHAR ADE0
ENCODING 12629
SWIDTH 2000 0
DWIDTH 20 0
BBX 16 16 2 -2
BITMAP
7FFC
0004
0004
0004
0004
0004
0004
FFFF
0410
0410
0410
4410
4010
4000
4000
7FFE
ENDCHAR
STARTCHAR ADE4
ENCODING 12630
SWIDTH 2000 0
DWIDTH 20 0
BBX 16 16 2 -2
BITMAP
7FFC
0004
0004
0004
0004
0004
FFFF
0810
0810
7FFC
0006
0006
3FFC
6000
6000
3FFE
ENDCHAR
STARTCHAR ADF8
ENCODING 12631
SWIDTH 2000 0
DWIDTH 20 0
BBX 15 15 3 -1
BITMAP
7FF8
0008
0008
0008
0008
0008
0008
0008
0008
0008
0008
0008
0008
0008
FFFE
ENDCHAR
STARTCHAR ADF9
ENCODING 12632
SWIDTH 2000 0
DWIDTH 20 0
BBX 16 16 2 -2
BITMAP
7FFC
0004
0004
0004
0004
0004
0004
FFFF
0000
0000
7FFC
0004
0004
0004
0004
0004
ENDCHAR
STARTCHAR ADFC
ENCODING 12633
SWIDTH 2000 0
DWIDTH 20 0
BBX 16 16 2 -2
BITMAP
7FFC
0004
0004
0004
0004
0004
0004
FFFF
0000
0000
2000
2000
2000
2000
2000
3FFE
ENDCHAR
STARTCHAR ADFF
ENCODING 12634
SWIDTH 2000 0
DWIDTH 20 0
BBX 16 16 2 -2
BITMAP
7FFC
0004
0004
0004
0004
0004
0004
FFFF
0000
0000
3FFE
2000
2000
2000
2000
3FFE
ENDCHAR
STARTCHAR AE00
ENCODING 12635
SWIDTH 2000 0
DWIDTH 20 0
BBX 16 16 2 -2
BITMAP
7FFC
0006
0004
0004
0004
0004
FFFF
0000
0000
7FFC
0006
0006
3FFC
2000
2000
3FFE
ENDCHAR
STARTCHAR AE01
ENCODING 12636
SWIDTH 2000 0
DWIDTH 20 0
BBX 16 16 2 -2
BITMAP
7FFC
0004
0004
0004
0004
0004
FFFF
0000
0000
7EFC
0604
0604
7E04
4004
4004
7F04
ENDCHAR
STARTCHAR AE08
ENCODING 12637
SWIDTH 2000 0
DWIDTH 20 0
BBX 16 16 2 -2
BITMAP
7FFC
0004
0004
0004
0004
0004
FFFF
0000
0000
0000
3FFE
2002
2002
2002
2002
3FFE
ENDCHAR
STARTCHAR AE09
ENCODING 12638
SWIDTH 2000 0
DWIDTH 20 0
BBX 16 16 2 -2
BITMAP
7FFC
0004
0004
0004
0004
0004
FFFF
0000
0000
2004
2004
3FFC
2004
2004
2004
3FFC
ENDCHAR
STARTCHAR AE0B
ENCODING 12639
SWIDTH 2000 0
DWIDTH 20 0
BBX 16 16 2 -2
BITMAP
7FFC
0004
0004
0004
0004
0004
0004
FFFF
0000
0000
0080
01C0
0140
0220
0C18
700F
ENDCHAR
STARTCHAR AE0D
ENCODING 12640
SWIDTH 2000 0
DWIDTH 20 0
BBX 16 16 2 -2
BITMAP
7FFC
0004
0004
0004
0004
0004
0004
FFFF
0000
07F0
181C
3006
2002
3006
180C
07F0
ENDCHAR
STARTCHAR AE14
ENCODING 12641
SWIDTH 2000 0
DWIDTH 20 0
BBX 15 18 2 -3
BITMAP
0002
7FC2
0042
0042
0042
0042
0042
0042
0042
0042
0042
0042
0042
FFFE
0002
0002
0002
0002
ENDCHAR
STARTCHAR AE30
ENCODING 12642
SWIDTH 2000 0
DWIDTH 20 0
BBX 14 18 3 -3
BITMAP
0004
7F84
0084
0084
0084
0084
0084
0084
0184
0104
0304
0604
0C04
F004
8004
0004
0004
0004
ENDCHAR
STARTCHAR AE31
ENCODING 12643
SWIDTH 2000 0
DWIDTH 20 0
BBX 16 18 2 -3
BITMAP
0002
7F82
00C2
00C2
0082
0082
0082
0102
0602
7802
C000
1FFF
0001
0001
0001
0001
0001
0001
ENDCHAR
STARTCHAR AE34
ENCODING 12644
SWIDTH 2000 0
DWIDTH 20 0
BBX 16 17 2 -2
BITMAP
0002
7F82
00C2
00C2
0082
0082
0082
0182
0302
1C02
F002
0002
1002
1000
1000
1000
1FFF
ENDCHAR
STARTCHAR AE37
ENCODING 12645
SWIDTH 2000 0
DWIDTH 20 0
BBX 16 17 2 -2
BITMAP
0002
7F82
00C2
00C2
0082
0082
0182
0302
0C02
F002
0000
1FFF
1000
1000
1000
1000
1FFF
ENDCHAR
STARTCHAR AE38
ENCODING 12646
SWIDTH 2000 0
DWIDTH 20 0
BBX 15 17 2 -2
BITMAP
0002
7F82
00C2
0082
0082
0082
0102
0202
1C02
E002
0000
1FFE
0002
1FFE
3000
3000
1FFE
ENDCHAR
STARTCHAR AE3A
ENCODING 12647
SWIDTH 2000 0
DWIDTH 20 0
BBX 16 18 2 -3
BITMAP
0002
7F82
00C2
00C2
0082
0082
0102
0602
F802
0000
7E3F
0221
0221
7E21
6021
6021
7F3F
7800
ENDCHAR
STARTCHAR AE40
ENCODING 12648
SWIDTH 2000 0
DWIDTH 20 0
BBX 16 17 2 -2
BITMAP
0002
7F82
00C2
00C2
0082
0082
0182
0302
0E02
F002
0000
1FFF
1001
1001
1001
1001
1FFF
ENDCHAR
STARTCHAR AE41
ENCODING 12649
SWIDTH 2000 0
DWIDTH 20 0
BBX 16 17 2 -2
BITMAP
0001
7F81
00C1
00C1
0081
0081
0101
0601
7C01
C000
1001
1001
1FFF
1001
1001
1001
1FFE
ENDCHAR
STARTCHAR AE43
ENCODING 12650
SWIDTH 2000 0
DWIDTH 20 0
BBX 16 17 2 -2
BITMAP
0002
FF82
0082
0082
0082
0082
0182
0302
0602
7802
C002
0080
00C0
01E0
0330
0E18
7807
ENDCHAR
STARTCHAR AE45
ENCODING 12651
SWIDTH 2000 0
DWIDTH 20 0
BBX 16 18 2 -3
BITMAP
0001
7F81
00C1
00C1
0081
0081
0181
0301
0E01
F001
07F0
180C
3006
2002
2002
3006
181C
07F0
ENDCHAR
STARTCHAR AE46
ENCODING 12652
SWIDTH 2000 0
DWIDTH 20 0
BBX 16 17 2 -2
BITMAP
0002
7FC2
00C2
00C2
0082
0082
0102
0202
1C02
E000
0000
7FFF
0080
01C0
0360
0E18
780F
ENDCHAR
STARTCHAR AE4A
ENCODING 12653
SWIDTH 2000 0
DWIDTH 20 0
BBX 16 17 2 -2
BITMAP
0002
FF82
0082
0082
0082
0182
0302
0602
3802
E000
0000
3FFE
0408
0408
0408
0408
3FFF
ENDCHAR
STARTCHAR AE4C
ENCODING 12654
SWIDTH 2000 0
DWIDTH 20 0
BBX 18 17 1 -2
BITMAP
000200
F9E200
082200
082200
082200
082200
082200
0823C0
082200
082200
182200
106200
304200
60C200
C18200
000200
000200
ENDCHAR
STARTCHAR AE4D
ENCODING 12655
SWIDTH 2000 0
DWIDTH 20 0
BBX 18 18 1 -3
BITMAP
000200
7DE200
043200
043200
043200
0423C0
0C2200
086200
30C200
E18200
010200
000000
3FFE00
000200
000200
000200
000200
000200
ENDCHAR
STARTCHAR AE4E
ENCODING 12656
SWIDTH 2000 0
DWIDTH 20 0
BBX 18 17 1 -2
BITMAP
000200
7DE200
043200
043200
0423C0
042200
082200
184200
30C200
C18000
000000
7E7E00
020200
020200
020200
020200
020200
ENDCHAR
STARTCHAR AE50
ENCODING 12657
SWIDTH 2000 0
DWIDTH 20 0
BBX 18 17 1 -2
BITMAP
000200
7FE200
042200
042200
042200
042200
0423C0
084200
184200
308200
C30200
000200
200200
200000
200000
200000
3FFF00
ENDCHAR
STARTCHAR AE54
ENCODING 12658
SWIDTH 2000 0
DWIDTH 20 0
BBX 18 17 1 -2
BITMAP
000200
7DE200
043200
043200
0423C0
0C2200
082200
104200
60C200
810000
000000
3FFE00
000200
1FFE00
300000
300000
1FFF00
ENDCHAR
STARTCHAR AE56
ENCODING 12659
SWIDTH 2000 0
DWIDTH 20 0
BBX 18 18 1 -3
BITMAP
000200
7DE200
043200
043200
042200
0823C0
086200
104200
608200
830200
7E7E00
024200
024200
7E4200
404200
404200
7F7E00
780000
ENDCHAR
STARTCHAR AE5C
ENCODING 12660
SWIDTH 2000 0
DWIDTH 20 0
BBX 18 17 1 -2
BITMAP
000200
7DE200
043200
043200
042200
0423C0
082200
184200
70C200
C38200
000000
1FFE00
100200
100200
100200
100200
1FFE00
ENDCHAR
STARTCHAR AE5D
ENCODING 12661
SWIDTH 2000 0
DWIDTH 20 0
BBX 18 17 1 -2
BITMAP
000200
7DE200
043200
043200
042200
0423C0
082200
184200
70C200
C18200
100200
100200
1FFE00
100200
100200
100200
1FFE00
ENDCHAR
STARTCHAR AE5F
ENCODING 12662
SWIDTH 2000 0
DWIDTH 20 0
BBX 17 16 2 -2
BITMAP
FFC400
084400
084400
084400
084400
184780
108400
218400
C30400
060400
008400
018000
03C000
066000
1C3000
F00E00
ENDCHAR
STARTCHAR AE60
ENCODING 12663
SWIDTH 2000 0
DWIDTH 20 0
BBX 18 17 1 -2
BITMAP
000200
7DE200
043200
043200
043200
0423C0
0C2200
086200
304200
E18200
010000
080C00
0C0C00
0C0C00
1C1E00
323300
61E180
ENDCHAR
STARTCHAR AE61
ENCODING 12664
SWIDTH 2000 0
DWIDTH 20 0
BBX 18 18 1 -3
BITMAP
000200
7DE200
043200
043200
042200
0C23C0
082200
184200
30C200
C18200
000200
07F000
180C00
200600
200200
200200
180C00
07F000
ENDCHAR
STARTCHAR AE65
ENCODING 12665
SWIDTH 2000 0
DWIDTH 20 0
BBX 18 17 1 -2
BITMAP
000200
7DE200
043200
043200
042200
0423C0
082200
184200
70C200
C18200
000000
3FFE00
200000
3FFE00
200000
200000
3FFE00
ENDCHAR
STARTCHAR AE68
ENCODING 12666
SWIDTH 2000 0
DWIDTH 20 0
BBX 15 18 2 -3
BITMAP
0012
7F92
0892
0892
0892
0892
0892
1892
109E
1092
1092
3192
2112
6112
C612
0412
0012
0002
ENDCHAR
STARTCHAR AE69
ENCODING 12667
SWIDTH 2000 0
DWIDTH 20 0
BBX 14 18 3 -3
BITMAP
0024
FF24
1124
1124
1124
113C
1124
2224
6224
CC24
0824
0000
7FFC
0004
0004
0004
0004
0004
ENDCHAR
STARTCHAR AE6C
ENCODING 12668
SWIDTH 2000 0
DWIDTH 20 0
BBX 16 17 2 -2
BITMAP
0002
77A2
10A2
10A2
10A2
10A2
10BE
21A2
2122
C322
0422
0022
1022
1000
1000
1000
1FFF
ENDCHAR
STARTCHAR AE70
ENCODING 12669
SWIDTH 2000 0
DWIDTH 20 0
BBX 16 17 2 -2
BITMAP
0012
FF92
0892
0892
189E
1092
1112
2112
C612
0400
1FFE
0002
0002
1FFE
1000
1000
1FFF
ENDCHAR
STARTCHAR AE78
ENCODING 12670
SWIDTH 2000 0
DWIDTH 20 0
BBX 15 17 3 -2
BITMAP
0024
FF24
1124
1124
1124
113C
2124
2224
6624
8C24
0000
3FFE
2002
2002
2002
2002
3FFE
ENDCHAR
STARTCHAR AE79
ENCODING 12833
SWIDTH 2000 0
DWIDTH 20 0
BBX 14 17 3 -2
BITMAP
0004
FF24
1124
1124
1124
113C
1124
2224
4624
8C24
0000
2004
2004
3FFC
2004
2004
3FFC
ENDCHAR
STARTCHAR AE7B
ENCODING 12834
SWIDTH 2000 0
DWIDTH 20 0
BBX 16 17 2 -2
BITMAP
0022
F7A2
10A2
10A2
10A2
10BE
10A2
21A2
2122
C222
0422
0080
0080
0140
0220
0C18
700F
ENDCHAR
STARTCHAR AE7C
ENCODING 12835
SWIDTH 2000 0
DWIDTH 20 0
BBX 16 17 2 -2
BITMAP
0002
F792
1092
1092
1092
109E
1092
2112
4312
8612
0000
1018
1818
1818
383C
6424
C3C3
ENDCHAR
STARTCHAR AE7D
ENCODING 12836
SWIDTH 2000 0
DWIDTH 20 0
BBX 14 18 3 -3
BITMAP
0004
FF24
1124
1124
1124
113C
1124
2224
6624
CC24
0024
0FE0
3018
400C
4004
4004
3018
0FE0
ENDCHAR
STARTCHAR AE84
ENCODING 12837
SWIDTH 2000 0
DWIDTH 20 0
BBX 18 18 1 -3
BITMAP
000200
F9E200
082200
082200
082200
0823C0
082200
082200
082200
082200
082200
1023C0
304200
60C200
C18200
000200
000200
000200
ENDCHAR
STARTCHAR AE85
ENCODING 12838
SWIDTH 2000 0
DWIDTH 20 0
BBX 18 18 1 -3
BITMAP
000200
7DE200
043200
0433C0
043200
042200
0C2200
0863C0
30C200
E18200
000200
000000
3FFE00
000200
000200
000200
000200
000200
ENDCHAR
STARTCHAR AE8C
ENCODING 12839
SWIDTH 2000 0
DWIDTH 20 0
BBX 18 17 1 -2
BITMAP
000200
7DE200
0433C0
043200
042200
0C2200
0823C0
104200
60C200
810200
000000
3FFE00
000200
3FFE00
300000
300000
3FFF00
ENDCHAR
STARTCHAR AEBC
ENCODING 12840
SWIDTH 2000 0
DWIDTH 20 0
BBX 16 18 2 -3
BITMAP
0001
F9E1
0821
0821
0821
0821
0821
082F
0821
0821
1821
1021
3041
60C1
8181
0001
0001
0001
ENDCHAR
STARTCHAR AEBD
ENCODING 12841
SWIDTH 2000 0
DWIDTH 20 0
BBX 16 18 2 -3
BITMAP
0001
7DE1
0431
0431
0431
042F
0C21
0861
30C1
E181
0100
0000
3FFE
0002
0002
0002
0002
0002
ENDCHAR
STARTCHAR AEBE
ENCODING 12842
SWIDTH 2000 0
DWIDTH 20 0
BBX 16 17 2 -2
BITMAP
0001
7DE1
0431
0431
0431
042F
0821
1841
30C1
C181
0000
7E7E
0202
0202
0202
0202
0202
ENDCHAR
STARTCHAR AEC0
ENCODING 12843
SWIDTH 2000 0
DWIDTH 20 0
BBX 16 17 2 -2
BITMAP
0001
7FE1
0421
0421
0421
0421
0467
0841
18C1
7181
C301
0001
1001
1000
1000
1000
1FFF
ENDCHAR
STARTCHAR AEC4
ENCODING 12844
SWIDTH 2000 0
DWIDTH 20 0
BBX 16 17 2 -2
BITMAP
0001
7DE1
0421
0421
0421
082F
0861
1041
6081
8301
0000
1FFE
0003
1FFE
1000
1000
1FFF
ENDCHAR
STARTCHAR AECC
ENCODING 12845
SWIDTH 2000 0
DWIDTH 20 0
BBX 15 17 3 -2
BITMAP
0002
FBC2
0862
0862
0842
185E
1042
2082
C182
0302
0000
3FFE
2002
2002
2002
2002
3FFE
ENDCHAR
STARTCHAR AECD
ENCODING 12846
SWIDTH 2000 0
DWIDTH 20 0
BBX 16 17 2 -2
BITMAP
0001
7DE1
0431
0431
0421
042F
0821
1841
30C1
C180
1001
1001
1FFF
1001
1001
1001
1FFF
ENDCHAR
STARTCHAR AECF
ENCODING 12847
SWIDTH 2000 0
DWIDTH 20 0
BBX 16 17 2 -2
BITMAP
0002
FBE2
0822
0822
0822
083E
1822
1042
20C2
C182
0302
0042
00C0
01E0
0330
0E18
7807
ENDCHAR
STARTCHAR AED0
ENCODING 12848
SWIDTH 2000 0
DWIDTH 20 0
BBX 16 17 2 -2
BITMAP
0002
FBE2
0822
0822
0822
183E
1042
2042
C082
0382
0200
0808
1808
1818
3C1C
2626
C3C3
ENDCHAR
STARTCHAR AED1
ENCODING 12849
SWIDTH 2000 0
DWIDTH 20 0
BBX 16 18 2 -3
BITMAP
0001
7DE1
0431
0431
0421
0C2F
0861
1841
3181
C101
0001
07F0
180C
2006
2002
2002
180C
07F0
ENDCHAR
STARTCHAR AED8
ENCODING 12850
SWIDTH 2000 0
DWIDTH 20 0
BBX 16 18 2 -3
BITMAP
0010
F791
1091
1091
1091
1091
1091
10F1
1091
1091
1091
3091
2111
C311
8611
0011
0011
0011
ENDCHAR
STARTCHAR AED9
ENCODING 12851
SWIDTH 2000 0
DWIDTH 20 0
BBX 15 18 3 -3
BITMAP
0002
FF22
1122
1122
1122
1122
11E2
2222
6222
CC22
0822
0000
3FFE
0002
0002
0002
0002
0002
ENDCHAR
STARTCHAR AEDC
ENCODING 12852
SWIDTH 2000 0
DWIDTH 20 0
BBX 16 17 2 -2
BITMAP
0012
F792
1092
1092
1092
10F2
1092
2112
2112
C312
0412
0012
1002
1000
1000
1000
1FFF
ENDCHAR
STARTCHAR AEE8
ENCODING 12853
SWIDTH 2000 0
DWIDTH 20 0
BBX 16 17 2 -2
BITMAP
0012
F792
1092
1092
1092
10F2
1092
2112
6312
8612
0000
1FFF
1001
1001
1001
1001
1FFF
ENDCHAR
STARTCHAR AEEB
ENCODING 12854
SWIDTH 2000 0
DWIDTH 20 0
BBX 16 17 2 -2
BITMAP
0012
F792
1092
1092
1092
10F2
1092
1092
2112
6112
8612
0082
00C0
01E0
0330
0E18
7807
ENDCHAR
STARTCHAR AEED
ENCODING 12855
SWIDTH 2000 0
DWIDTH 20 0
BBX 15 18 3 -3
BITMAP
0022
FF22
1122
1122
1122
11E2
1122
2122
6222
8622
0C02
0FE0
3018
400C
4004
4004
3018
0FE0
ENDCHAR
STARTCHAR AEF4
ENCODING 12856
SWIDTH 2000 0
DWIDTH 20 0
BBX 16 18 2 -3
BITMAP
0001
F9E1
0821
0821
0821
082F
0821
0821
0821
0821
1821
102F
3041
60C1
8181
0001
0001
0001
ENDCHAR
STARTCHAR AEF8
ENCODING 12857
SWIDTH 2000 0
DWIDTH 20 0
BBX 16 17 2 -2
BITMAP
0001
7FE1
0421
0421
042F
0421
0421
0841
184F
7081
C301
0001
1001
1000
1000
1000
1FFF
ENDCHAR
STARTCHAR AEFC
ENCODING 12858
SWIDTH 2000 0
DWIDTH 20 0
BBX 16 17 2 -2
BITMAP
0001
7DE1
042F
0421
0421
0821
086F
1041
6081
8301
0000
1FFE
0003
1FFE
1000
1000
1FFF
ENDCHAR
STARTCHAR AF07
ENCODING 12859
SWIDTH 2000 0
DWIDTH 20 0
BBX 16 17 2 -2
BITMAP
0001
FBE1
0821
082F
0821
0821
1841
104F
2081
C181
0001
0001
00C0
01E0
0330
0618
7807
ENDCHAR
STARTCHAR AF08
ENCODING 12860
SWIDTH 2000 0
DWIDTH 20 0
BBX 17 17 2 -2
BITMAP
000200
FBE200
082200
083E00
082200
082200
104200
304200
608200
839E00
000200
080A00
180800
181C00
3C1400
262600
C34380
ENDCHAR
STARTCHAR AF0D
ENCODING 12861
SWIDTH 2000 0
DWIDTH 20 0
BBX 16 17 2 -2
BITMAP
0001
7BE1
0C21
0C2F
0821
0861
1841
30CF
6181
8301
0000
1FFF
1000
1FFF
1000
1000
1FFF
ENDCHAR
STARTCHAR AF10
ENCODING 12862
SWIDTH 2000 0
DWIDTH 20 0
BBX 15 18 2 -3
BITMAP
0010
7F92
0892
0892
0892
08F2
0892
1092
1092
1092
10F2
3092
2112
C312
8612
0012
0012
0002
ENDCHAR
STARTCHAR AF2C
ENCODING 12863
SWIDTH 2000 0
DWIDTH 20 0
BBX 15 15 2 -1
BITMAP
7EFC
0204
0204
0204
0204
0204
0204
0204
0284
0488
0488
0488
0080
0080
FFFE
ENDCHAR
STARTCHAR AF2D
ENCODING 12864
SWIDTH 2000 0
DWIDTH 20 0
BBX 16 17 2 -3
BITMAP
7CFC
0606
0606
0606
04C4
04C4
04C4
00C0
FFFF
0000
0000
7FFC
0006
0006
0006
0006
0006
ENDCHAR
STARTCHAR AF30
ENCODING 12865
SWIDTH 2000 0
DWIDTH 20 0
BBX 15 16 2 -2
BITMAP
7CFC
0606
0606
0606
0404
0484
0484
0484
0080
FFFE
0000
2000
2000
2000
2000
3FFE
ENDCHAR
STARTCHAR AF32
ENCODING 12866
SWIDTH 2000 0
DWIDTH 20 0
BBX 16 16 2 -2
BITMAP
7CFC
0606
0606
0606
0484
0484
0484
FFFE
0000
407C
4000
41FF
4000
407C
7E82
007E
ENDCHAR
STARTCHAR AF34
ENCODING 12867
SWIDTH 2000 0
DWIDTH 20 0
BBX 16 16 2 -2
BITMAP
7CFC
0606
0606
0606
04C4
04C4
04C4
FFFF
0000
0000
7FFC
0006
3FFC
2000
2000
3FFE
ENDCHAR
STARTCHAR AF3C
ENCODING 12868
SWIDTH 2000 0
DWIDTH 20 0
BBX 16 16 2 -2
BITMAP
7CFC
0604
0604
0604
0484
0484
0480
FFFF
0000
0000
3FFC
2004
2004
2004
2004
3FFC
ENDCHAR
STARTCHAR AF3D
ENCODING 12869
SWIDTH 2000 0
DWIDTH 20 0
BBX 16 16 2 -2
BITMAP
7CFC
0606
0606
0404
0484
0484
0484
FFFF
0000
2004
2004
3FFC
2004
2004
2004
3FFC
ENDCHAR
STARTCHAR AF3F
ENCODING 12870
SWIDTH 2000 0
DWIDTH 20 0
BBX 16 16 2 -2
BITMAP
7E7E
0202
0202
0202
0242
0242
0242
0040
FFFF
0000
0080
0080
0140
0220
0C38
700F
ENDCHAR
STARTCHAR AF41
ENCODING 12871
SWIDTH 2000 0
DWIDTH 20 0
BBX 15 17 2 -3
BITMAP
7E7E
0202
0202
0202
0202
0282
0282
0080
FFFE
0000
07F0
180C
2006
2002
2002
180C
07F0
ENDCHAR
STARTCHAR AF42
ENCODING 12872
SWIDTH 2000 0
DWIDTH 20 0
BBX 16 16 2 -2
BITMAP
7CFC
0606
0606
0404
0404
04C4
04C4
00C0
FFFF
0000
0000
3FFE
0180
0260
0C38
7006
ENDCHAR
STARTCHAR AF43
ENCODING 12873
SWIDTH 2000 0
DWIDTH 20 0
BBX 16 16 2 -2
BITMAP
FCFC
0606
0404
0404
0484
0484
0080
FFFF
0000
07E0
0000
7FFE
0180
03C0
0660
781E
ENDCHAR
STARTCHAR AF48
ENCODING 12874
SWIDTH 2000 0
DWIDTH 20 0
BBX 18 18 1 -3
BITMAP
000200
FBE200
082200
082200
082200
082200
082200
082200
1A23C0
122200
120200
020200
020E00
FFF200
000200
000200
000200
000200
ENDCHAR
STARTCHAR AF49
ENCODING 12875
SWIDTH 2000 0
DWIDTH 20 0
BBX 18 18 1 -3
BITMAP
000200
7BE200
0C2200
082200
082200
0823C0
0A2200
0A2200
020600
FFFA00
000200
000000
3FFE00
000200
000200
000200
000200
000200
ENDCHAR
STARTCHAR AF50
ENCODING 12876
SWIDTH 2000 0
DWIDTH 20 0
BBX 18 17 1 -2
BITMAP
000200
7BE200
0C2200
082200
082200
0B23C0
0B2200
030600
FFFA00
000200
000000
3FFE00
000200
3FFE00
300000
300000
1FFE00
ENDCHAR
STARTCHAR AF5C
ENCODING 12877
SWIDTH 2000 0
DWIDTH 20 0
BBX 18 17 1 -2
BITMAP
000200
7BE200
0C2200
082200
082200
0823C0
0A2200
0A2200
020600
FFFA00
000200
080800
080C00
0C0C00
141C00
363200
63E180
ENDCHAR
STARTCHAR AF5D
ENCODING 12878
SWIDTH 2000 0
DWIDTH 20 0
BBX 18 18 1 -3
BITMAP
000200
7BE200
0C2200
0C2200
082200
0823C0
0A2200
0A2200
020600
FFFA00
000200
07F000
180C00
200600
200200
300200
180C00
07F000
ENDCHAR
STARTCHAR AF64
ENCODING 12879
SWIDTH 2000 0
DWIDTH 20 0
BBX 15 17 2 -2
BITMAP
F012
1792
1092
1092
1092
1092
1092
109E
2492
2492
2492
0412
0472
7F92
0012
0012
0012
ENDCHAR
STARTCHAR AF65
ENCODING 12880
SWIDTH 2000 0
DWIDTH 20 0
BBX 15 18 2 -3
BITMAP
0012
F792
1092
1092
1092
109E
1492
0492
0412
FFF2
0012
0000
3FFE
0002
0002
0002
0002
0002
ENDCHAR
STARTCHAR AF79
ENCODING 12881
SWIDTH 2000 0
DWIDTH 20 0
BBX 15 18 2 -3
BITMAP
0012
F792
1092
1092
1092
109E
1492
0412
0412
FFF2
0012
07F0
181C
2006
2002
3002
180C
07F0
ENDCHAR
STARTCHAR AF80
ENCODING 12882
SWIDTH 2000 0
DWIDTH 20 0
BBX 15 18 2 -3
BITMAP
0002
FBE2
0822
0822
0822
0822
0822
0822
0922
0922
1122
0102
0106
7FFA
0002
0002
0002
0002
ENDCHAR
STARTCHAR AF84
ENCODING 12883
SWIDTH 2000 0
DWIDTH 20 0
BBX 15 17 2 -2
BITMAP
0002
FBF2
0812
0812
0812
0832
0922
0922
0106
7FFA
0002
0002
2002
2000
2000
2000
3FFE
ENDCHAR
STARTCHAR AF88
ENCODING 12884
SWIDTH 2000 0
DWIDTH 20 0
BBX 16 17 2 -2
BITMAP
0002
FBE2
0812
0832
0832
0922
0922
0106
FFFA
0002
0000
1FFE
0002
1FFE
1000
1000
1FFF
ENDCHAR
STARTCHAR AF90
ENCODING 12885
SWIDTH 2000 0
DWIDTH 20 0
BBX 15 17 2 -2
BITMAP
0002
FBF2
0812
0812
0812
0932
0922
0926
7FFA
0002
0000
1FFE
1002
1002
1002
1002
1FFE
ENDCHAR
STARTCHAR AF91
ENCODING 12886
SWIDTH 2000 0
DWIDTH 20 0
BBX 15 17 2 -2
BITMAP
0002
FBF2
0812
0812
0812
0932
0922
0106
7FFA
0002
0000
1002
1002
1FFE
1002
1002
1FFE
ENDCHAR
STARTCHAR AF95
ENCODING 12887
SWIDTH 2000 0
DWIDTH 20 0
BBX 15 18 2 -3
BITMAP
0002
FBF2
0812
0812
0812
0932
0922
0126
01FA
7F82
0002
07F0
181C
2006
2002
3002
180C
07F0
ENDCHAR
STARTCHAR AF9C
ENCODING 12888
SWIDTH 2000 0
DWIDTH 20 0
BBX 16 16 2 -2
BITMAP
7CFE
0402
0402
0402
0402
0402
0402
0802
0802
0A12
0A12
0210
0210
0210
0210
FFFF
ENDCHAR
STARTCHAR AFB8
ENCODING 12889
SWIDTH 2000 0
DWIDTH 20 0
BBX 16 17 2 -3
BITMAP
7EFC
0204
0204
0204
0204
0204
0204
0204
0404
FFFF
0080
0080
0080
0080
0080
0080
0080
ENDCHAR
STARTCHAR AFB9
ENCODING 12890
SWIDTH 2000 0
DWIDTH 20 0
BBX 16 17 2 -3
BITMAP
7EFC
0204
0204
0204
0204
0204
0204
FFFF
0080
0080
0080
3FFC
0004
0004
0004
0004
0004
ENDCHAR
STARTCHAR AFBC
ENCODING 12891
SWIDTH 2000 0
DWIDTH 20 0
BBX 16 16 2 -2
BITMAP
7EFC
0204
0204
0204
0204
0204
0204
FFFF
0080
0080
0080
2080
2000
2000
2000
3FFE
ENDCHAR
STARTCHAR AFC0
ENCODING 12892
SWIDTH 2000 0
DWIDTH 20 0
BBX 16 16 2 -2
BITMAP
7EFC
0204
0204
0204
0204
0204
FFFF
0080
0080
7FFC
0006
0006
3FFC
6000
6000
3FFE
ENDCHAR
STARTCHAR AFC7
ENCODING 12893
SWIDTH 2000 0
DWIDTH 20 0
BBX 16 16 2 -2
BITMAP
7F7E
0102
0106
0106
0104
0204
FFFF
0080
00BC
7E00
0600
06FF
7E00
407E
40C2
7E7E
ENDCHAR
STARTCHAR AFC8
ENCODING 12894
SWIDTH 2000 0
DWIDTH 20 0
BBX 16 16 2 -2
BITMAP
7EFC
0204
0204
0204
0204
0204
020C
FFFF
0080
0080
3FFE
2002
2002
2002
2002
3FFE
ENDCHAR
STARTCHAR AFC9
ENCODING 12895
SWIDTH 2000 0
DWIDTH 20 0
BBX 16 16 2 -2
BITMAP
7EFC
0204
0204
0204
0204
0204
0204
FFFF
0080
2084
2084
3FFC
2004
2004
2004
3FFC
ENDCHAR
STARTCHAR AFCB
ENCODING 12896
SWIDTH 2000 0
DWIDTH 20 0
BBX 16 17 2 -3
BITMAP
7EFC
0204
0204
0204
0204
0204
0204
FFFF
0080
0080
0080
0080
01C0
0360
0C30
781E
4002
ENDCHAR
STARTCHAR AFCD
ENCODING 12897
SWIDTH 2000 0
DWIDTH 20 0
BBX 16 17 2 -3
BITMAP
7EFC
0204
0204
0204
0204
0204
0204
FFFF
0080
0080
07F0
180C
3006
2002
3006
181C
07F0
ENDCHAR
STARTCHAR AFCE
ENCODING 12898
SWIDTH 2000 0
DWIDTH 20 0
BBX 16 17 2 -3
BITMAP
7EFC
0204
0204
0204
0204
0204
FFFF
0080
0080
0000
0000
7FFE
0180
02C0
0C60
781E
4000
ENDCHAR
STARTCHAR AFD4
ENCODING 12899
SWIDTH 2000 0
DWIDTH 20 0
BBX 14 18 3 -3
BITMAP
0004
FFC4
0844
0844
0844
0844
0844
0844
1884
F0E4
0F04
0404
04FC
0404
0404
0404
0404
0004
ENDCHAR
STARTCHAR AFDC
ENCODING 12900
SWIDTH 2000 0
DWIDTH 20 0
BBX 15 17 2 -2
BITMAP
0002
79E2
0C32
0C22
0C22
0822
FFFA
0202
023E
0202
0000
3FFE
0002
3FFE
2000
2000
3FFE
ENDCHAR
STARTCHAR AFE8
ENCODING 12901
SWIDTH 2000 0
DWIDTH 20 0
BBX 17 17 2 -2
BITMAP
000200
FBE200
082200
082200
082200
082200
082200
FFF200
020200
023E00
020200
180800
180800
181C00
2C3400
666300
814180
ENDCHAR
STARTCHAR AFE9
ENCODING 12902
SWIDTH 2000 0
DWIDTH 20 0
BBX 14 18 3 -3
BITMAP
0004
FFC4
0844
0844
0844
0844
0844
FFE4
0404
047C
0404
0FE0
3038
600C
4004
600C
3038
0FE0
ENDCHAR
STARTCHAR AFF0
ENCODING 12903
SWIDTH 2000 0
DWIDTH 20 0
BBX 15 17 3 -3
BITMAP
7722
1122
1122
1122
1122
1122
1122
2222
FFE2
0822
09E2
0822
0822
0822
0822
0822
0002
ENDCHAR
STARTCHAR AFF1
ENCODING 12904
SWIDTH 2000 0
DWIDTH 20 0
BBX 16 18 2 -3
BITMAP
0011
F391
1091
1091
1091
1091
1091
FFD1
04F1
0411
0401
0000
1FFF
0001
0001
0001
0001
0001
ENDCHAR
STARTCHAR AFF4
ENCODING 12905
SWIDTH 2000 0
DWIDTH 20 0
BBX 16 17 2 -2
BITMAP
0011
F711
1111
1111
1111
1111
1111
1F91
FC11
04F1
0411
0411
1011
1000
1000
1000
1FFF
ENDCHAR
STARTCHAR AFF8
ENCODING 12906
SWIDTH 2000 0
DWIDTH 20 0
BBX 16 17 2 -2
BITMAP
0001
F791
1191
1191
1191
1191
FFD1
0C11
0CF1
0C11
0000
1FFF
0003
1FFF
1000
1000
1FFF
ENDCHAR
STARTCHAR B000
ENCODING 12907
SWIDTH 2000 0
DWIDTH 20 0
BBX 16 17 2 -2
BITMAP
0011
F391
1091
1091
1091
1091
1FD1
FC11
04F1
0411
0400
1FFF
1801
1801
1801
1801
1FFF
ENDCHAR
STARTCHAR B001
ENCODING 12908
SWIDTH 2000 0
DWIDTH 20 0
BBX 16 17 2 -2
BITMAP
0011
F391
1091
1091
1091
1091
1FD1
FC11
04F1
0411
0400
1001
1001
1FFF
1001
1001
1FFF
ENDCHAR
STARTCHAR B004
ENCODING 12909
SWIDTH 2000 0
DWIDTH 20 0
BBX 16 17 2 -2
BITMAP
0012
F712
1112
1112
1112
1112
1F92
F812
08F2
0812
0812
0000
0808
1818
1C14
2626
C343
ENDCHAR
STARTCHAR B00C
ENCODING 12910
SWIDTH 2000 0
DWIDTH 20 0
BBX 14 18 3 -3
BITMAP
0004
FBC4
0844
0844
0844
0844
0844
0844
0844
FFFC
0204
0204
0204
0204
0204
0204
0204
0004
ENDCHAR
STARTCHAR B010
ENCODING 12911
SWIDTH 2000 0
DWIDTH 20 0
BBX 16 17 2 -2
BITMAP
0002
FBE2
0822
0822
0822
0822
0822
0822
FFFE
0202
0202
0202
1202
1000
1000
1000
1FFF
ENDCHAR
STARTCHAR B014
ENCODING 12912
SWIDTH 2000 0
DWIDTH 20 0
BBX 16 17 2 -2
BITMAP
0002
FBE2
0822
0822
0822
0822
0822
FFFE
0202
0202
0000
3FFE
0002
1FFE
1000
1000
1FFF
ENDCHAR
STARTCHAR B01C
ENCODING 12913
SWIDTH 2000 0
DWIDTH 20 0
BBX 14 17 3 -2
BITMAP
0004
FFC4
0844
0844
0844
0844
0844
FFFC
0204
0204
0204
3FFC
2004
2004
2004
2004
3FFC
ENDCHAR
STARTCHAR B01D
ENCODING 12914
SWIDTH 2000 0
DWIDTH 20 0
BBX 14 17 3 -2
BITMAP
0004
FFC4
0844
0844
0844
0844
0844
FFFC
0204
0204
0204
2004
2004
3FFC
2004
2004
3FFC
ENDCHAR
STARTCHAR B028
ENCODING 12915
SWIDTH 2000 0
DWIDTH 20 0
BBX 16 17 2 -3
BITMAP
7EFC
0204
0204
0204
0204
0204
0204
0204
0404
FFFF
0810
0810
0810
0810
0810
0810
0810
ENDCHAR
STARTCHAR B044
ENCODING 12916
SWIDTH 2000 0
DWIDTH 20 0
BBX 16 15 2 -1
BITMAP
7E7E
0202
0202
0202
0202
0202
0202
0202
0202
0202
0202
0404
0404
0404
FFFF
ENDCHAR
STARTCHAR B045
ENCODING 12917
SWIDTH 2000 0
DWIDTH 20 0
BBX 16 16 2 -2
BITMAP
7E7E
0202
0202
0202
0204
0204
0204
FFFF
0000
0000
7FFC
0004
0004
0004
0004
0004
ENDCHAR
STARTCHAR B048
ENCODING 12918
SWIDTH 2000 0
DWIDTH 20 0
BBX 17 16 2 -2
BITMAP
7E7E00
020200
020200
020200
020200
020200
020200
020200
FFFF80
000000
200000
200000
200000
200000
200000
3FFE00
ENDCHAR
STARTCHAR B04A
ENCODING 12919
SWIDTH 2000 0
DWIDTH 20 0
BBX 17 17 2 -3
BITMAP
7E7E00
020200
020200
020200
020200
020200
020200
FFFF80
000000
007C00
200000
21FF00
200000
207C00
208200
3E8200
007C00
ENDCHAR
STARTCHAR B04C
ENCODING 12920
SWIDTH 2000 0
DWIDTH 20 0
BBX 17 16 2 -2
BITMAP
3E7E00
010200
010200
010200
010200
030200
020200
FFFF80
000000
7FFC00
000600
000600
3FFC00
200000
200000
3FFE00
ENDCHAR
STARTCHAR B04E
ENCODING 12921
SWIDTH 2000 0
DWIDTH 20 0
BBX 17 17 2 -3
BITMAP
7E7E00
020200
020200
020200
020200
020200
020200
FFFF80
000000
7E7E00
024200
024200
7E4200
604200
604200
7F7E00
780000
ENDCHAR
STARTCHAR B053
ENCODING 12922
SWIDTH 2000 0
DWIDTH 20 0
BBX 17 16 2 -2
BITMAP
7E7E00
020200
020200
020200
020200
020200
020200
FFFF80
000000
7C3C00
040000
04FF00
7C7E00
40C200
40C200
7E7C00
ENDCHAR
STARTCHAR B054
ENCODING 12923
SWIDTH 2000 0
DWIDTH 20 0
BBX 17 16 2 -2
BITMAP
7E7E00
020200
020200
020200
020200
020200
020200
FFFF80
000000
000000
3FFE00
200200
200200
200200
200200
3FFE00
ENDCHAR
STARTCHAR B055
ENCODING 12924
SWIDTH 2000 0
DWIDTH 20 0
BBX 16 16 2 -2
BITMAP
7E7E
0202
0202
0202
0204
0204
0204
FFFF
0000
2004
2004
3FFC
2004
2004
2004
3FFC
ENDCHAR
STARTCHAR B057
ENCODING 12925
SWIDTH 2000 0
DWIDTH 20 0
BBX 17 16 2 -2
BITMAP
7E7E00
020200
020200
020200
020200
020200
020200
020200
FFFF80
000000
008000
00C000
014000
032000
0C1800
780F00
ENDCHAR
STARTCHAR B059
ENCODING 12926
SWIDTH 2000 0
DWIDTH 20 0
BBX 17 17 2 -3
BITMAP
7E7E00
020200
020200
020200
020200
020200
020200
FFFF80
000000
000000
07F000
181C00
200600
200200
300600
180C00
07F000
ENDCHAR
STARTCHAR B05D
ENCODING 13089
SWIDTH 2000 0
DWIDTH 20 0
BBX 17 16 2 -2
BITMAP
7E7E00
020200
020200
020200
020200
020200
020200
FFFF80
000000
3FFC00
200000
200000
3FFC00
200000
200000
3FFC00
ENDCHAR
STARTCHAR B07C
ENCODING 13090
SWIDTH 2000 0
DWIDTH 20 0
BBX 16 18 2 -3
BITMAP
0001
F9E1
0821
0821
0821
0821
0821
0821
0821
0821
0821
1021
3041
60C1
C181
0001
0001
0001
ENDCHAR
STARTCHAR B07D
ENCODING 13091
SWIDTH 2000 0
DWIDTH 20 0
BBX 16 18 2 -3
BITMAP
0002
7FE2
0422
0422
0422
0C62
0842
1842
3082
C302
0002
1FFF
0001
0001
0001
0001
0001
0001
ENDCHAR
STARTCHAR B080
ENCODING 13092
SWIDTH 2000 0
DWIDTH 20 0
BBX 16 17 2 -2
BITMAP
0002
7FE2
0422
0422
0422
0422
0422
0842
1842
3082
C302
0002
1000
1000
1000
1000
1FFF
ENDCHAR
STARTCHAR B084
ENCODING 13093
SWIDTH 2000 0
DWIDTH 20 0
BBX 16 17 2 -2
BITMAP
0003
7DE3
0433
0423
0423
0823
0863
1043
6083
8300
0000
1FFE
0003
1FFE
1000
1000
1FFF
ENDCHAR
STARTCHAR B08C
ENCODING 13094
SWIDTH 2000 0
DWIDTH 20 0
BBX 16 17 2 -2
BITMAP
0002
7DE2
0432
0432
0422
0422
0822
1842
30C2
C182
0000
1FFF
1001
1001
1001
1001
1FFF
ENDCHAR
STARTCHAR B08D
ENCODING 13095
SWIDTH 2000 0
DWIDTH 20 0
BBX 16 17 2 -2
BITMAP
0002
7DE2
0432
0432
0432
0C22
0822
1042
60C2
8100
1001
1001
1FFF
1001
1001
1001
1FFE
ENDCHAR
STARTCHAR B08F
ENCODING 13096
SWIDTH 2000 0
DWIDTH 20 0
BBX 16 18 2 -3
BITMAP
0002
FBE2
0822
0822
0822
0822
1862
1042
20C2
C182
0302
0002
0080
00C0
0160
0230
0C18
F007
ENDCHAR
STARTCHAR B091
ENCODING 13097
SWIDTH 2000 0
DWIDTH 20 0
BBX 16 18 2 -3
BITMAP
0001
7DE1
0431
0431
0431
0421
0821
1861
30C1
C181
0001
07F8
1C0E
3003
2001
3003
1C0E
07F8
ENDCHAR
STARTCHAR B098
ENCODING 13098
SWIDTH 2000 0
DWIDTH 20 0
BBX 16 17 2 -2
BITMAP
8008
8008
8008
8008
8008
8008
8008
800F
8008
8008
8008
8018
7FE8
0008
0008
0008
0008
ENDCHAR
ENDFONT
